<?xml version="1.0" encoding="utf-8"?>
<!-- Generator: Adobe Illustrator 27.6.1, SVG Export Plug-In . SVG Version: 6.00 Build 0)  -->
<svg version="1.1" id="Calque_1" xmlns="http://www.w3.org/2000/svg" xmlns:xlink="http://www.w3.org/1999/xlink" x="0px" y="0px"
	 viewBox="0 0 138 138" style="enable-background:new 0 0 138 138;" xml:space="preserve">
<style type="text/css">
	.st0{opacity:0.1;fill:#FEDA5E;enable-background:new    ;}
	.st1{fill:#FEDA5E;}
	.st2{fill:#FFFFFF;}
</style>
<rect class="st0" width="138" height="138"/>
<path class="st1" d="M36.9,58.1h62.2c5.9,0,10.9,4.8,10.9,10.9l0,0c0,5.9-4.8,10.9-10.9,10.9H36.9C30.9,79.9,26,75.1,26,69l0,0
	C26.1,62.9,30.9,58.1,36.9,58.1z"/>
<path class="st2" d="M76.8,66.6H102c1.3,0,2.4,1,2.4,2.4l0,0c0,1.3-1,2.4-2.4,2.4H76.8c-1.3,0-2.4-1-2.4-2.4l0,0
	C74.5,67.6,75.6,66.6,76.8,66.6z"/>
<circle class="st2" cx="35.9" cy="69" r="4.4"/>
<path class="st1" d="M36.9,83.8h62.2c5.9,0,10.9,4.8,10.9,10.9l0,0c0,5.9-4.8,10.9-10.9,10.9H36.9c-5.9,0-10.9-4.8-10.9-10.9l0,0
	C26.1,88.7,30.9,83.8,36.9,83.8z"/>
<path class="st2" d="M76.8,92.3H102c1.3,0,2.4,1,2.4,2.4l0,0c0,1.3-1,2.4-2.4,2.4H76.8c-1.3,0-2.4-1-2.4-2.4l0,0
	C74.5,93.4,75.6,92.3,76.8,92.3z"/>
<circle class="st2" cx="35.9" cy="94.7" r="4.4"/>
<path class="st1" d="M36.9,32.5h62.2c5.9,0,10.9,4.8,10.9,10.9l0,0c0,5.9-4.8,10.9-10.9,10.9H36.9c-5.9,0-10.9-4.8-10.9-10.9l0,0
	C26.1,37.3,30.9,32.5,36.9,32.5z"/>
<circle class="st2" cx="35.9" cy="43.3" r="4.4"/>
<path class="st2" d="M76.8,40.9H102c1.3,0,2.4,1,2.4,2.4l0,0c0,1.3-1,2.4-2.4,2.4H76.8c-1.3,0-2.4-1-2.4-2.4l0,0
	C74.5,41.9,75.6,40.9,76.8,40.9z"/>
</svg>
