<?xml version="1.0" encoding="utf-8"?>
<!-- Generator: Adobe Illustrator 27.6.1, SVG Export Plug-In . SVG Version: 6.00 Build 0)  -->
<svg version="1.1" id="Calque_1" xmlns="http://www.w3.org/2000/svg" xmlns:xlink="http://www.w3.org/1999/xlink" x="0px" y="0px"
	 viewBox="0 0 85 85" style="enable-background:new 0 0 85 85;" xml:space="preserve">
<style type="text/css">
	.st0{opacity:0.1;fill:#FEDA5E;}
	.st1{opacity:0.1;fill:#FFFFFF;enable-background:new    ;}
	.st2{opacity:0.6;fill:none;stroke:#FEDA5E;stroke-width:7;stroke-linecap:round;stroke-linejoin:round;enable-background:new    ;}
	.st3{fill:#FEDA5E;}
</style>
<rect class="st0" width="85" height="85"/>
<rect class="st1" width="85" height="85"/>
<path class="st2" d="M60.3,26c-3-3.6-7.1-6.3-11.6-7.5c-4.6-1.3-9.4-1.1-13.9,0.5s-8.3,4.5-11,8.4c-2.7,3.9-4.2,8.5-4.2,13.2v6.3"/>
<path class="st2" d="M26.9,60.2c3.2,3.3,7.3,5.7,11.7,6.7c4.5,1,9.2,0.6,13.5-1.1c4.3-1.7,7.9-4.6,10.5-8.5c2.6-3.8,4-8.3,4-12.9
	v-4.2"/>
<path class="st3" d="M29.9,39.3c0,0.3-0.1,0.5-0.2,0.7l-9.7,13.8c-0.3,0.4-0.7,0.6-1.2,0.6s-0.9-0.3-1.1-0.7L9.4,38.9
	c-0.2-0.4-0.2-1,0-1.4c0.3-0.4,0.7-0.7,1.2-0.6l18,0.9c0.5,0,0.9,0.3,1.1,0.8C29.9,38.8,29.9,39.1,29.9,39.3"/>
<path class="st3" d="M55.6,48.2c0-0.2,0.1-0.5,0.2-0.7l9.4-13.8c0.3-0.4,0.7-0.6,1.1-0.6c0.5,0,0.9,0.3,1.1,0.7l8.4,14.4
	c0.2,0.4,0.2,0.9,0,1.4c-0.2,0.4-0.7,0.7-1.2,0.6l-17.8-0.6c-0.5,0-0.9-0.3-1.1-0.7C55.7,48.6,55.6,48.4,55.6,48.2z"/>
</svg>
