<?xml version="1.0" encoding="utf-8"?>
<!-- Generator: Adobe Illustrator 27.5.0, SVG Export Plug-In . SVG Version: 6.00 Build 0)  -->
<svg version="1.1" id="Calque_1" xmlns="http://www.w3.org/2000/svg" xmlns:xlink="http://www.w3.org/1999/xlink" x="0px" y="0px"
	 viewBox="0 0 85 85" style="enable-background:new 0 0 85 85;" xml:space="preserve">
<style type="text/css">
	.st0{opacity:0.1;fill:#FEDA5E;enable-background:new    ;}
	.st1{opacity:0.4;fill:#FEDA5E;enable-background:new    ;}
	.st2{fill:#FEDA5E;}
</style>
<rect y="0" class="st0" width="85" height="85"/>
<path class="st1" d="M35,50.6c-11.2,0-20.8,1.7-20.8,8.7c0,6.9,9.5,8.7,20.8,8.7c11.2,0,20.8-1.7,20.8-8.7
	C55.8,52.4,46.3,50.6,35,50.6"/>
<path class="st2" d="M35,44c7.7,0,13.8-6,13.8-13.5S42.6,17,35,17c-7.7,0-13.8,6-13.8,13.5S27.3,44,35,44"/>
<path class="st2" d="M54.3,30.7c0,3.8-1.2,7.4-3.2,10.3c-0.2,0.3,0,0.7,0.3,0.8c0.5,0.1,1,0.1,1.6,0.1c5.4,0.1,10.2-3.3,11.5-8.4
	c2-7.6-3.8-14.4-11.2-14.4c-0.8,0-1.6,0.1-2.3,0.2c-0.1,0-0.2,0.1-0.3,0.2c-0.1,0.1,0,0.3,0.1,0.4C53,23,54.3,26.7,54.3,30.7"/>
<path class="st1" d="M70.2,51.5c-1-2.1-3.4-3.5-7-4.2c-1.7-0.4-6.3-1-10.6-0.9c-0.1,0-0.1,0.1-0.1,0.1c0,0,0,0.1,0.1,0.2
	c2,1,9.7,5.1,8.7,14c0,0.4,0.3,0.7,0.7,0.7c1.9-0.3,6.7-1.3,8.3-4.5C71,55.1,71,53.2,70.2,51.5"/>
</svg>
