<?xml version="1.0" encoding="utf-8"?>
<!-- Generator: Adobe Illustrator 27.5.0, SVG Export Plug-In . SVG Version: 6.00 Build 0)  -->
<svg version="1.1" id="Calque_1" xmlns="http://www.w3.org/2000/svg" xmlns:xlink="http://www.w3.org/1999/xlink" x="0px" y="0px"
	 viewBox="0 0 85 85" style="enable-background:new 0 0 85 85;" xml:space="preserve">
<style type="text/css">
	.st0{opacity:0.1;fill:#FEDA5E;enable-background:new    ;}
	.st1{opacity:0.4;fill-rule:evenodd;clip-rule:evenodd;fill:#FEDA5E;enable-background:new    ;}
	.st2{fill:#FEDA5E;}
</style>
<rect y="0" class="st0" width="85" height="85"/>
<path class="st1" d="M62.9,32.8c1.4,1.4,1.4,3.6,0,4.9L46.2,54.5c0,0,0,0,0,0c-0.6,0.6-1.4,1.1-2.2,1.4c-0.8,0.3-1.7,0.5-2.6,0.5
	c-0.9,0-1.7-0.2-2.6-0.5c-0.8-0.3-1.5-0.8-2.2-1.4l-6.4-6.4L15.4,63.1c-1.4,1.4-3.6,1.4-4.9,0c-1.4-1.4-1.4-3.6,0-4.9L25.7,43
	c0,0,0,0,0,0c0.6-0.6,1.4-1.1,2.2-1.4c0.8-0.3,1.7-0.5,2.6-0.5s1.7,0.2,2.6,0.5c0.8,0.3,1.5,0.8,2.2,1.4c0,0,0,0,0,0l6.4,6.4
	L58,32.8C59.3,31.4,61.6,31.4,62.9,32.8z"/>
<path class="st2" d="M49.7,27.6c0.2-0.2,0.5-0.4,0.9-0.4L72,23c0.6-0.1,1.2,0.1,1.6,0.5c0.4,0.4,0.6,1.1,0.4,1.6l-5.6,21.1
	c-0.2,0.6-0.6,1.1-1.3,1.2c-0.6,0.2-1.3,0-1.7-0.5L49.6,30c-0.4-0.5-0.6-1.1-0.4-1.7C49.3,28,49.5,27.8,49.7,27.6z"/>
</svg>
