<?xml version="1.0" encoding="utf-8"?>
<!-- Generator: Adobe Illustrator 27.5.0, SVG Export Plug-In . SVG Version: 6.00 Build 0)  -->
<svg version="1.1" id="Calque_1" xmlns="http://www.w3.org/2000/svg" xmlns:xlink="http://www.w3.org/1999/xlink" x="0px" y="0px"
	 viewBox="0 0 85 85" style="enable-background:new 0 0 85 85;" xml:space="preserve">
<style type="text/css">
	.st0{opacity:0.1;fill:#FEDA5E;enable-background:new    ;}
	.st1{opacity:0.4;fill:#FEDA5E;enable-background:new    ;}
	.st2{fill:#FEDA5E;}
	.st3{fill:none;stroke:#FFFFFF;stroke-width:5;stroke-linecap:round;stroke-miterlimit:10;}
</style>
<rect y="0" class="st0" width="85" height="85"/>
<path class="st1" d="M64.8,35c0-3.9-1-7.7-2.9-11.1c-1.9-3.4-4.7-6.2-8.1-8.2c-3.4-2-7.2-3-11.1-3c-3.9,0-7.7,1-11.1,2.9
	c-3.4,1.9-6.2,4.7-8.2,8.1c-2,3.4-3.1,7.2-3.1,11.1s0.9,7.7,2.8,11.2c1.9,3.4,4.7,6.3,8,8.3v17.2c0,0.5,0.1,1,0.4,1.4
	c0.3,0.4,0.7,0.7,1.1,0.9c0.5,0.2,1,0.2,1.5,0.1s0.9-0.3,1.3-0.7l6.7-6.7c0.1-0.1,0.1-0.1,0.2-0.1c0.1,0,0.2,0,0.2,0
	c0.1,0,0.2,0,0.2,0c0.1,0,0.1,0.1,0.2,0.1l6.7,6.7c0.4,0.4,0.8,0.6,1.3,0.7s1,0,1.5-0.1c0.5-0.2,0.9-0.5,1.1-0.9
	c0.3-0.4,0.4-0.9,0.4-1.4V54.1c3.3-2,6-4.8,7.9-8.1C63.8,42.6,64.8,38.8,64.8,35L64.8,35z M42.5,53.5c-3.7,0-7.2-1.1-10.3-3.1
	c-3-2-5.4-4.9-6.8-8.3c-1.4-3.4-1.8-7.1-1.1-10.7c0.7-3.6,2.5-6.9,5.1-9.5c2.6-2.6,5.9-4.3,9.5-5.1c3.6-0.7,7.3-0.3,10.7,1.1
	c3.4,1.4,6.3,3.8,8.3,6.8c2,3,3.1,6.6,3.1,10.3c0,4.9-2,9.6-5.4,13.1C52.1,51.5,47.4,53.4,42.5,53.5L42.5,53.5z"/>
<circle class="st2" cx="42.5" cy="35" r="23.9"/>
<path class="st3" d="M52.6,28.1L39.3,41.3c-0.4,0.4-1,0.4-1.4,0l-5.5-5.5"/>
</svg>
