<?xml version="1.0" encoding="utf-8"?>
<!-- Generator: Adobe Illustrator 27.5.0, SVG Export Plug-In . SVG Version: 6.00 Build 0)  -->
<svg version="1.1" id="Calque_1" xmlns="http://www.w3.org/2000/svg" xmlns:xlink="http://www.w3.org/1999/xlink" x="0px" y="0px"
	 viewBox="0 0 138 138" style="enable-background:new 0 0 138 138;" xml:space="preserve">
<style type="text/css">
	.st0{opacity:0.1;fill:#FEDA5E;enable-background:new    ;}
	.st1{opacity:0.32;}
	.st2{fill:#FEDA5E;}
	.st3{fill:#FFFFFF;}
</style>
<rect y="0" class="st0" width="138" height="138"/>
<g class="st1">
	<path class="st2" d="M118.2,64c0-4.6-1.8-8.9-5-12.2c-3.2-3.3-7.5-5.1-12.1-5.2c-0.5,0-0.9-0.2-1.3-0.5c-0.4-0.3-0.6-0.7-0.7-1.2
		C98,38.8,95,33.1,90.5,28.7s-10.2-7.3-16.4-8.4s-12.6-0.2-18.2,2.5c-5.7,2.7-10.4,7.1-13.5,12.5c-0.2,0.3-0.4,0.5-0.7,0.7
		c-0.3,0.2-0.6,0.3-0.9,0.3c-5.7,0.4-11,3-14.9,7.1c-3.9,4.2-6,9.7-6,15.4c0,19.7,20.1,22.5,20.5,22.6h59.6c5.1,0,10-1.9,13.8-5.3
		c1.6-1.6,2.8-3.5,3.6-5.6C118,68.5,118.3,66.3,118.2,64L118.2,64z M92.1,64l-3.2,5.3c-0.3,0.5-0.6,0.9-1.1,1.2
		c-0.4,0.3-0.9,0.6-1.5,0.7c-0.5,0.1-1.1,0.2-1.6,0.1c-0.5-0.1-1.1-0.3-1.5-0.5c-0.5-0.3-0.9-0.7-1.2-1.1c-0.3-0.4-0.6-0.9-0.7-1.5
		c-0.1-0.5-0.1-1.1-0.1-1.6c0.1-0.5,0.3-1.1,0.6-1.5l3.2-5.3c0.3-0.5,0.6-0.9,1.1-1.2c0.4-0.3,0.9-0.6,1.4-0.7
		c0.5-0.1,1.1-0.2,1.6-0.1c0.5,0.1,1,0.3,1.5,0.5c0.5,0.3,0.9,0.6,1.2,1.1c0.3,0.4,0.6,0.9,0.7,1.4c0.1,0.5,0.2,1.1,0.1,1.6
		C92.6,63,92.4,63.5,92.1,64L92.1,64z M63.5,64.8l8.2-12.3c0.3-0.4,0.7-0.8,1.1-1.1c0.4-0.3,1-0.5,1.5-0.6c0.5-0.1,1.1-0.1,1.6,0
		c0.5,0.1,1,0.3,1.5,0.6c0.4,0.3,0.8,0.7,1.1,1.1c0.3,0.4,0.5,1,0.6,1.5c0.1,0.5,0.1,1.1,0,1.6c-0.1,0.5-0.3,1-0.6,1.5l-8.2,12.3
		c-0.6,0.9-1.5,1.5-2.6,1.7c-1.1,0.2-2.2,0-3.1-0.6c-0.9-0.6-1.5-1.5-1.7-2.6C62.7,66.9,62.9,65.8,63.5,64.8L63.5,64.8z"/>
	<rect x="58.5" y="49.7" class="st2" width="41.5" height="23.8"/>
</g>
<path class="st2" d="M44.4,80.6h49.2c4.7,0,8.6,3.8,8.6,8.6l0,0c0,4.7-3.8,8.6-8.6,8.6H44.4c-4.7,0-8.6-3.8-8.6-8.6l0,0
	C35.9,84.4,39.7,80.6,44.4,80.6z"/>
<path class="st3" d="M76,87.3h19.9c1,0,1.9,0.8,1.9,1.9v0c0,1-0.8,1.9-1.9,1.9H76c-1,0-1.9-0.8-1.9-1.9v0C74.2,88.1,75,87.3,76,87.3
	z"/>
<circle class="st3" cx="43.6" cy="89.2" r="3.5"/>
<path class="st2" d="M44.4,100.9h49.2c4.7,0,8.6,3.8,8.6,8.6l0,0c0,4.7-3.8,8.6-8.6,8.6H44.4c-4.7,0-8.6-3.8-8.6-8.6l0,0
	C35.9,104.8,39.7,100.9,44.4,100.9z"/>
<path class="st3" d="M76,107.6h19.9c1,0,1.9,0.8,1.9,1.9v0c0,1-0.8,1.9-1.9,1.9H76c-1,0-1.9-0.8-1.9-1.9v0
	C74.2,108.5,75,107.6,76,107.6z"/>
<circle class="st3" cx="43.6" cy="109.5" r="3.5"/>
<path class="st2" d="M44.4,60.3h49.2c4.7,0,8.6,3.8,8.6,8.6l0,0c0,4.7-3.8,8.6-8.6,8.6H44.4c-4.7,0-8.6-3.8-8.6-8.6l0,0
	C35.9,64.1,39.7,60.3,44.4,60.3z"/>
<circle class="st3" cx="43.6" cy="68.9" r="3.5"/>
<path class="st3" d="M76,67h19.9c1,0,1.9,0.8,1.9,1.9v0c0,1-0.8,1.9-1.9,1.9H76c-1,0-1.9-0.8-1.9-1.9v0C74.2,67.8,75,67,76,67z"/>
</svg>
