<?xml version="1.0" encoding="utf-8"?>
<!-- Generator: Adobe Illustrator 27.6.1, SVG Export Plug-In . SVG Version: 6.00 Build 0)  -->
<svg version="1.1" id="Calque_1" xmlns="http://www.w3.org/2000/svg" xmlns:xlink="http://www.w3.org/1999/xlink" x="0px" y="0px"
	 viewBox="0 0 85 85" style="enable-background:new 0 0 85 85;" xml:space="preserve">
<style type="text/css">
	.st0{fill:#FFFFFF;}
	.st1{opacity:0.1;fill:#FEDA5E;}
	.st2{opacity:0.6;fill:#FEDA5E;enable-background:new    ;}
	.st3{fill:#FEDA5E;}
</style>
<rect class="st0" width="85" height="85"/>
<rect class="st1" width="85" height="85"/>
<path class="st2" d="M47.4,66.9h-9.6c-0.2,0-0.4,0.1-0.6,0.2c-0.2,0.1-0.3,0.3-0.5,0.4c-0.1,0.2-0.2,0.4-0.2,0.6
	c0,0.2,0,0.4,0.1,0.6l0.9,1.7c0.4,0.8,1.1,1.6,1.9,2.1c0.8,0.5,1.7,0.8,2.7,0.8h1c0.9,0,1.9-0.3,2.7-0.8c0.8-0.5,1.5-1.2,1.9-2.1
	l0.9-1.7c0.1-0.2,0.1-0.4,0.1-0.6c0-0.2-0.1-0.4-0.2-0.6c-0.1-0.2-0.3-0.3-0.5-0.4C47.8,66.9,47.6,66.9,47.4,66.9L47.4,66.9z"/>
<path class="st2" d="M42.6,23.5c0.7,0,1.3-0.3,1.8-0.7c0.5-0.5,0.7-1.1,0.7-1.8v-6.4c0-0.7-0.3-1.3-0.7-1.8
	c-0.5-0.5-1.1-0.7-1.8-0.7s-1.3,0.3-1.8,0.7c-0.5,0.5-0.7,1.1-0.7,1.8v6.4c0,0.7,0.3,1.3,0.7,1.8C41.3,23.2,41.9,23.5,42.6,23.5z"/>
<path class="st2" d="M66.1,21.7c-0.5-0.5-1.1-0.7-1.8-0.7c-0.7,0-1.3,0.3-1.8,0.7L58,26.2c-0.2,0.2-0.4,0.5-0.6,0.8
	c-0.1,0.3-0.2,0.6-0.2,1c0,0.3,0.1,0.7,0.2,1c0.1,0.3,0.3,0.6,0.6,0.8c0.2,0.2,0.5,0.4,0.8,0.6c0.3,0.1,0.6,0.2,1,0.2
	c0.3,0,0.7-0.1,1-0.2c0.3-0.1,0.6-0.3,0.8-0.6l4.5-4.5c0.5-0.5,0.7-1.1,0.7-1.8C66.8,22.8,66.5,22.2,66.1,21.7L66.1,21.7z"/>
<path class="st2" d="M70.7,42.6h-5.1c-0.7,0-1.3,0.3-1.8,0.7c-0.5,0.5-0.7,1.1-0.7,1.8s0.3,1.3,0.7,1.8c0.5,0.5,1.1,0.7,1.8,0.7h5.1
	c0.7,0,1.3-0.3,1.8-0.7c0.5-0.5,0.7-1.1,0.7-1.8s-0.3-1.3-0.7-1.8C72,42.9,71.4,42.6,70.7,42.6z"/>
<path class="st2" d="M27.3,26.2l-4.5-4.5C22.3,21.3,21.6,21,21,21c-0.7,0-1.3,0.3-1.8,0.7c-0.5,0.5-0.7,1.1-0.7,1.8
	c0,0.7,0.3,1.3,0.7,1.8l4.5,4.5c0.5,0.5,1.1,0.7,1.8,0.7c0.7,0,1.3-0.3,1.8-0.7c0.5-0.5,0.7-1.1,0.7-1.8
	C28,27.4,27.7,26.7,27.3,26.2z"/>
<path class="st2" d="M19.7,42.6h-5.1c-0.7,0-1.3,0.3-1.8,0.7c-0.5,0.5-0.7,1.1-0.7,1.8s0.3,1.3,0.7,1.8c0.5,0.5,1.1,0.7,1.8,0.7h5.1
	c0.7,0,1.3-0.3,1.8-0.7c0.5-0.5,0.7-1.1,0.7-1.8s-0.3-1.3-0.7-1.8C21,42.9,20.3,42.6,19.7,42.6z"/>
<path class="st3" d="M42.6,27.3c-3.5,0-7,1.1-9.8,3.2c-2.8,2.1-4.9,5-6,8.4c-1.1,3.4-1,7,0.1,10.3c1.1,3.3,3.3,6.2,6.2,8.2
	c0.2,0.1,0.3,0.3,0.4,0.5c0.1,0.2,0.1,0.4,0.1,0.6v1.9c0,0.7,0.3,1.3,0.7,1.8c0.5,0.5,1.1,0.7,1.8,0.7H49c0.7,0,1.3-0.3,1.8-0.7
	c0.5-0.5,0.7-1.1,0.7-1.8v-1.9c0-0.2,0-0.4,0.1-0.6c0.1-0.2,0.2-0.3,0.4-0.5c2.9-2,5.1-4.9,6.2-8.2c1.1-3.3,1.2-7,0.1-10.3
	c-1.1-3.4-3.2-6.3-6-8.4C49.6,28.4,46.1,27.3,42.6,27.3L42.6,27.3z"/>
</svg>
