<?xml version="1.0" encoding="utf-8"?>
<!-- Generator: Adobe Illustrator 27.6.1, SVG Export Plug-In . SVG Version: 6.00 Build 0)  -->
<svg version="1.1" id="Calque_1" xmlns="http://www.w3.org/2000/svg" xmlns:xlink="http://www.w3.org/1999/xlink" x="0px" y="0px"
	 viewBox="0 0 85 85" style="enable-background:new 0 0 85 85;" xml:space="preserve">
<style type="text/css">
	.st0{opacity:0.1;fill:#FEDA5E;}
	.st1{fill:#FFFFFF;fill-opacity:0.1;}
	.st2{fill:#FEDA5E;}
	.st3{opacity:0.6;fill:#FEDA5E;enable-background:new    ;}
</style>
<rect class="st0" width="85" height="85"/>
<rect class="st1" width="85" height="85"/>
<path class="st2" d="M67.1,21.7c-0.5-0.3-1.1-0.5-1.7-0.6c-0.6,0-1.2,0.1-1.8,0.4c-2.8,1.1-5.8,1.8-8.8,1.9c-3.5-0.3-6.9-1-10.2-2.1
	c-7.2-2.1-9.7-2.6-15.2-1.9c-0.8,0.1-1.5,0.5-2,1.1c-0.5,0.6-0.8,1.3-0.8,2.1v32.2c0,0.5,0.1,0.9,0.3,1.3c0.2,0.4,0.5,0.8,0.8,1.1
	c0.3,0.3,0.7,0.5,1.2,0.7c0.4,0.1,0.9,0.2,1.3,0.1c4.8-0.6,7.1-0.1,13.8,1.9c3.5,1.2,7.1,1.9,10.8,2.2c3.8-0.1,7.4-1,10.9-2.5
	c1.4-0.5,2.7-1.3,2.7-3.3v-32c0-0.5-0.1-1-0.3-1.5C67.9,22.4,67.5,22,67.1,21.7z"/>
<path class="st3" d="M20.2,17c-0.9,0-1.7,0.3-2.3,0.9c-0.6,0.6-0.9,1.4-0.9,2.3v45c0,0.9,0.3,1.7,0.9,2.3c0.6,0.6,1.4,0.9,2.3,0.9
	c0.9,0,1.7-0.3,2.3-0.9s0.9-1.4,0.9-2.3v-45c0-0.9-0.3-1.7-0.9-2.3C21.9,17.3,21.1,17,20.2,17L20.2,17z"/>
</svg>
