<?xml version="1.0" encoding="UTF-8"?>
<svg id="Calque_1" data-name="Calque 1" xmlns="http://www.w3.org/2000/svg" viewBox="0 0 446.58 395.21">
  <defs>
    <style>
      .cls-1 {
        fill: #ededed;
      }

      .cls-2 {
        fill: #fff;
      }

      .cls-3 {
        fill: #ffd200;
      }

      .cls-4 {
        fill: #ff9a5c;
      }

      .cls-5 {
        fill: #fce300;
      }

      .cls-6 {
        fill: #91b31e;
      }

      .cls-7 {
        fill: #753519;
      }

      .cls-8 {
        fill: #bce13e;
      }

      .cls-9 {
        fill: #108f6e;
      }

      .cls-10 {
        fill: #0e1a34;
      }

      .cls-11 {
        fill: #1a6652;
      }

      .cls-12 {
        fill: #19614f;
      }

      .cls-13 {
        fill: #9ae5e5;
        isolation: isolate;
        opacity: .79;
      }
    </style>
  </defs>
  <g id="OBJECTS">
    <g>
      <g>
        <path class="cls-9" d="m366.67,213.52l-.14-1.94s.87-.06,2.32-.06c1.46-.02,3.54.05,6.02.24,4.96.36,11.55,1.36,17.93,3.2,6.41,1.75,12.51,4.48,16.89,6.82,2.18,1.2,4.01,2.18,5.2,3.04,1.21.8,1.91,1.26,1.91,1.26l-1.09,1.61s-.68-.45-1.86-1.23c-1.15-.83-2.94-1.79-5.07-2.96-4.28-2.29-10.24-4.95-16.51-6.67-6.24-1.8-12.7-2.79-17.55-3.13-2.42-.18-4.45-.25-5.86-.23-1.42,0-2.19.05-2.19.05Z"/>
        <path class="cls-5" d="m418.78,236.46c-1.47-1.14-2.36-2.73-2.69-4.4-.31-1.69-.17-3.32.82-4.75.95-1.38,2.58-2.26,4.34-2.27,1.76-.04,3.76.65,5.49,2.02,1.67,1.43,2.62,3.35,2.88,5.1.25,1.77-.24,3.42-1.46,4.6-1.22,1.18-2.91,1.71-4.6,1.65-1.71-.04-3.35-.73-4.77-1.94Z"/>
        <path class="cls-9" d="m419.47,232.48s.78.39,1.89.73c1.12.33,2.43.78,3.7.64.01-1.26-.48-2.72-1.11-3.72-.62-1.01-1.24-1.72-1.24-1.72,1.89-.48,3.38-1.37,4.38-2.15,1.01-.78,1.52-1.46,1.52-1.46-2.24-1.15-4.23-1.67-5.92-1.8-1.68-.14-3.19.27-4.33.69-2.3.91-3.46,2.29-3.46,2.29,0,0-.75,1.65-.82,4.03-.05,1.21.13,2.51.5,4.03.39,1.51,1.08,3.09,2.29,4.64,0,0,.58-.63,1.2-1.71.62-1.08,1.29-2.62,1.38-4.51Z"/>
      </g>
      <ellipse class="cls-1" cx="227.22" cy="378.42" rx="200.12" ry="16.79"/>
      <g>
        <path class="cls-9" d="m91.1,209.19l-.71,1.97s-.8-.29-2.26-.74c-1.46-.46-3.56-1.07-6.1-1.72-5.08-1.31-11.96-2.73-18.92-3.57-6.96-.88-13.97-1.09-19.21-1-2.62.13-4.81.15-6.33.32-1.52.15-2.39.24-2.39.24l-.21-2.08s.89-.09,2.44-.24c1.55-.17,3.78-.19,6.44-.32,5.33-.09,12.46.13,19.51,1.02,7.06.85,14.03,2.29,19.19,3.62,2.58.66,4.72,1.28,6.21,1.75,1.49.46,2.35.77,2.35.77Z"/>
        <path class="cls-5" d="m25.21,198.35c2.3-.38,4.5,0,6.13.96,1.64,1.04,2.71,2.6,2.91,4.41.19,1.82-.5,3.55-1.7,4.87-1.19,1.41-2.89,2.44-4.9,2.77-1.01.13-1.98.21-2.91.08-.93-.12-1.82-.41-2.62-.83-1.61-.85-2.9-2.24-3.39-4.01-.49-1.76-.06-3.56,1.11-5.08.58-.76,1.35-1.44,2.26-2,.91-.55,1.96-1.02,3.11-1.18Z"/>
        <path class="cls-9" d="m28.21,201.73s-.94.34-2.05.98c-1.12.59-2.36,1.65-3.02,2.85,1.11.79,2.58,1.12,3.81,1.4,1.22.25,2.16.28,2.16.28-.9,1.83-1.11,3.63-1.1,4.98,0,1.35.22,2.24.22,2.24,2-.85,3.51-1.99,4.68-3.21,1.19-1.13,2.02-2.38,2.6-3.53,1.17-2.31,1.28-4.25,1.28-4.25,0,0-.4-1.89-2.1-3.91-.85-1.01-2.04-2.06-3.68-2.91-1.64-.77-3.74-1.31-6.39-1.4,0,0,.12.91.65,2.17.52,1.26,1.43,2.88,2.94,4.31Z"/>
      </g>
      <path class="cls-3" d="m226.39,81.41s-16.21-8.02-19.05-25.65c-2.84-17.63,25.3-24.32,36.97,4.86,0,0-2.11-31.61,17.14-35.06s16.14,35.02,10.3,41.11c0,0,8.09-5.86,16.02-.99,7.93,4.86,5.37,23.91-20.2,28.98-25.57,5.07-41.17-13.25-41.17-13.25Z"/>
      <path class="cls-2" d="m244.06,86.3c-4.49-9.93-12.65-20.56-12.74-20.66l.45-.34c.08.11,8.28,10.78,12.8,20.78l-.51.23Z"/>
      <rect class="cls-2" x="241.32" y="64.92" width="39.45" height=".56" transform="translate(152.39 311.36) rotate(-80.21)"/>
      <path class="cls-8" d="m133.89,116.23s-6.68-14.65-20.45-14.64c-13.77,0-15.77,14.55-7.71,25.35,0,0-13.22-9.18-32.23-8.44s-33.06,14.78-28.92,30.48c4.13,15.7,25.34,19.28,31.4,17.63,0,0-20.93,14.88-12.67,28.37s34.16,0,34.16,0l36.43-78.74Z"/>
      <path class="cls-2" d="m106.09,154.37c-.24-.1-23.68-9.76-35.66-10.95l.11-1.12c12.15,1.21,35.74,10.93,35.98,11.03l-.43,1.04Z"/>
      <path class="cls-2" d="m70.83,154.3l-.67-.91c4.7-3.45,13.99-6.9,14.38-7.05l.39,1.05c-.09.04-9.53,3.55-14.1,6.9Z"/>
      <path class="cls-2" d="m95.3,150.01c-.13-.36-3.23-8.92-3.5-12.39l1.12-.09c.26,3.33,3.41,12.01,3.44,12.1l-1.06.38Z"/>
      <path class="cls-2" d="m75.29,188.62l-.57-.97c11.67-6.81,20.93-8.19,21.02-8.2l.16,1.11c-.09.01-9.15,1.37-20.61,8.06Z"/>
      <path class="cls-2" d="m125.49,131.54c-.37-.4-9.08-9.9-11.46-17.63l1.07-.33c2.3,7.48,11.12,17.1,11.21,17.2l-.83.76Z"/>
      <path class="cls-3" d="m66.94,220.21l-.92-6.85c-3.58-.5-7.45-.8-11.62-.82-11.34-.04-22.48,2.02-31.74,5.78l-.41,4.85-2.33-3.66c-1.55.71-3.03,1.48-4.45,2.3l1.47,8.97-5.36-6.47c-4.21,3.04-7.46,6.52-9.46,10.44-1.99,3.9-2.62,8.12-1.7,12.59.79,3.86,2.56,7.12,5.02,9.82,1.23,1.35,2.62,2.55,4.18,3.63,1.58,1.08,3.3,2.03,5.16,2.84,7.45,3.26,17.15,4.46,27.62,3.69l2.48-7.87,3.45,7.25c2.37-.34,4.77-.77,7.16-1.3l-.67-4.71,3.92,3.94c.93-.24,1.85-.49,2.77-.75,16.58-4.79,27.05-12.66,33.36-19.37,6.31-6.71,8.48-12.25,8.48-12.25,0,0-9.53-13.45-32.94-18.15l-3.47,6.1Z"/>
      <rect class="cls-2" x="18.05" y="239.03" width="78.46" height="1.12" transform="translate(-43.47 14.79) rotate(-10.7)"/>
      <path class="cls-2" d="m44.65,242.53c-5.49-.32-16.38-5.07-16.84-5.27l.45-1.03c.11.05,11.16,4.87,16.46,5.18l-.06,1.12Z"/>
      <path class="cls-2" d="m49.07,251.18l-1.09-.27c1.18-4.7,7.25-10.97,7.51-11.24l.8.78c-.06.06-6.12,6.32-7.23,10.73Z"/>
      <path class="cls-2" d="m74.89,236.81c-6.31-1.44-12.89-8.12-13.17-8.4l.8-.79c.07.07,6.64,6.72,12.62,8.09l-.25,1.1Z"/>
      <path class="cls-3" d="m376.28,286.61l-1.48,6.58c3.11,1.67,6.54,3.26,10.36,4.68,10.37,3.88,21.25,5.77,30.99,5.46l2.02-4.3.9,4.14c1.66-.13,3.27-.32,4.85-.6l1.69-8.71,2.71,7.73c4.88-1.35,9.03-3.43,12.19-6.34,3.14-2.89,5.15-6.54,5.82-10.94.58-3.8.07-7.38-1.26-10.68-.67-1.65-1.54-3.22-2.6-4.74-1.07-1.53-2.33-2.98-3.76-4.35-5.71-5.51-14.18-9.89-24.02-12.74l-4.94,6.36-.71-7.8c-2.28-.49-4.62-.91-6.99-1.24l-.99,4.54-2.25-4.93c-.93-.1-1.86-.18-2.79-.25-16.79-1.23-29.04,2.42-37.09,6.42-8.05,4-11.91,8.34-11.91,8.34,0,0,4.16,15.53,23.99,27.76l5.24-4.41Z"/>
      <rect class="cls-2" x="391.1" y="233.88" width="1.12" height="76.55" transform="translate(57.7 612.66) rotate(-80.35)"/>
      <path class="cls-2" d="m417.09,285.07c-.08-.08-8.56-8.24-13.3-10.31l.45-1.03c4.92,2.15,13.28,10.19,13.63,10.53l-.78.81Z"/>
      <path class="cls-2" d="m393.35,272.71l-.48-1.01c.08-.04,7.74-3.71,10.24-7.36l.93.63c-2.67,3.9-10.36,7.59-10.68,7.74Z"/>
      <path class="cls-2" d="m382.82,281.34c-.04-.08-3.79-8.39-8.8-11.68l.62-.94c5.28,3.46,9.05,11.8,9.21,12.16l-1.03.46Z"/>
      <rect class="cls-8" x="295" y="355.88" width="41.25" height="2.37" transform="translate(-130.98 523.35) rotate(-68.95)"/>
      <rect class="cls-8" x="329.26" y="336.44" width="2.37" height="41.25" transform="translate(-106.21 142.53) rotate(-21.05)"/>
      <rect class="cls-8" x="316.89" y="352.68" width="12.81" height="2.37"/>
      <rect class="cls-8" x="313.94" y="361.15" width="18.56" height="2.37"/>
      <path class="cls-6" d="m64.18,376.36s.36,1.41,1.33,2.75,2.45,2.99,2.63,3.72c.18.72-.69,1.37-1.52,1.08-.83-.29-6.82-2.99-8.23-4.08-1.41-1.08-1.8-1.48-1.77-1.73s1.75-3.27,2.25-4.02c.5-.75,4.25-.72,5.3,2.28Z"/>
      <path class="cls-6" d="m79.78,368.36s.99,1.07,2.49,1.78c1.49.71,3.59,1.46,4.09,2.01.5.55.05,1.53-.81,1.67-.87.14-7.42.63-9.18.35-1.75-.28-2.29-.44-2.38-.68-.09-.24-.03-3.71.05-4.6.08-.89,3.39-2.67,5.74-.53Z"/>
      <path class="cls-10" d="m80.05,315.72s2.89,19.37,3.01,24.44-3.01,28.53-3.01,28.53h-6.11s.6-11.43.6-13.22-.6-17.4-.6-17.4l.6-21.73s3.57-2.19,5.51-.62Z"/>
      <path class="cls-10" d="m65.91,316.4s-1.91,4.97-1.32,15.21c.6,10.24,1.09,12.62,1.09,12.62,0,0-6.85,26.64-7.75,29.82,0,0,3.18,2.29,6.66,2.48,0,0,7.26-17.89,9.84-24.26,2.58-6.36,3.33-10.84,3.35-16.4s.62-20.58.62-20.58l-12.5,1.1Z"/>
      <path class="cls-2" d="m75.28,350.9l-.54-.17c1.92-6.27,2.87-13.35,2.91-21.65h.56c-.04,8.36-1,15.5-2.93,21.82Z"/>
      <path class="cls-4" d="m84.83,312.93s-12.6-2.18-17.16-4.7-4-4.77-3.37-6.39c.63-1.61,2.6-5.05,2.6-5.05l4.46,3.19-.11.99-.76,1.74s1.46.92,3.65,2.14,11.15,5.33,11.15,5.33c0,0,2.18,1.79-.46,2.75Z"/>
      <path class="cls-4" d="m84.5,312.83c1.03,1.11,2.37,1.7,2.37,1.7.1.85.59,1.21.86,1.18s.28-1.31.28-1.31c.25.59,1.21,1.18,1.34.82.13-.36,0-.95,0-.95,0,0,.39.52.69.52s.65-.26.52-.92-.52-1.64-.92-2.16c-.39-.52-.62-1.05-1.47-1.24-.85-.2-1.15-.07-2.13-.16-.98-.1-2.46,0-2.46,0l.9,2.52Z"/>
      <path class="cls-7" d="m75.21,272.91s-1.68-3.65-6.41-2.27c-4.73,1.38-3.25,5.82-6.31,7.69-3.06,1.87-7.59,2.86-8.78,8.09s2.46,5.62,0,8.78c-2.46,3.16-3.35,5.42-.69,8.68,2.66,3.25,7.35,2.27,10.28.69s15.75-7.59,15.75-7.59c0,0,2.97-3.15,0-6.51s-2.17-8.48-2.17-8.48c0,0,1.08-.2,1.48-3.15.4-2.96-.55-6.81-3.15-5.92Z"/>
      <path class="cls-4" d="m307.61,25.16l1.65-1.2s5.67,6.92,14.94,11.59c9.27,4.67,12.45,6.46,13.29,6.61s4.83.84,6.21,2.61,1.53,2.76,1.23,2.83c-.31.08-1.84-2.14-1.84-2.14,0,0,1.53,1.98,1.38,2.71s-1.01-.52-1.32-.83c-.31-.31-1.08-1.2-1.08-1.2,0,0,1.63,2.12,1.69,2.77.06.64-1.01-.18-1.84-1.11-.83-.92-1.75-1.35-1.97-1.08-.21.28-.31,1.41-.64,1.2-.34-.21-.4-1.08-.55-1.69-.55-.01-3.05-.91-7.54-1.81-4.5-.9-22.49-8.8-26.59-13.89-4.1-5.1,2.99-5.38,2.99-5.38Z"/>
      <path class="cls-8" d="m421.57,209.77h0c1.58-1.86,2.55-3.9,2.85-6.06.21-2.07-.28-4.24-1.44-6.34,0,0,.53.56,1.32,1.4.78.85,1.87,1.94,2.87,3.1l3.82,4.82c-1.65,1.92-2.57,3.94-3.07,6.14-.46,2.17-.32,4.37.5,6.52h0c1.78-1.63,2.96-3.52,3.48-5.59.26-1.04.36-2.11.29-3.22-.07-1.11-.28-2.26-.79-3.33,0,0,.27.34.67.84.38.52.83,1.25,1.31,1.96.95,1.43,1.89,2.86,1.89,2.86.02,1.24.19,2.39.51,3.46.27,1.1.63,2.15,1.17,3.1,1.07,1.91,2.73,3.48,4.97,4.71h0c.24-2.45-.23-4.78-1.29-6.79-.54-1-1.2-1.93-2.04-2.73-.89-.76-1.92-1.42-3.06-1.93,0,0-.47-.71-1.18-1.79-.36-.54-.77-1.16-1.21-1.83-.22-.33-.45-.68-.68-1.03-.26-.33-.53-.67-.79-1.01-2.13-2.69-4.26-5.38-4.26-5.38,3.75,2.85,8.48,3.36,12.95,1.51h0c-1.99-1.9-4.34-2.98-6.6-3.33-2.29-.33-4.55.09-6.78,1.32,0,0-2.11-2.25-4.22-4.5-1.02-1.16-2.22-2.14-3.06-2.93-.86-.78-1.43-1.29-1.43-1.29,1.06.56,2.14.96,3.25,1.21,1.11.24,2.23.36,3.3.38,2.17,0,4.39-.59,6.51-1.83h0c-1.12-.82-2.27-1.45-3.41-1.89-1.13-.45-2.39-.59-3.54-.6-2.35,0-4.57.78-6.59,2.28,0,0-.57-.52-1.43-1.29-.92-.71-2.14-1.65-3.36-2.6-1.22-.94-2.43-1.9-3.42-2.5-.97-.64-1.61-1.06-1.61-1.06,1.13.39,2.27.62,3.41.71,1.11.12,2.19.13,3.28-.03,2.17-.32,4.3-1.23,6.23-2.76h0c-2.5-1.26-4.93-1.85-7.26-1.5-2.33.35-4.43,1.45-6.21,3.22,0,0-.64-.42-1.61-1.06-.97-.63-2.34-1.34-3.68-2.11-.67-.38-1.35-.76-1.98-1.11-.65-.31-1.26-.6-1.78-.85-1.04-.5-1.74-.83-1.74-.83,2.34.46,4.64.28,6.72-.3,2.1-.63,4.08-1.84,5.77-3.63h0c-1.33-.46-2.62-.73-3.86-.81-.62-.04-1.22-.04-1.81.02-.6.08-1.18.2-1.75.37-2.25.67-4.16,2.05-5.66,4.07,0,0-.3-.14-.81-.39-.53-.22-1.29-.52-2.2-.89-1.8-.79-4.28-1.64-6.78-2.45-2.51-.75-5.05-1.41-6.99-1.77-1.93-.4-3.24-.53-3.24-.53l-.03.32s.91.1,2.27.34c1.36.24,3.16.65,4.95,1.1,1.77.51,3.56.99,4.86,1.48,1.31.45,2.18.75,2.18.75-.34,2.48-.09,4.84.68,6.85.79,1.97,2.02,3.8,3.78,5.21h0c.67-2.33.7-4.56.07-6.61-.61-2.1-2-3.77-3.92-5.22,0,0,.71.29,1.78.72,1.07.44,2.51.98,3.88,1.68,1.38.67,2.78,1.31,3.8,1.84,1.01.56,1.67.94,1.67.94-.72,2.42-.8,4.75-.32,6.83.46,2.12,1.41,4.12,2.98,5.73h0c1-2.2,1.35-4.39,1.01-6.5-.17-1.05-.51-2.09-1.01-3.08-.53-.95-1.24-1.83-2.1-2.66,0,0,.67.38,1.67.94,1.03.52,2.28,1.43,3.57,2.26,2.62,1.62,5.01,3.55,5.01,3.55-1.07,2.29-1.48,4.58-1.3,6.71.19,2.13.8,4.29,2.13,6.13h0c1.31-2.04,1.97-4.17,1.95-6.32-.02-1.07-.18-2.16-.55-3.2-.4-1-.97-1.99-1.7-2.93,0,0,.61.47,1.52,1.17.94.67,2.08,1.71,3.21,2.74,1.14,1.03,2.28,2.06,3.14,2.83.44.37.74.76.98.99.23.24.36.38.36.38-1.38,2.12-2.13,4.35-2.27,6.51-.07,1.08.02,2.15.26,3.18.23,1.05.53,2.16,1.04,3.19Z"/>
      <path class="cls-6" d="m70.34,69.33h0c-2.07,2.03-3.41,4.35-3.99,6.85-.61,2.52-.35,5.16.71,7.8,0,0-.54-.74-1.35-1.85-.83-1.1-1.86-2.61-2.88-4.14-1.02-1.52-2.04-3.04-2.81-4.18-.39-.57-.69-1.05-.9-1.4-.21-.34-.33-.54-.33-.54,2.15-2.11,3.56-4.53,4.21-7.06.33-1.27.46-2.56.41-3.87-.02-1.33-.19-2.68-.58-4.03h0c-2.24,1.84-3.79,4.03-4.6,6.49-.75,2.43-.68,5.07.15,7.81,0,0-1.07-1.74-2.13-3.48-.53-.88-1.08-1.73-1.45-2.4-.37-.67-.61-1.12-.61-1.12.2-2.99-.42-5.61-1.61-7.92-1.13-2.34-2.98-4.32-5.55-5.94h0c-.46,2.91-.07,5.72,1.05,8.19,1.18,2.43,3.22,4.42,5.78,5.86,0,0,.12.22.33.62.21.39.51.96.93,1.6.8,1.31,1.86,3.05,2.93,4.79,1.04,1.76,2.2,3.44,3.05,4.71.86,1.27,1.43,2.12,1.43,2.12-2.11-1.9-4.58-3.06-7.11-3.6-2.53-.54-5.25-.36-8,.59h0c1.08,1.18,2.23,2.15,3.44,2.91,1.22.75,2.54,1.24,3.87,1.55,2.67.6,5.46.33,8.23-.8,0,0,.51.76,1.29,1.9.81,1.11,1.89,2.6,2.97,4.08,2.12,3,4.42,5.86,4.42,5.86-1.13-.87-2.32-1.57-3.55-2.08-1.21-.54-2.46-.89-3.75-1.06-2.57-.34-5.27.04-7.95,1.2h0c2.32,2.14,4.86,3.48,7.55,3.9,2.7.41,5.47-.04,8.18-1.34,0,0,.56.72,1.41,1.81.83,1.1,2,2.51,3.17,3.92,1.17,1.41,2.34,2.83,3.21,3.89.9,1.04,1.5,1.73,1.5,1.73-4.67-3.25-10.07-3.73-15.31-1.09h0c2.42,1.98,5.06,3.14,7.73,3.43,2.69.29,5.45-.32,8.08-1.76,0,0,.6.69,1.5,1.73.89,1.05,2.11,2.42,3.35,3.77,1.23,1.36,2.47,2.72,3.39,3.74.94,1,1.57,1.67,1.57,1.67-4.81-3.05-10.24-3.25-15.32-.38h0c4.98,3.75,10.71,4.07,15.86.95,0,0,1.07,1.13,2.68,2.83,1.64,1.67,3.79,3.92,6.02,6.1,2.2,2.21,4.45,4.36,6.16,5.96,1.7,1.6,2.86,2.65,2.86,2.65l.26-.29s-3.26-2.95-6.41-6.04c-1.59-1.52-3.13-3.1-4.31-4.26-1.16-1.18-1.93-1.96-1.93-1.96,1.65-2.51,2.5-5.17,2.55-7.8.08-2.66-.64-5.3-2.14-7.81h0c-3.42,4.68-3.81,10.11-.96,15.06,0,0-2.57-2.62-5.07-5.3-1.27-1.33-2.5-2.68-3.42-3.7-.92-1.02-1.54-1.7-1.54-1.7,3.48-4.86,3.86-10.46,1.09-15.57h0c-3.64,4.52-4.23,9.91-1.61,14.99,0,0-.61-.68-1.53-1.71-.9-1.04-2.1-2.42-3.3-3.81-1.21-1.37-2.38-2.79-3.25-3.85-.88-1.06-1.46-1.77-1.46-1.77,1.87-2.36,2.93-4.91,3.24-7.54.33-2.64-.12-5.33-1.38-7.93h0c-1.93,2.16-3.11,4.57-3.52,7.1-.4,2.52-.07,5.21,1.16,7.77,0,0-.58-.71-1.46-1.77-.85-1.08-1.97-2.53-3.1-3.97-2.29-2.86-4.41-5.85-4.41-5.85,1.99-2.25,3.21-4.75,3.66-7.33.42-2.57.24-5.31-.84-7.95Z"/>
      <path class="cls-4" d="m257.44,34.46c-.92-.55-1.42-1.15-1.42-1.15,0,0-.32-.69-.88-1.17s-1.39-.6-1.39-.6c0,0,.54,1.83,1.14,2.3.3.23.57.11.78-.08.41,1.02,1.07,1.8,1.07,1.8,0,0,1.63-.56.71-1.11Z"/>
      <circle class="cls-11" cx="227.68" cy="224.1" r="142.94"/>
      <path class="cls-12" d="m256.43,324.18c-70.57,0-127.78-57.21-127.78-127.78,0-47.56,25.99-89.04,64.53-111.05-62.28,15.43-108.45,71.69-108.45,138.74,0,78.95,64,142.94,142.94,142.94,65.2,0,120.2-43.66,137.38-103.34-22.54,36.3-62.76,60.47-108.62,60.47Z"/>
      <path class="cls-4" d="m276.13,34.75s-3.41,3.07-4.55,3.07-12.51-3.4-14.66-3.86c-2.14-.45-2.03.23-2.88.79s1.81,2.27,1.81,2.27c0,0,10.15,5.18,15.4,6.42s9.45-3.01,9.45-3.01c0,0,1.38-5.52-4.57-5.68Z"/>
      <path class="cls-9" d="m235.3,37.87s7.98.87,13.49-.53c0,0,3.42,5.73,4.71,7.85l-.56,2.73s-4.67,5.91-12.88,6.26c0,0-6-8.29-4.76-16.32Z"/>
      <path class="cls-9" d="m247.82,47.55c-1.64,0-2.86-.65-2.93-.69l.57-1.04s2.07,1.09,4.17.18c1.86-.8,3.26-2.88,4.15-6.17,1.01-3.75.51-6.74-1.46-8.65-2.3-2.23-5.95-2.44-8.56-1.65-5.33,1.61-4.79,9.1-4.79,9.18l-1.18.1c0-.08-.63-8.52,5.62-10.4,3.53-1.06,7.43-.29,9.72,1.94,1.6,1.56,3.21,4.52,1.78,9.81-.99,3.67-2.62,6.01-4.84,6.95-.79.34-1.56.46-2.26.46Z"/>
      <path class="cls-4" d="m254.02,33.08s-1.02-.4-1.43.3c-.42.72,1.29,1.29,2.74,1.15,1.45-.14.15-1.2-1.3-1.46Z"/>
      <path class="cls-4" d="m253.99,34.1s-1.01-.32-1.7.27c-.69.59,1.53,1.43,3.23,1.28,1.7-.15.18-1.28-1.52-1.56Z"/>
      <path class="cls-6" d="m286.32,118.4s-.4,1.58-1.49,3.08c-1.09,1.49-2.75,3.35-2.95,4.16s.77,1.54,1.7,1.21c.93-.32,7.63-3.35,9.21-4.56,1.58-1.21,2.02-1.66,1.98-1.94s-1.96-3.66-2.51-4.49c-.56-.84-4.76-.81-5.93,2.55Z"/>
      <path class="cls-4" d="m253.8,35.07s-.89-.31-1.51.33,1.35,1.5,2.86,1.34c1.51-.16.79-1.56-1.36-1.67Z"/>
      <path class="cls-9" d="m236.15,46.21s-21.99-4.97-22.8-4.97c-.81,0-3.55-.51-4.87,1.31,0,0,.2,1.12,1.42,1.72s2.84-.6,2.84-.6l26.57,9.36s1.69-4.7-3.16-6.83Z"/>
      <path class="cls-9" d="m210.67,44.73h0c-.33,0-.63-.07-.89-.2-1.33-.66-1.56-1.87-1.57-1.93l-.05-.28.27-.05s.33-.06.83-.06c.97,0,2.39.22,3.66,1.25l.28.23-.29.22s-1.12.83-2.24.83Zm-1.82-1.94c.14.33.46.88,1.18,1.23.19.09.4.14.64.14.6,0,1.22-.3,1.58-.51-1.05-.72-2.19-.88-2.99-.88-.16,0-.3,0-.41.02Z"/>
      <polygon class="cls-3" points="351.58 337.82 311.96 337.82 318.65 330.12 358.27 330.12 351.58 337.82"/>
      <path class="cls-13" d="m208.48,42.55s-15.6,15.58-13.52,34.21h18.88s-4.66-23.03-1.1-33.08c0,0-1.59-1.51-4.26-1.12Z"/>
      <path class="cls-10" d="m284.8,55.31s-15.26,12.06-17,16.24c-1.75,4.17,6.89,13.09,6.89,13.09,0,0,8.15,29,10.96,33.85,0,0,4.65-1.26,6.89-2.62,0,0-2.72-26.19-3.98-29.68,0,0,19.79-18.51,23.18-24,3.39-5.49-24.58-8.79-26.94-6.88Z"/>
      <path class="cls-6" d="m294.91,103.02s.35,1.6.05,3.42c-.3,1.82-.95,4.23-.77,5.04.18.81,1.37,1.03,2.06.32.68-.71,5.32-6.42,6.18-8.21.86-1.79,1.06-2.39.9-2.62-.16-.23-3.39-2.39-4.26-2.89-.87-.5-4.61,1.41-4.15,4.94Z"/>
      <path class="cls-2" d="m274.4,84.65c-.2-6.45,10.59-16.84,11.05-17.28l.39.41c-.11.11-11.06,10.66-10.87,16.86l-.56.02Z"/>
      <path class="cls-10" d="m275.86,86.08l18.8,17.12s2.69-2.83,4.11-5.08c0,0-6.85-13.35-9.68-16.06-2.83-2.72-13.23,4.01-13.23,4.01Z"/>
      <path class="cls-6" d="m333.08,327.49s-1.04,1.26-2.66,2.15-3.91,1.87-4.43,2.52c-.52.65.05,1.71,1.02,1.82s8.33.2,10.27-.23,2.53-.64,2.61-.92-.23-4.14-.37-5.14c-.15-.99-3.96-2.75-6.45-.2Z"/>
      <g>
        <path class="cls-9" d="m204.65,80.12l-1.14.03s0-.45-.11-1.27c-.09-.82-.28-1.99-.57-3.38-.6-2.78-1.74-6.43-3.31-9.89-1.58-3.46-3.47-6.78-5.14-9.1-.77-1.2-1.54-2.12-2.04-2.79-.51-.66-.8-1.04-.8-1.04l.89-.72s.3.38.81,1.06c.51.68,1.29,1.61,2.08,2.84,1.7,2.36,3.64,5.75,5.24,9.28,1.61,3.54,2.77,7.26,3.38,10.12.3,1.43.49,2.63.59,3.49.1.85.12,1.36.12,1.36Z"/>
        <path class="cls-5" d="m191.51,46.27c1.68,1.89,1.75,4.46.2,5.7-1.56,1.25-4,.89-5.48-.78-1.57-1.58-1.75-4.06-.39-5.52,1.35-1.46,3.9-1.2,5.67.6Z"/>
        <path class="cls-9" d="m190.82,48.64s-.42-.34-1.04-.66c-.64-.3-1.46-.59-2.2-.55-.05.74.21,1.54.48,2.15.24.64.5,1.09.5,1.09-2.19.23-3.58,1.69-3.58,1.69,1.96,1.39,3.9,1.52,5.28,1.38,1.39-.14,2.3-.67,2.3-.67,0,0,.74-.75,1.18-2.14.44-1.39.45-3.37-.97-5.84,0,0-1.5,1.3-1.95,3.54Z"/>
      </g>
      <path class="cls-6" d="m354.35,312.17s.11,1.63-.47,3.39c-.57,1.76-1.57,4.04-1.51,4.87.06.83,1.2,1.22,1.99.63.78-.6,6.22-5.55,7.34-7.19,1.12-1.64,1.41-2.2,1.28-2.46-.13-.26-3-2.87-3.78-3.49-.79-.62-4.77.7-4.84,4.26Z"/>
      <g>
        <path class="cls-6" d="m173.56,59.79s.44,11.18,10.87,19.21c10.42,8.03,20.22,4.75,20.22,4.75,0,0,.68-10.31-9.75-18.35-10.42-8.03-21.34-5.61-21.34-5.61Z"/>
        <rect class="cls-2" x="191.01" y="56.59" width=".56" height="33.74" transform="translate(16.34 180.14) rotate(-52.38)"/>
        <rect class="cls-2" x="181.2" y="70.38" width="6.32" height=".56" transform="translate(-2.11 5.77) rotate(-1.78)"/>
        <rect class="cls-2" x="184.61" y="62.84" width=".56" height="6.32" transform="translate(-10.09 43.09) rotate(-12.94)"/>
        <rect class="cls-2" x="188.08" y="75.68" width="6.32" height=".56" transform="translate(-2.28 6.02) rotate(-1.79)"/>
        <rect class="cls-2" x="191.49" y="68.12" width=".56" height="6.32" transform="translate(-11.09 44.77) rotate(-12.94)"/>
        <rect class="cls-2" x="194.95" y="80.98" width="6.32" height=".56" transform="translate(-2.43 6.2) rotate(-1.78)"/>
        <rect class="cls-2" x="198.36" y="73.41" width=".56" height="6.32" transform="translate(-12.1 46.44) rotate(-12.94)"/>
      </g>
      <path class="cls-8" d="m221.78,59.55s-8.9.35-15.3,8.65-3.78,16.11-3.78,16.11c0,0,8.21.54,14.61-7.76,6.4-8.3,4.47-17,4.47-17Z"/>
      <g>
        <path class="cls-6" d="m153.55,78.95l5.88-9.45c-1.98-8.06-5.18-17.18-10.35-26.35-4.16-7.3-8.99-13.4-14.21-18.51l-7.95,5.58s1.04-2.26,2.16-4.51c1.11-2.23,2.22-4.46,2.22-4.46-6.22-5.52-12.52-9.78-18.14-12.96-2.87-1.58-5.39-2.91-7.73-3.93-2.32-1.03-4.36-1.75-5.97-2.14-1.37,1.88-2.91,4.92-4.25,9-.7,2.06-1.23,4.3-1.7,6.78-.45,2.46-.86,5.21-1.03,8.04,0,0,2.48,1,4.97,2.01,2.47.96,4.93,1.93,4.93,1.93,0,0-2.5.1-5.01.19l-5.03.14c-.11,11.99,2.77,26.22,10.66,39.51,1.42,2.43,2.93,4.71,4.5,6.84,1.56,2.14,3.15,4.17,4.8,6.04,0,0,3.51-.22,7.01-.43l6.99-.48-8.81,6.43c7.15,6.99,14.31,11.7,19.65,14.67,2.67,1.49,4.89,2.53,6.45,3.21,1.55.67,2.46,1.02,2.46,1.02l8.24-5.71,8.24-5.71s.05-.52.05-1.54c0-1.02-.01-2.5-.11-4.39-.2-3.76-.71-9.08-1.95-15.3l-6.99,4.49Z"/>
        <path class="cls-2" d="m156.87,99.63c-3.11-4.55-10.76-15.8-20.13-30.36-9.39-14.56-20.53-32.41-30.43-50.45,7.26,19.29,17.17,38.14,25.91,53.22,8.74,15.11,16.35,26.48,19.54,31.14l2.55-1.77,2.56-1.77Z"/>
      </g>
      <g>
        <path class="cls-8" d="m165.17,88.47l6.15-3.7c1.23-5.22,2.07-11.41,1.77-18.22-.25-5.43-1.29-10.39-2.8-14.87l-6.21.93s1.28-.99,2.56-1.98c1.28-.97,2.56-1.95,2.56-1.95-1.99-5.01-4.43-9.32-6.79-12.78-2.36-3.45-4.59-6.04-6.27-7.39-2.63,1.42-7.04,5.44-10.74,11.8,0,0,1.15,1.28,2.3,2.56,1.15,1.26,2.3,2.51,2.3,2.51,0,0-1.48-.66-2.95-1.32-1.48-.67-2.95-1.35-2.95-1.35-3.49,6.85-5.95,15.81-5.29,25.71.23,3.61.81,6.97,1.57,10.09l8.31,3.57-6.94,1.11c2.06,6.1,4.78,10.9,6.97,14.17,1.09,1.63,2.06,2.89,2.75,3.74.69.84,1.11,1.31,1.11,1.31l6.41-.84,6.41-.84s.72-1.2,1.71-3.43c.99-2.22,2.26-5.43,3.38-9.37l-5.33.52Z"/>
        <path class="cls-2" d="m160.98,101.32c-.44-3.53-1.51-12.24-2.63-23.35-1.13-11.12-2.31-24.64-2.91-37.9-1.29,13.23-1.11,26.94-.5,38.17.6,11.24,1.6,20,2.06,23.61l1.99-.26,1.99-.26Z"/>
      </g>
      <path class="cls-8" d="m339.4,144.11s9.47-26.31,8.28-51.81c-1.18-25.5,6.31-44.65,18.54-43.16,12.23,1.49,22.88,47.64-23.67,97.73l-3.16-2.76Z"/>
      <path class="cls-2" d="m343.49,143.16l-.95-.6c.17-.27,17.18-27.69,17.84-57.93l1.12.02c-.66,30.56-17.84,58.23-18.01,58.51Z"/>
      <path class="cls-6" d="m341.53,147.24s16.97-8.85,34.38-10.4,29.71-8.4,27.57-16.56-34.43-11.13-64.12,25.07l2.16,1.88Z"/>
      <path class="cls-2" d="m342.41,145.11l-.72-.86c.17-.14,17.39-14.38,38.11-17.65l.18,1.11c-20.4,3.23-37.4,17.27-37.57,17.41Z"/>
      <g>
        <path class="cls-8" d="m418.34,142.86c-5.02-.52-11.17-1.09-18.01-.84-6.83.28-14.29,1.53-22.07,5.02-7.79,3.47-12.02,9.7-14.42,15.16-2.39,5.45-2.9,10.1-2.9,10.1,0,0,3.59,3.03,9.35,5,5.74,1.97,13.69,2.87,21.93-1.36,8.21-4.25,14.17-10.14,18.32-16.15,4.17-5.98,6.46-12.18,7.81-16.93Z"/>
        <path class="cls-2" d="m361.01,172.46l-.13-.32s3.12-1.24,7.74-3.25c4.62-2,10.75-4.75,16.8-7.68,6.05-2.92,12-6.03,16.4-8.48,2.21-1.21,4.02-2.26,5.29-3.01,1.27-.74,1.99-1.16,1.99-1.16l.18.3s-.73.42-2,1.16c-1.27.75-3.08,1.81-5.3,3.01-4.41,2.45-10.37,5.57-16.42,8.49-6.05,2.93-12.18,5.69-16.81,7.69-4.63,2-7.75,3.25-7.75,3.25Z"/>
        <path class="cls-2" d="m394.33,156.88c-.02-.08-.17-1,.08-2.64.25-1.64.94-3.96,2.57-6.84l.3.18c-1.58,2.82-2.26,5.1-2.51,6.71-.13.8-.15,1.43-.14,1.86,0,.43.05.66.05.66l-.34.07Z"/>
        <path class="cls-2" d="m385.63,161.35l.26-.24s.2.21.6.52c.4.31,1.02.73,1.89,1.17,1.73.87,4.45,1.84,8.43,2.09l-.03.35c-4.06-.25-6.82-1.23-8.57-2.12-1.76-.89-2.52-1.71-2.58-1.78Z"/>
        <path class="cls-2" d="m369.47,168.76l.27-.22s.22.25.66.63,1.14.88,2.11,1.43c1.94,1.09,5.01,2.31,9.56,2.8l-.04.35c-4.62-.5-7.72-1.72-9.69-2.82-1.96-1.1-2.79-2.07-2.86-2.15Z"/>
        <path class="cls-2" d="m376.4,165.57c-.02-.11-.19-1.51.32-3.92.51-2.4,1.7-5.82,4.32-9.98l.29.19c-2.58,4.11-3.75,7.51-4.25,9.88-.25,1.19-.33,2.13-.35,2.77s.03,1,.03,1l-.35.05Z"/>
        <path class="cls-2" d="m400.37,153.79l.25-.25s.47.45,1.51.92c1.04.46,2.67.95,5.01,1.01v.35c-2.44-.07-4.11-.57-5.18-1.05-1.07-.48-1.55-.95-1.59-.99Z"/>
      </g>
      <g>
        <path class="cls-6" d="m403.73,207.61c-1.87-8.16-5.6-20.6-17.08-29.89-11.47-9.28-25.71-2.82-25.71-2.82,0,0-2.55,15.4,9.52,24.11,12.06,8.7,25,9.01,33.27,8.6Z"/>
        <polygon class="cls-2" points="360.85 175.02 361.03 174.79 396.62 202 396.45 202.23 360.85 175.02"/>
        <path class="cls-2" d="m385.32,193.49c.05-.04.69-.5,2.01-.88s3.33-.68,6.11-.39l-.03.29c-2.72-.28-4.7.02-5.99.39-.65.18-1.13.39-1.45.55-.32.16-.48.28-.48.28l-.17-.24Z"/>
        <path class="cls-2" d="m378.8,188.61l.27.1s-.08.23-.16.64-.16,1.04-.17,1.84c-.01,1.62.27,3.99,1.47,7.05l-.27.11c-1.22-3.12-1.51-5.52-1.5-7.16.01-1.64.34-2.52.36-2.59Z"/>
        <path class="cls-2" d="m367.03,179.61l.27.1s-.1.26-.19.74-.19,1.18-.2,2.11c-.02,1.85.3,4.57,1.67,8.07l-.27.11c-1.39-3.56-1.72-6.3-1.7-8.17.02-1.87.39-2.87.42-2.95Z"/>
        <path class="cls-2" d="m372.13,183.4c.08-.06,1.03-.74,3.01-1.3,1.98-.56,4.97-1,9.12-.57l-.03.29c-4.09-.42-7.06.02-9.02.58-.98.28-1.7.58-2.18.82-.48.24-.73.41-.73.41l-.17-.23Z"/>
        <path class="cls-2" d="m389.77,196.99l.27.1s-.18.51-.19,1.47c0,.95.17,2.35.87,4.15l-.27.11c-.73-1.86-.91-3.3-.9-4.28,0-.98.2-1.51.21-1.55Z"/>
      </g>
      <path class="cls-3" d="m70.8,288.7s-.4-.57-2.71.46c-2.31,1.03-7.64,8.07-9.22,11.83,0,0,3.15,2.85,5.34,4.07,0,0,1.97-1.64,3.08-2.24,0,0,.08,6.86-.77,10.92-.85,4.07-1.68,6.55-1.68,6.55,0,0,7.14,3.34,16.42,1.52,0,0,.12-9.77.43-13.53.3-3.76,2.06-7.95,1.09-11.47s-5.12-4.83-8.48-8.27l-3.5.16Z"/>
      <path class="cls-4" d="m77.45,279.8s-.16-2.86-1.8-4.9c-1.63-2.04-5.23-1.31-6.7,1.8-1.06,2.24-1.18,3.86-1.17,4.61-.3-.24-.77-.4-1.41.04-1.1.75.56,3.38,2.23,2.92.45.93,1.41,1.7,1.41,1.7,0,2.12.43,2.69.43,2.69,1.55,1.88,3.38,3.73,4.6,2.92,1.22-.82-.25-1.96-.65-2.61-.41-.65.11-.99.11-.99,3.67-.49,2.94-8.17,2.94-8.17Z"/>
      <path class="cls-7" d="m74.85,276.45s-.95,3.58-3.09,4.37c0,0,.66-.67.78-1.03,0,0-2.73,2.55-4.25,2.31,0,0-.97-.42-1.27-3.82-.3-3.4,3.28-5.34,3.28-5.34h4.07l2.85,3.28.29,2.3s-1.81,0-2.66-2.06Z"/>
      <path class="cls-4" d="m77.79,317.01s-12.6-2.18-17.16-4.7-4-4.77-3.37-6.39c.63-1.61,2.6-5.05,2.6-5.05l4.46,3.19-.11.99-.76,1.74s1.46.92,3.65,2.14c2.2,1.22,11.15,5.33,11.15,5.33,0,0,2.18,1.79-.46,2.75Z"/>
      <path class="cls-9" d="m99.58,340.04l-2.55-13.85c-.2-1.07-.9-1.97-1.89-2.42l-15.2-6.86.83-1.83,15.2,6.86c1.59.72,2.73,2.17,3.04,3.88l2.55,13.85-1.98.37Z"/>
      <path class="cls-7" d="m106.76,331.81s3.09-2.11,4.64-2.33,1.99,1.45,3.09,1.16,1.99-1.18,1.99-1.18l2.21,1.17s.22-.61,1.77,0,.66-.05,1.55.61c.88.66,2.21.56,2.21.56,0,0,1.1-.32,2.21,0,1.1.32,2.75-.54,5.3,0s4.86-.54,6.18,0,1.99,2.47,3.09,1.95c1.1-.52,2.87-1.95,2.87-1.95l1.77,3.09s.66-1.43,1.55,0c.88,1.43,2.87,2.31,2.87,2.31,0,0,.44.28,1.1,1.35s1.2,4.05,1.2,4.05v1.33l-33.22-1.33-13.91-7.71,1.54-3.09Z"/>
      <path class="cls-9" d="m104.39,335.23l-2.55-13.85c-.2-1.07-.9-1.97-1.89-2.41l-15.2-6.86.83-1.83,15.2,6.86c1.59.72,2.73,2.17,3.04,3.88l2.55,13.85-1.98.37Z"/>
      <path class="cls-9" d="m101.76,331.81s-2.81,8.73-3.55,10.21c-.74,1.48,1.78,6.8,1.78,6.8l26.48,13.02,25.88-17.9-50.59-12.13Z"/>
      <path class="cls-9" d="m96.81,374.22c-.81,0-1.47-.18-2-.53-1.34-.88-1.81-2.73-1.54-6.03.54-6.47,5.03-24.42,5.22-25.18l1.09.27c-.05.18-4.66,18.63-5.19,25-.23,2.8.1,4.38,1.03,4.99,1.41.92,4.7-.03,10.05-2.92,10.06-5.43,17.56-10.38,17.63-10.43l.62.94c-.07.05-7.62,5.02-17.72,10.48-4.27,2.3-7.19,3.4-9.2,3.4Z"/>
      <path class="cls-7" d="m152.37,349.74s-1.59,1.77-1.68,2.87,1.68,0,1.68,0c0,0,.88,1.2,1.77.49.88-.71,0-1.57,0-1.57l.39-1.79h-2.16Z"/>
      <g>
        <path class="cls-9" d="m228.43,374.91l-1.5,1.16s-.48-.65-1.33-1.79c-.83-1.14-2-2.77-3.35-4.77-2.71-3.99-6.15-9.42-9.29-15.03-3.15-5.6-5.95-11.4-7.88-15.83-.91-2.24-1.67-4.1-2.21-5.4-.48-1.33-.75-2.09-.75-2.09l1.79-.65s.27.75.74,2.05c.52,1.29,1.27,3.12,2.18,5.33,1.91,4.37,4.68,10.1,7.8,15.65,3.1,5.56,6.51,10.94,9.2,14.89,1.33,1.98,2.49,3.6,3.31,4.72.82,1.11,1.29,1.74,1.29,1.74Z"/>
        <path class="cls-5" d="m206.35,321.68c.55,1.78.33,3.6-.26,5.13-.61,1.52-1.76,2.77-3.32,3.33s-3.25.29-4.73-.63c-1.49-.91-2.62-2.56-3.24-4.56-.15-.5-.25-1-.32-1.5-.04-.5-.04-1,0-1.48.09-.96.33-1.86.7-2.64.75-1.56,2.04-2.65,3.66-2.97s3.28.15,4.62,1.11c.67.48,1.26,1.09,1.74,1.8.24.35.45.73.63,1.14.2.4.37.82.51,1.27Z"/>
        <path class="cls-9" d="m203.59,324.55s-.4-.76-1.09-1.65c-.34-.45-.76-.93-1.22-1.38-.44-.45-.93-.86-1.48-1.15-.35.51-.61,1.12-.8,1.76-.16.62-.23,1.26-.27,1.84-.07,1.15.02,2.05.02,2.05-1.76-.65-3.44-.74-4.67-.65-1.23.09-2.02.35-2.02.35,2.19,4.23,5.18,5.82,7.48,6.41,2.31.59,4.01.19,4.01.19,0,0,1.54-.85,2.98-2.72,1.43-1.87,2.72-4.71,2.58-8.7,0,0-.81.19-1.91.73-1.09.54-2.48,1.44-3.61,2.91Z"/>
      </g>
      <path class="cls-7" d="m157.22,353.32s-1.32,2.6-1.1,3.26c.22.66,1.1,0,1.1,0,0,0,1.32.59,1.99.3.66-.3,1.77-1.74,1.77-1.74h-2.44l-1.31-1.82Z"/>
      <path class="cls-7" d="m164.07,370.81s-5.55-.59-5.53,0c.01.59,0,2.29,0,2.29,0,0-1.14-1.4-2.44,0-1.3,1.4-1.57,3.61-1.57,3.61,0,0-.35,1.32-1.92,1.54s-1.92,1.55-1.92,1.55c0,0,3.39,1.1,5.41,1.33,2.01.22,3.78,0,3.78,0,0,0,2.21-.24,4.2.1,1.99.34,4.2.79,6.18,1.01,1.99.22,5.52-1.55,5.52-1.55,0,0,6.18-.22,8.61.22,2.43.44,5.08-.66,5.08-.66l.88-1.99s-1.77-.39-2.87-1.85-2.43-5.3-3.31-5.58c-.88-.29-3.31-2.29-3.31-2.29,0,0-2.21-3.41-2.43-5.56-.22-2.15-3.09-3.54-3.09-3.54,0,0-1.32.36-2.21,2.19s-2.6,1.34-2.6,1.34c0,0-1.15.19-1.81,2.11-.66,1.92-.88,3.45-.88,3.45,0,0-2.65-.9-3.98,0-1.32.9.22,2.29.22,2.29Z"/>
      <rect class="cls-9" x="127.67" y="360.2" width="2.25" height="9.22" transform="translate(-176.03 126.58) rotate(-32.55)"/>
      <rect class="cls-6" x="319.26" y="355.89" width="41.25" height="2.37" transform="translate(-115.45 546) rotate(-68.95)"/>
      <rect class="cls-6" x="353.51" y="336.44" width="2.37" height="41.25" transform="translate(-104.59 151.25) rotate(-21.05)"/>
      <rect class="cls-6" x="341.14" y="352.68" width="12.8" height="2.37"/>
      <rect class="cls-6" x="338.2" y="361.15" width="18.56" height="2.37"/>
      <path class="cls-4" d="m332.6,215.88s-3.1,3.03-4.19,6.36c-1.09,3.34.54,6.21,3.57,7.06,0,0,.7,3.49.62,4.73,0,0,2.33.62,3.57.46,1.24-.15,2.33-.62,2.33-.62v-4.96s2.33-2.1,3.03-4.03c.7-1.94,1.32-6.67-.93-9s-6.75-1.37-7.99,0Z"/>
      <path class="cls-6" d="m298.91,200.81s-.08.35-1.87.9c-1.79.55-3.07.04-3.58,1.49s.51,4.26-.6,4.86-1.45,1.02-1.45,1.02c0,0,2.81,3.58,3.75,5.11,0,0,1.28-1.02,1.7-2.81s3.33-.93,4-1.53c.67-.6,1.38-1.53,1.38-1.53,0,0-.96-6.23-3.34-7.5Z"/>
      <path class="cls-7" d="m336.83,219.09s-3.12-2.18-3.85-4.21c-.73-2.03.14-3.91,1.92-3.7,1.78.21,2.72.5,2.72.5,0,0,1.66-2.11,4.53.58s2.51,6.46,2.51,6.46c0,0,3.63,1.02,2.18,4.43-1.45,3.41-4.69,4.52-4.69,4.52,0,0-.46,2.21-1.7,2.33s-1.97.41-1.97.41l.23-4.14s1.16,0,1.82-1.38c.65-1.38-1.38-1.16-1.38-1.16,0,0-1.16-2.11-.65-2.9,0,0-1.82-.72-1.67-1.74Z"/>
      <path class="cls-4" d="m321.47,227.09s-5.58-4.38-10.32-10.2-7.65-9.98-7.65-9.98c0,0,0-2.42-.97-4.45-.97-2.03-1.07-1.65-1.65-2.42-.58-.77-.58.63.16,2l.73,1.37s-1.9-3.03-2.6-2.93c-.7.1.13,1.1.5,1.63.37.53.5,1.47.5,1.47,0,0-1.37-2.1-1.83-1.73-.47.37.5,1.63,1.27,2.63s.9,2.57,1.37,3.4c0,0,6.6,17.12,16,24.48s4.49-5.25,4.49-5.25Z"/>
      <path class="cls-4" d="m303.33,207.13s.2-1.11.29-1.23c.08-.12.34-1.04.53-1.62s-.09-1.14-.41-.86-1.05,1.31-1.03,1.93c.02.62.62,1.78.62,1.78Z"/>
      <path class="cls-4" d="m347.19,244.38s4.21,5.11,5.82,5.91c1.61.8,5.86-2.73,8.05-6.8s3.33-7.15,3.33-7.15c0,0,2.85-2.06,3.65-4.03,0,0,.29-.88,0-1.08s-1.13,1.23-1.57,1.77c0,0,1.28-2.22,1.08-2.71-.2-.49-2.02,2.07-2.02,2.07,0,0,1.43-2.61.94-2.66-.49-.05-1.87,2.32-1.87,2.32,0,0-.05-1.63-.54-1.53-.49.1-.35,1.92-.35,1.92,0,0-.49,2.27-.79,3.01s-6.51,7.84-7.3,8.04c0,0-2.52-3.55-4.83-4.24-2.32-.69-3.6,5.16-3.6,5.16Z"/>
      <path class="cls-10" d="m325.65,260.21s5.83,61.81,6.85,67.01c0,0,5.53.67,7.41,0,0,0-.42-37.63,0-41.5.42-3.87,3.75-23.62,2.55-26.29-1.2-2.67-16.81.78-16.81.78Z"/>
      <path class="cls-10" d="m343.93,259.16s2.08,24.72,3.11,28.51c1.03,3.79,12.21,19.78,12.21,19.78l-4.9,4.96s-10.14-10.27-13.08-14.01c-2.94-3.74-8.01-19.35-8.01-19.35,0,0,2.94-23.75,10.68-19.88Z"/>
      <path class="cls-9" d="m257.37,119.6c-5.69-1.77-9.81-2.32-13.14-4.2s-6.67-3.27-9.22-3.16c-2.55.11-7.85-1.28-10.99,0-3.14,1.28-6.46,7.75-11.27,8.93-4.81,1.18-16.9-1.37-20.27-3.53-3.38-2.16-4.33-6.48-3.36-8.63.97-2.16,1.36-6.01,1.17-7.42s4.9-4.18,6.67-6.03c1.76-1.85,3.43-7.89-.74-10.91-20.02,4.5-38.45,13.19-54.31,25.12,0,.01.13,1.41,1.3,3.37,1.18,1.96-.71,3.14-.65,3.73.06.59,1.11.52.19,1.63-.92,1.11.02.92-.84,1.7-.86.79-1.64,1.57-2.23,1.96s-.39,1.57-1.57,2.94c-1.18,1.37-3.34,2.55-3.34,4.71s-3.34,5.1-3.73,6.28c-.39,1.18-3.73,5.69-3.92,8.63s-.2,6.08,0,7.85.29,3.73-.15,5.89c-.44,2.16-.83,4.12-1.03,8.04-.2,3.92,1.37,5.69,5.1,6.87s10.78,4.51,12.55,7.06,2.75,5.69,4.12,6.08,2.55,4.51,7.06,7.65c4.51,3.14,12.95,3.54,16.68,7.56,3.73,4.02,10.6,13.82,12.36,19.22,1.77,5.4,4.71,7.39,7.85,10.03,3.14,2.64,7.06,5.58,10.01,5.77,2.94.2,4.14-1.04,4.03-2.09s-3.84-4.19-4.43-4.98c-.59-.79-1.77-6.08-3.53-9.81-1.77-3.73-1.96-3.88-1.37-5.67s1.77-5.71,3.53-6.69c1.77-.98,3.14-.27,4.32-2s1.59-2.71,1.48-3.79-1.88-1.75-3.64-1.91c-1.77-.15-2.35-1.73-4.71-2.12-2.35-.39-5.69-1.37-6.48-2.75-.79-1.37-2.55-1.77-3.73-1.57s-4.71.79-7.06-1.57-2.55-6.87-2.94-9.22c-.39-2.35-.79-3.14-.2-4.9.59-1.77.59-3.15,3.34-4.42,2.75-1.27,7.26-2.26,10.01,0s8.24.5,9.42-.88c1.18-1.37,4.51-5.49,7.26-5.69,2.75-.2,7.26,0,9.02-1.57,1.77-1.57,8.44-4.88,9.61-7.54,1.18-2.66,5.69-10.38,5.69-12.9s8.24-7.42,10.6-6.64c2.35.79,5.49-2.94,6.67-2.94s4.71.59,6.67-1.77c1.96-2.35,3.53-3.94,5.1-6.19,1.57-2.25,2.75-5.78-2.94-7.55Z"/>
      <path class="cls-9" d="m245.14,304.55s-6.62-4.14-12.24-6.51c-5.62-2.37-9.76-10.74-11.24-12.47-1.48-1.73-2.66-16.82,0-19.48,2.66-2.66,5.34-7.1,7.55-10.65,2.21-3.55,3.1-5.92,2.21-7.4s-.89-9.88,0-11.3c.89-1.42,5.33-4.08,7.4-3.79,2.07.3,8.58-1.52,11.24-.02,2.66,1.5,12.72,6.82,17.16,7.12,4.44.3,8.88,4.14,12.42,2.07,3.55-2.07,8.76.3,11.78,4.73s6.57,8.95,11.6,11.87,4.59,5.58,7.47,6.17c2.88.59,9.32,2.35,12.8,4.73,3.49,2.39,2.34,5.33-.54,8.88s-6.46,9.17-8.81,12.72c-2.35,3.55-1.49,8.88,0,10.35s.31,7.69-1.76,9.47c-2.07,1.77-6.51,4.73-8.28,7.99s-1.6,5.67-5.68,7.12-13.25,5.6-18.87,6.93-10.35,1.65-14.2,4.89c-3.85,3.24-4.39,12.06-8.01,13.57-3.62,1.51-14.48,8.31-18.62,7.87s-4.14-1.27-1.77-4.26c2.36-2.99,8.35-8.25,11.72-13.05s-1.07-9.43,1.89-11.37c2.96-1.94,3.48-7.71,4.4-9.41.93-1.7.68-11.15-9.62-16.79Z"/>
      <path class="cls-9" d="m330.13,172.29c.59,1.21,3.75,2.59,6.11,3.77,2.37,1.18,4.59-.64,5.55-3.77.96-3.13,5.1-3.73,7.27-2.54,2.17,1.18,4.54,1.77,6.11,1.38,1.56-.39,4.58-1.55,4.66-1.58-9.03-21.85-23.32-40.99-41.29-55.81,0,0-1.62,2.38-4.19,4.74-2.56,2.36-3.2,4.13-3.87,5.51-.67,1.38-2.64,7.3-1.85,9.86.79,2.56.46,4.34,3.39,6.51,2.92,2.17,5.53,2.91,4.23,6.88-1.3,3.97-.32,8.21-1.7,10.33-1.38,2.12-1.54,6.26,1.7,9.02,3.23,2.76,7.38,2.17,8.36,2.37.99.2,4.93,2.12,5.52,3.33Z"/>
      <path class="cls-9" d="m232.9,205.5s0,2.71-1.97,4.49c-1.97,1.77-3.94,4.93-1.97,5.33,1.97.39,6.11.98,7.1,1.57.99.6,6.11,3.36,7.49,2.37,1.38-.99,2.37-3.35,3.75-3.55s1.77-3.69,2.96-4.8,5.33-5.06,5.72-8.21c.39-3.16.79-7.89,0-9.07s-6.31-1.97-6.9-3.55-4.11-2.76-6.79-1.18-3.86,5.13-4.26,7.69c-.39,2.56-5.32,4.44-5.13,8.92Z"/>
      <g>
        <path class="cls-9" d="m317.7,121.77l-1.62-1.22s.48-.64,1.28-1.89c.8-1.23,1.89-3.05,3.11-5.28,2.43-4.46,5.27-10.65,7.55-17.06,2.28-6.4,4.14-12.96,5.2-17.95.62-2.47.93-4.58,1.23-6.04.28-1.46.44-2.3.44-2.3l2,.34s-.16.85-.44,2.33c-.3,1.48-.62,3.61-1.25,6.12-1.08,5.05-2.96,11.7-5.27,18.19-2.32,6.5-5.2,12.79-7.68,17.34-1.24,2.28-2.36,4.13-3.19,5.41-.81,1.28-1.36,2-1.36,2Z"/>
        <path class="cls-5" d="m343.5,62.59c-.6,4.38-3.98,7.43-7.46,6.82-3.5-.61-5.85-4.35-5.29-8.36.4-4.03,3.6-7.11,7.14-6.86s6.06,4.01,5.61,8.4Z"/>
        <path class="cls-9" d="m339.5,64.36s-.04-.96-.31-2.16c-.31-1.21-.85-2.65-1.74-3.63-1.07.78-1.88,2.05-2.42,3.12-.57,1.07-.89,1.94-.89,1.94-2.85-2.72-6.43-2.96-6.43-2.96.4,4.39,2.42,7.18,4.26,8.89,1.83,1.7,3.61,2.3,3.61,2.3,0,0,1.88.1,4.23-.95,2.34-1.04,5.05-3.29,6.73-7.95,0,0-3.49-.57-7.03,1.4Z"/>
      </g>
      <path class="cls-9" d="m290.89,22.04s-1.7.37-5.03,2.29c-3.33,1.92-10.8,9.32-10.8,9.32,0,0,2.74,4.96,6.21,7.62,0,0,4.07-1.85,5.1-2.59,0,0,2.07,9.98-2.07,16.12,0,0,2.37,2.81,6.29,3.4,3.92.59,8.06.52,11.46,2.96s8.95,2.22,11.32,0c0,0,2-7.69,0-14.86-2-7.17-4.88-11.17-4.88-11.17l1.26.96s4.29-4.66,4.51-8.28c0,0-4.95-5.1-8.51-7.03-3.55-1.92-7.43-1.26-10.37,0-2.94,1.25-4.49,1.26-4.49,1.26Z"/>
      <path class="cls-4" d="m283.18,12.9c.03.33.88,4.39,2.86,6.37,1.98,1.98,3.52.77,4.06.99.55.22.88,1.76.88,2.86s1.76,2.2,3.4.99c1.65-1.21.77-6.81.77-6.81,0,0,.91-1.87.23-4.39,0,0,.84-2.09.25-3.3-.59-1.21-1.47-.88-1.91,0,0,0-2.09-3.85-5.16-3.19-3.08.66-5.82,2.3-5.38,6.48Z"/>
      <path class="cls-7" d="m297.46,10.59c-.99-1.32-.33-4.72-1.61-6.7-1.28-1.98-3.99-1.32-3.99-1.32,0,0-.66-2.97-3.19-2.53-2.53.44-4.83,3.85-4.83,3.85,0,0-1.32-.44-3.73,0s-5.16,2.09-4.17,4.5c.99,2.42,4.72,2.28,4.72,2.28,0,0-.99,4.75,2.48,3.43.1-.04.19-.09.29-.14-.15-.57-.23-.98-.24-1.07-.32-3,1.02-4.69,2.94-5.65h0c.75-.37,1.58-.64,2.44-.83,3.08-.66,5.16,3.19,5.16,3.19.44-.88,1.32-1.21,1.91,0,.59,1.21-.25,3.3-.25,3.3.37,1.38.26,2.56.09,3.35.12.02.25.06.37.06,3.22,0,2.6-4.39,1.62-5.71Z"/>
      <path class="cls-7" d="m283.42,13.97s3.78-1.6,4.05-7.26c0,0,1.16,3.53,6.25,2.9,0,0-.4-4.72-4.59-5.9-4.19-1.18-7.26,5.81-7.26,5.81,0,0-.53,2.8,1.55,4.45Z"/>
      <path class="cls-2" d="m290.4,99.61c-.79-6.66-2.11-13.3-2.12-13.37l.55-.11c.01.07,1.33,6.73,2.13,13.41l-.56.07Z"/>
      <path class="cls-4" d="m85.16,310.12s1.17.02,1.82.14c.65.11,1.07,1.04,1.26,1.41.18.37-.63.33-1.04-.18s-.49-.65-.49-.65c0,0-.62-.13-.97,0-.35.13-.78-.29-.85-.58-.07-.29.26-.14.26-.14Z"/>
      <path class="cls-4" d="m77.45,316.9c1.03,1.11,2.37,1.7,2.37,1.7.1.85.59,1.21.86,1.18s.28-1.31.28-1.31c.25.59,1.21,1.18,1.34.82s0-.95,0-.95c0,0,.39.52.69.52s.65-.26.52-.92-.52-1.64-.92-2.16c-.39-.52-.62-1.05-1.47-1.24-.85-.2-1.15-.07-2.13-.16-.98-.1-2.46,0-2.46,0l.9,2.52Z"/>
      <path class="cls-4" d="m77.79,314.87v-.53s2.39-.73,2.87-.56.92.84,1.18,1.09c.26.25-4.05,0-4.05,0Z"/>
      <circle class="cls-10" cx="135.5" cy="377.34" r="10.3"/>
      <path class="cls-2" d="m135.5,381.94c-2.54,0-4.6-2.06-4.6-4.6s2.06-4.6,4.6-4.6,4.6,2.06,4.6,4.6c0,2.54-2.06,4.6-4.6,4.6Zm0-8.64c-2.23,0-4.04,1.81-4.04,4.04s1.81,4.04,4.04,4.04,4.04-1.81,4.04-4.04c0-2.23-1.81-4.04-4.04-4.04Z"/>
      <path class="cls-9" d="m259,209.76s-2.33,2.11-3.96,4.43c-1.63,2.32,2.79,1.16,3.96,1.39s1.4,1.91,3.72,1.31c2.33-.61.23.09,2.33-.61,2.1-.7,2.79-.47,4.89-.7,2.1-.23,1.68-1.75,2.82-3.09,1.14-1.33,1.19-2.5,0-3.66s-1.89,2.33-4.22,0c-2.33-2.33-2.25-4.33-4.38-3.33-2.13,1-1.58,1.35-2.55,2.22-.98.87-2.61,2.04-2.61,2.04Z"/>
      <path class="cls-6" d="m334.75,231.78s-6.79.47-12.53-5.35c0,0-3.8,3.1-5.97,7.14,0,0,4.19,4.89,8.92,7.14,0,0-2.14,18.03-1.01,24.28,0,0,7.53,1.4,12.18,1.71,4.65.31,10.4-1.16,10.4-1.16l-1.32-22.27,1.32,1.55s4.81-4.42,4.89-6.83c0,0-6.86-6.44-9.83-7.45-2.97-1.01-4.15,1.47-7.05,1.24Z"/>
      <path class="cls-2" d="m340.01,295.83h-.56c0-.52.21-12.43.56-14.08.35-1.61,2.41-12.86,2.43-12.97l.55.1c-.02.11-2.09,11.36-2.44,12.99-.34,1.59-.54,13.83-.55,13.96Z"/>
      <path class="cls-3" d="m251.03,384.07h-11.48s-6.29-42.09,0-50.98c6.29-8.89,19.47-5.86,11.48,50.98Z"/>
      <path class="cls-3" d="m235.82,384.07h-10.25s-13.45-4.19-19.88-14.44,3.11-14.6,10.1-10.21c6.99,4.39,20.03,24.65,20.03,24.65Z"/>
      <path class="cls-6" d="m239.55,384.07h-6.29s-14.91-14.72-16.77-32.52c-1.86-17.8,12.35-12.02,18.64,3.61,6.29,15.63,6.99,28.91,6.99,28.91h-2.56Z"/>
      <path class="cls-3" d="m254.76,384.07h10.25s13.45-4.19,19.88-14.44-3.11-14.6-10.1-10.21c-6.99,4.39-20.03,24.65-20.03,24.65Z"/>
      <path class="cls-6" d="m251.03,384.07h6.29s14.91-14.72,16.77-32.52c1.86-17.8-12.35-12.02-18.64,3.61-6.29,15.63-6.99,28.91-6.99,28.91h2.56Z"/>
      <polygon class="cls-2" points="286.34 197.32 286.95 196.07 287.74 197.21 288.98 197.82 287.85 198.61 287.24 199.85 286.45 198.72 285.21 198.11 286.34 197.32"/>
      <polygon class="cls-2" points="308.15 202.46 308.52 201.71 309 202.4 309.76 202.77 309.07 203.25 308.7 204 308.22 203.31 307.46 202.94 308.15 202.46"/>
      <polygon class="cls-2" points="311.67 192.28 312.04 191.53 312.52 192.22 313.28 192.59 312.59 193.07 312.22 193.83 311.74 193.14 310.98 192.76 311.67 192.28"/>
      <polygon class="cls-2" points="281.08 188.48 281.45 187.73 281.93 188.42 282.69 188.79 282 189.27 281.63 190.03 281.15 189.34 280.39 188.96 281.08 188.48"/>
      <polygon class="cls-2" points="285.65 216.38 286.02 215.62 286.5 216.31 287.25 216.69 286.56 217.17 286.19 217.92 285.71 217.23 284.95 216.86 285.65 216.38"/>
      <g>
        <path class="cls-2" d="m208.25,45.66l-.23-.16c.22-.31.35-.48.35-.48l.22.17s-.13.17-.34.47Z"/>
        <path class="cls-2" d="m200.78,61.75l-.27-.06c.02-.08.04-.17.06-.25l.27.07c-.02.08-.04.16-.06.24Zm.34-1.38l-.27-.07c.1-.38.21-.76.33-1.13l.27.08c-.11.37-.22.74-.32,1.12Zm.68-2.23l-.27-.09c.13-.37.26-.74.4-1.11l.26.1c-.13.36-.27.73-.39,1.1Zm.82-2.19l-.26-.11c.15-.37.3-.73.45-1.08l.26.11c-.15.35-.3.71-.45,1.08Zm.93-2.15l-.26-.12c.17-.36.34-.72.51-1.06l.25.12c-.17.34-.34.69-.5,1.05Zm1.03-2.1l-.25-.13c.19-.36.37-.7.55-1.04l.25.14c-.18.33-.37.68-.55,1.03Zm1.12-2.05l-.24-.14c.21-.36.4-.69.6-1.01l.24.14c-.19.32-.39.65-.59,1.01Zm1.21-2l-.24-.15c.23-.36.45-.69.64-.99l.23.16c-.19.29-.41.62-.64.98Z"/>
        <path class="cls-2" d="m200.54,62.93l-.28-.05c.04-.19.07-.39.11-.58l.27.06c-.04.19-.08.39-.11.58Z"/>
      </g>
      <g>
        <path class="cls-2" d="m210.32,46.37l-.28-.05c.07-.38.11-.58.11-.58l.27.06s-.04.2-.11.57Z"/>
        <path class="cls-2" d="m208.86,60.4c-.01-.39-.02-.79-.02-1.18h.28c0,.39,0,.78.02,1.17h-.28Zm.26-2.35h-.28c0-.4.02-.79.03-1.18h.28c-.01.4-.02.79-.03,1.18Zm.08-2.34h-.28c.02-.41.05-.8.07-1.19l.28.02c-.03.38-.05.77-.07,1.17Zm.17-2.33l-.28-.02c.04-.4.07-.79.11-1.17l.28.03c-.04.38-.08.77-.11,1.16Zm.24-2.33l-.28-.03c.05-.41.1-.8.15-1.17l.28.04c-.05.37-.1.76-.15,1.16Zm.31-2.32l-.28-.04c.06-.43.13-.82.18-1.16l.28.05c-.06.34-.12.73-.18,1.16Z"/>
        <path class="cls-2" d="m209.01,62.92c-.02-.2-.03-.39-.05-.59l.28-.02c.01.2.03.39.05.59l-.28.03Z"/>
      </g>
      <path class="cls-2" d="m204.52,66.86c-.01-.19-.02-.39-.04-.58h.28c0,.18.02.37.03.56l-.28.02Zm-.07-1.71c0-.15,0-.3,0-.45,0-.23,0-.45,0-.68h.28c0,.23,0,.45,0,.68,0,.15,0,.3,0,.45h-.28Zm.33-2.24h-.28c.02-.39.05-.77.08-1.14l.28.02c-.03.37-.06.74-.08,1.12Zm.19-2.23l-.28-.03c.04-.38.09-.75.15-1.12l.28.04c-.05.36-.1.74-.15,1.11Zm.32-2.22l-.28-.05c.07-.38.14-.75.21-1.11l.27.06c-.07.36-.14.73-.21,1.1Zm.45-2.2l-.27-.06c.09-.37.18-.74.27-1.1l.27.07c-.09.36-.18.72-.27,1.09Zm.56-2.17l-.27-.08c.1-.37.21-.73.32-1.08l.27.08c-.11.35-.22.71-.32,1.08Zm.67-2.14l-.27-.09c.13-.37.25-.73.38-1.06l.26.1c-.12.34-.25.69-.37,1.06Zm.77-2.11l-.26-.1c.15-.38.29-.73.43-1.04l.26.11c-.13.31-.28.66-.43,1.04Zm.88-2.06l-.26-.12c.3-.65.49-1.01.5-1.02l.25.13s-.19.36-.49,1.01Z"/>
      <path class="cls-3" d="m67.13,301.95c-.12-.07-.25-.14-.37-.21-1.99-1.27-3.84-2.7-6.02-3.65-.09-.04-.16-.09-.25-.14-.69,1.11-1.26,2.17-1.63,3.04,0,0,3.15,2.85,5.34,4.07,0,0,1.34-1.12,2.44-1.85.13-.43.3-.85.48-1.26Z"/>
    </g>
  </g>
</svg>