<svg xmlns="http://www.w3.org/2000/svg" viewBox="0 0 500 500"><path d="M77.67 448.33c-95.18-54.95-95.18-144 0-199s249.49-55 344.66 0 95.18 144 0 199-249.49 54.95-344.66 0" style="fill:#f5f5f5"/><path d="M34.63 436.83c-10.24 5.91-10.24 15.5 0 21.41s26.84 5.91 37.08 0 10.24-15.5 0-21.41-26.84-5.91-37.08 0M378.14 301l-5-2.91a13.69 13.69 0 0 0-12.4 0L94.05 452c-3.41 2-3.41 5.19 0 7.16l5 2.91a13.75 13.75 0 0 0 12.4 0l78.73-45.43 32.27 18.62c9.29 5.37 24.49 5.37 33.78 0L312.16 403c7.93-4.58 7.93-12.07 0-16.65l-34.74-20.05 100.72-58.17c3.41-1.97 3.41-5.19 0-7.13" style="fill:#e0e0e0"/><ellipse cx="431.28" cy="394.22" rx="61.88" ry="35.73" style="fill:#e0e0e0"/><path d="M37.82 448.68c-8.29-8.56-13.16-43.38-5.07-50.17h41.16c8.08 6.78 3.22 41.6-5.07 50.16l-.23.24-.28.28c-.24.23-.49.45-.75.67l-.2.16-.63.48a11 11 0 0 1-1.07.69c-6.82 4-17.88 4-24.7 0a9 9 0 0 1-1.08-.7c-.21-.14-.4-.29-.59-.44l-.24-.2a9 9 0 0 1-.72-.65c-.12-.1-.22-.21-.33-.32Z" style="fill:#feda5e"/><path d="M37.82 448.68c-8.29-8.56-13.16-43.38-5.07-50.17h41.16c8.08 6.78 3.22 41.6-5.07 50.16l-.23.24-.28.28c-.24.23-.49.45-.75.67l-.2.16-.63.48a11 11 0 0 1-1.07.69c-6.82 4-17.88 4-24.7 0a9 9 0 0 1-1.08-.7c-.21-.14-.4-.29-.59-.44l-.24-.2a9 9 0 0 1-.72-.65c-.12-.1-.22-.21-.33-.32Z" style="fill:#fff;opacity:.6000000000000001"/><path d="M70.33 395.77c9.39 5.49 9.39 14.38 0 19.86s-24.61 5.48-34 0-9.39-14.37 0-19.85 24.61-5.49 34-.01" style="fill:#feda5e"/><path d="M70.33 395.77c9.39 5.49 9.39 14.38 0 19.86s-24.61 5.48-34 0-9.39-14.37 0-19.85 24.61-5.49 34-.01" style="fill:#fff;opacity:.8"/><path d="M65.82 398.41c6.89 4 6.89 10.56 0 14.58s-18.08 4-25 0-6.89-10.55 0-14.58 18.1-4.02 25 0" style="fill:#feda5e"/><path d="M65.82 398.41c6.89 4 6.89 10.56 0 14.58s-18.08 4-25 0-6.89-10.55 0-14.58 18.1-4.02 25 0" style="fill:#fff;opacity:.6000000000000001"/><path d="M40.84 405.33c6.9-4 18.08-4 25 0a11.7 11.7 0 0 1 4.16 3.83 11.6 11.6 0 0 1-4.18 3.84c-6.9 4-18.08 4-25 0a11.5 11.5 0 0 1-4.13-3.83 11.6 11.6 0 0 1 4.15-3.84" style="fill:#fafafa"/><path d="M41.41 332.51a4 4 0 0 1 0-.61l-.06-.63c0-.42-.11-.83-.19-1.25-.16-.83-.37-1.65-.61-2.46a1.8 1.8 0 0 0-.15-.48l-.15-.47-.33-1c-.15-.46-.31-.92-.47-1.38a11 11 0 0 1-.44-1.33 3 3 0 0 0-.13-.52 1 1 0 0 1-.09-.23c0-.23-.09-.45-.13-.68-.1-.45-.21-.9-.33-1.34a27 27 0 0 0-.83-2.63q-.37-1-.84-2a7 7 0 0 0-2.28-3.06.92.92 0 0 0-.9-.17c-.31.16-.37.57-.4.92-.13 2-.26 3.93-.4 5.89a17.7 17.7 0 0 0 0 3.64 8.86 8.86 0 0 0 2 4.44 17 17 0 0 0 2.39 2.16c.64.51 1.3 1 1.92 1.55a8.4 8.4 0 0 0 2.42 1.64M53 320.11q-.07-.42-.18-.84a6.2 6.2 0 0 0-.72-1.71c-.17-.26-.25-.55-.41-.82a2.7 2.7 0 0 0-.6-.73 1.13 1.13 0 0 0-.5-.28.54.54 0 0 0-.53.15 1 1 0 0 0-.14.47 15.7 15.7 0 0 1-.62 3.12 10 10 0 0 1-.54 1.5 2.6 2.6 0 0 1-.28.4 1.6 1.6 0 0 0-.16.29 9.4 9.4 0 0 1-.82 1.41 7 7 0 0 1-.79.93 18.3 18.3 0 0 0-2.71 2.73c-1 1.64-.86 3.74-.9 5.6v1c0 2.55-.42 4.75.24 7.26 0 .18.23.62.5.45l.28-.19a9.47 9.47 0 0 0 2.86-4.22l.5-1.26a3.4 3.4 0 0 1 .59-.8 27 27 0 0 0 1.64-2.57 25.3 25.3 0 0 0 2.71-5.49 14.3 14.3 0 0 0 .75-4.39 12 12 0 0 0-.17-2.01m-17.66 20.1h6.44a4.3 4.3 0 0 0 .72 0 .3.3 0 0 0 .14 0 .28.28 0 0 0 .07-.22 4.36 4.36 0 0 0-.47-2 4.8 4.8 0 0 0-.57-.84 7.7 7.7 0 0 0-2.56-2 13.5 13.5 0 0 0-3-.89L28 332.52a1.13 1.13 0 0 0-1.08.15 1 1 0 0 0-.19.59 6 6 0 0 0 2.75 5.22 11.6 11.6 0 0 0 5.86 1.73m8.88 9.94a4.6 4.6 0 0 0-1-1.19 6.2 6.2 0 0 0-1.89-1.27 21 21 0 0 0-3.65-1.07 43.3 43.3 0 0 1-8.29-3 1.07 1.07 0 0 0-.57-.16c-.47.05-.66.64-.68 1.11A6.9 6.9 0 0 0 31.8 351c2.24 1.15 4.89 1 7.41.89h.1a21 21 0 0 1 2.72.05 10 10 0 0 1 1.33.21c.37.08 1 .48 1.28 0a1 1 0 0 0 0-.57 4.6 4.6 0 0 0-.45-1.33Zm2.78.7a1.7 1.7 0 0 1-.38.28.63.63 0 0 1-.32.1.47.47 0 0 1-.41-.21c-.05-.08-.1-.16-.14-.24a4 4 0 0 1-.23-.51 6 6 0 0 1-.27-1.1v-.27c-.05-.41-.08-.83-.12-1.25 0-.21 0-.42-.08-.63a1.3 1.3 0 0 1 0-.47 3.3 3.3 0 0 0 0-.77 7 7 0 0 1 0-.94c.23-2.78 2.26-5 3.93-7.27A33.7 33.7 0 0 0 52.7 331c.23-.51.61-1.12 1.16-1s.68.55.82 1a14.84 14.84 0 0 1-.23 9.29 20.8 20.8 0 0 1-2.55 5 25 25 0 0 1-1.73 2.23c-.18.22-.34.43-.53.63-.58.63-1.17 1.24-1.77 1.84l-.74.74a1 1 0 0 1-.13.12m-5.16 7.71a23.7 23.7 0 0 0-5.74-1.13 13.24 13.24 0 0 1-5.57-1.67 1.1 1.1 0 0 0-.58-.23c-.4 0-.61.49-.66.89a5.48 5.48 0 0 0 .92 3.43 10.3 10.3 0 0 0 10.26 4.68c1.26-.22 2.49-.67 3.77-.8a7 7 0 0 1 .94 0c.2 0 .53.14.69 0 .34-.37-.07-.86-.15-1.23a4.3 4.3 0 0 0-.56-1.23 6.5 6.5 0 0 0-2-1.92 9 9 0 0 0-1.32-.79M42 370c-1.93-.48-4-.58-5.83-1.25-.84-.3-1.64-.71-2.46-1-.24-.1-.53-.17-.71 0a.6.6 0 0 0-.12.42 6.51 6.51 0 0 0 2.95 5.35 11 11 0 0 0 6 1.72c1.27 0 2.55-.11 3.82 0a3 3 0 0 1 .89.14c.15.06.24.22.39.27.56.2.64-.61.58-1a4.8 4.8 0 0 0-.76-1.85 3.6 3.6 0 0 0-.65-.76 1.3 1.3 0 0 0-.32-.18c-.54-.27-1-.72-1.54-1A9.8 9.8 0 0 0 42 370" style="fill:#feda5e"/><path d="M53.09 408.89c-.13-.64-.21-1.3-.4-1.92l-.63-2.1q-.56-1.92-1-3.87c-.6-2.66-1.08-5.33-1.42-8-.69-5.42-.94-10.9-1.17-16.36s-.47-11-1-16.44a139 139 0 0 0-2.79-16.67 98.6 98.6 0 0 0-6.21-18.55c-.07-.15-.19.06-.16.15 3.32 10.94 6.2 22 7.52 33.42 1.25 10.76.93 21.63 2.12 32.39a87 87 0 0 0 1.39 8.78c.3 1.44.67 2.86 1.1 4.27.24.84.51 1.66.81 2.48a18 18 0 0 0 1.23 2.53c.16.31.7.33.61-.11" style="fill:#37474f"/><path d="M43.45 340.63A3.6 3.6 0 0 0 42 339.1a9.8 9.8 0 0 0-2.07-1c-1.84-.64-3.75-1.08-5.62-1.64-.1 0-.15.24-.05.28 1.73.6 3.45 1.23 5.17 1.87a13.6 13.6 0 0 1 2 .87 5 5 0 0 1 .91.62c.31.26.55.59.85.86s.33-.15.26-.33m2.29 12.56c-.77-2.41-3.32-3.81-5.65-4.27-1.27-.26-2.57-.31-3.86-.48a12 12 0 0 1-3.6-1.13c-.06 0-.09.13-.05.16 1.76 1.61 4.62 1.67 6.85 2a9.2 9.2 0 0 1 3.46 1.17 8.5 8.5 0 0 1 2.52 2.75c.17.31.4.03.33-.2m.97 11.25a4.68 4.68 0 0 0-2.4-2 12.6 12.6 0 0 0-3.41-1c-2.38-.38-4.91-.47-6.95-1.92 0 0-.06.05 0 .07 1.71 1.63 4.08 2.07 6.32 2.51a20 20 0 0 1 3.32.86 7.5 7.5 0 0 1 1.47.74 17 17 0 0 1 1.39 1.16c.21.14.35-.23.26-.42m.74 10.96a3 3 0 0 0-1.27-1.64 6.2 6.2 0 0 0-2.09-1c-1.86-.48-3.83-.2-5.66-.81-.08 0-.12.16 0 .2a35 35 0 0 0 5.18 1.14 7.6 7.6 0 0 1 2 .78 3.6 3.6 0 0 1 .82.63c.27.27.43.61.68.91s.38.03.34-.21" style="fill:#37474f"/><path d="M49.19 325.37a16.2 16.2 0 0 1-2.35 3.83 17.5 17.5 0 0 0-2.27 3.69 17.2 17.2 0 0 0-1.17 4 12.5 12.5 0 0 0-.23 2.28 11.3 11.3 0 0 0 .3 2.1c0 .22.29.32.31 0 .08-.85.27-1.69.35-2.54a18 18 0 0 1 .3-2.07 20.3 20.3 0 0 1 1.26-4c1.06-2.5 2.86-4.65 3.69-7.25.04-.03-.12-.23-.19-.04m2.04 14.27c-1 2-2.69 3.67-4 5.54a13.3 13.3 0 0 0-1.63 3.26 6.4 6.4 0 0 0-.16 3.52c0 .2.27.18.29 0a14.4 14.4 0 0 1 2.37-6.3 40.4 40.4 0 0 0 3.21-5.88c.07-.11-.02-.26-.08-.14" style="fill:#37474f"/><path d="M34.35 375.1a20 20 0 0 0-2.85-1.36l-6.5-2.68a1 1 0 0 0-1-.06.9.9 0 0 0-.3.69 6.7 6.7 0 0 0 .38 2.76 11 11 0 0 0 8.4 7.56c1.64.26 3.34.07 5 .45.64.15 1.7.36 1.71-.61a1.36 1.36 0 0 0-.26-.7c-.16-.32-.24-.68-.37-1a10.35 10.35 0 0 0-2.3-3.54 9.4 9.4 0 0 0-1.91-1.51m3.33 11.03a16 16 0 0 0-4.09-1l-3.75-.59c-.48-.07-1-.14-1.45-.23a.7.7 0 0 1-.2 0 1.24 1.24 0 0 0-.62-.15c-.28 0-.32.24-.34.48a4.3 4.3 0 0 0 .14 1.48 5.36 5.36 0 0 0 1.63 2.51 9.3 9.3 0 0 0 4.52 2.06 17 17 0 0 0 4 .33 3 3 0 0 0 2.84-1.39c.48-1-.37-1.86-1-2.46a6.6 6.6 0 0 0-1.68-1.04m4.32-7.91a1.74 1.74 0 0 1 .08-.79A1 1 0 0 1 43 377a1.87 1.87 0 0 1 1 .49c1.15 1 1.44 2.71 1.59 4.25a14.7 14.7 0 0 1-.17 4.73c-.28 1.13-.8 2.59-2.09 2.86a2.23 2.23 0 0 1-2.34-1.11c-.72-1.31-.09-3.05.24-4.39a20.5 20.5 0 0 0 .79-5c-.02-.21-.02-.41-.02-.61m-2.78 16.67a17.7 17.7 0 0 0-5-1.09l-1.87-.24a1.1 1.1 0 0 0-.4 0c-.41.13-.44.7-.31 1.11.56 1.78 2.5 2.73 4.33 3.08s3.75.31 5.46 1c.4.17 1 .44 1.29-.07s-.16-.72-.34-1.05a5.84 5.84 0 0 0-1.84-2 7.5 7.5 0 0 0-1.32-.74m3.72-2.22c.59-1.46 1.85-2.63 2.1-4.18a.83.83 0 0 1 .83.36 2.5 2.5 0 0 1 .33.89 17.7 17.7 0 0 1 .57 3.61 5.9 5.9 0 0 1-.94 3.48 2.1 2.1 0 0 1-1.51 1 1.78 1.78 0 0 1-1.41-.56c-.56-.62-.39-1.52-.35-2.29a6.8 6.8 0 0 1 .38-2.31" style="fill:#feda5e"/><path d="M47.06 410a16.9 16.9 0 0 1-2.56-5.93c-.45-1.8-.79-3.62-1.13-5.43a5.6 5.6 0 0 1 .29-1.16 11 11 0 0 1 .53-1.23c.09-.2.2-.4.3-.6a2.7 2.7 0 0 0 .25-.92s0-.09-.06-.08c-.51.17-.76.68-1 1.11a9 9 0 0 0-.6 1.18c-.41-2.07-.81-4.13-1.23-6.2a9 9 0 0 1 .24-1c.21-.66.54-1.26.8-1.89a9 9 0 0 0 .64-2.1 6.1 6.1 0 0 0 .15-2c0-.18-.19 0-.17.12.11.75-.51 1.46-.83 2.08s-.61 1.15-.9 1.73c-.14.27-.27.54-.39.82a20.2 20.2 0 0 0-1.65-5.7 9.2 9.2 0 0 0-2.17-2.8 10 10 0 0 0-1.7-1.15 14.6 14.6 0 0 0-2-.81c-.06 0-.1.14 0 .17.52.34 1 .74 1.52 1.07a17 17 0 0 1 1.62 1.17 6.2 6.2 0 0 1 1.71 2.55 32.3 32.3 0 0 1 1.5 6.06 16.7 16.7 0 0 0-3-.5 9.3 9.3 0 0 1-3.06-.88c-.13-.07-.19.22-.11.29a7.5 7.5 0 0 0 3.12 1.23c.56.11 1.12.22 1.67.35s1 .27 1.51.41c.45 2.38.92 4.75 1.39 7.12l.15.78c-.13-.1-.26-.2-.4-.29a4.8 4.8 0 0 0-1.16-.58 2.4 2.4 0 0 0-.64-.15h-.6c-.15 0-.16.29 0 .32a8 8 0 0 1 1.19.39 7.5 7.5 0 0 1 1 .52 4.5 4.5 0 0 1 .77.61c.34 1.77.67 3.54 1.11 5.29a18 18 0 0 0 1.09 3.24 9.4 9.4 0 0 0 2.57 3.35c.36.25.37-.37.24-.56" style="fill:#37474f"/><path d="M74 323.77c1.52-3.2 4.28-5.76 5.4-9.12a.93.93 0 0 1 .24-.46.65.65 0 0 1 .85.09 1.75 1.75 0 0 1 .41.84 14 14 0 0 1 .32 7.67 26 26 0 0 1-1.37 3.35 63 63 0 0 1-2.6 5.86 11.7 11.7 0 0 1-2.17 2.78c-.64.59-1.77 1.6-2.46.51a2.93 2.93 0 0 1-.27-1.6v-1.95a26 26 0 0 1 .37-3.84 16.6 16.6 0 0 1 1.06-3.65c.08-.19.14-.34.22-.48m-5.16 12.09a16.3 16.3 0 0 0-2.11-4.86l-3.43-6c-.09-.15-.21-.33-.39-.34s-.33.17-.43.33a10.43 10.43 0 0 0-.48 9 24.2 24.2 0 0 0 5.17 7.66 1 1 0 0 0 1 .39 1.42 1.42 0 0 0 .68-1.07 1.4 1.4 0 0 0 0-.41 5.7 5.7 0 0 1 .07-1.16c0-.47.09-.95.09-1.43a10.3 10.3 0 0 0-.17-2.11m13.51-2.12 3.31-1.65A.5.5 0 0 1 86 332c.16 0 .24.23.27.39a5.12 5.12 0 0 1-.58 3.46 11.5 11.5 0 0 1-2.23 2.79A28 28 0 0 1 80.6 341a27 27 0 0 1-3.13 2 25 25 0 0 1-3.37 1.48 21 21 0 0 1-3.56.89c-.64.1-1.49.21-1.62-.63a3.72 3.72 0 0 1 .66-2.2 9.5 9.5 0 0 1 2.07-2.32 29 29 0 0 1 3.08-2.32c1.07-.7 2.18-1.35 3.31-2s2.29-1.2 3.45-1.78Zm-19.78 12.55a21.5 21.5 0 0 0-1.12-2.78 48 48 0 0 1-2.41-6.7c-.37 0-.68.28-.9.57a11.43 11.43 0 0 0-2.43 6.3 8.4 8.4 0 0 0 2.29 6.26c1.17 1.18 2.76 2 3.6 3.43.15.27.31.58.61.68a.44.44 0 0 0 .47-.22c.09-.17 0-.34 0-.53.06-.57.14-1.15.2-1.72a18.6 18.6 0 0 0 .07-3.42 10 10 0 0 0-.38-1.87m3.77 4.58c1.72-1.41 4-1.82 6.23-2.1s4.5-.49 6.41-1.63a1.5 1.5 0 0 1 .69-.27c.65 0 .92.85.81 1.48a6.1 6.1 0 0 1-1.25 2.44 11 11 0 0 1-1.84 2c-2.44 2-5.85 2.18-9 2.25l-2.27.06h-1.14a8 8 0 0 1-1.11 0c-.57-.06-.11-.74 0-1a18 18 0 0 1 1-1.65 8 8 0 0 1 1.47-1.58m-8.53 8.27a14 14 0 0 0-1.37-2.7l-2.74-4.55c-.29-.48-.67-1-1.22-1-1.31 3.5-2 7.55-.35 10.89a16.7 16.7 0 0 0 2.12 3l2.32 2.84c.32.38.92.79 1.44.52.24-.13.28-.44.33-.68a7.5 7.5 0 0 0 .14-1.16 4.2 4.2 0 0 0 0-.87 12.4 12.4 0 0 1-.2-2.51 11.5 11.5 0 0 0-.47-3.78m8.19 1.61a9.5 9.5 0 0 1 2.46-.93c1-.22 2-.22 3-.35 1.67-.2 3.29-.72 4.95-1a.77.77 0 0 1 .5 0 .79.79 0 0 1 .33.67 5.8 5.8 0 0 1-.86 3.22 11.63 11.63 0 0 1-7.73 5.66 29 29 0 0 1-4.47.37 21 21 0 0 0-2.24.19 10 10 0 0 0-1.11.21 1 1 0 0 1-.68 0c-.37-.17-.39-.67-.36-1a4.2 4.2 0 0 1 .55-1.52 13.75 13.75 0 0 1 5.2-5.39Zm-15.84 8.53a30 30 0 0 0-.46 4.64 15.3 15.3 0 0 0 .82 5.78 20.2 20.2 0 0 0 3.5 5.36.6.6 0 0 0 .3.24c.27.06.47-.24.57-.5a13.53 13.53 0 0 0 .76-7.29 14 14 0 0 0-1.12-3.61c-.24-.52-.6-1-.8-1.54 0-.12-.08-.26-.12-.38a10 10 0 0 0-.64-1.13 15 15 0 0 1-1.11-2.53 1.4 1.4 0 0 0-.48-.79.52.52 0 0 0-.54 0c-.19.11-.16.28-.24.46a4.4 4.4 0 0 0-.29.62 5 5 0 0 0-.15.67m8.51 5.82a8.4 8.4 0 0 1 2.39-2.73 10.5 10.5 0 0 1 2.6-1.1l6.78-2.19A8.37 8.37 0 0 1 68 376a24.6 24.6 0 0 1-5.81 4.26c-1.5.86-3 1.52-3.86 2.08-.38.25-.74.52-1.1.79s-.8.66-1.1.34c-.14-.15 0-.42 0-.6s.11-.52.17-.78.18-.66.28-1 .18-.64.25-1c0-.16.05-.32.09-.48a14 14 0 0 1 .68-2.34 14.4 14.4 0 0 1 1.07-2.17" style="fill:#feda5e"/><path d="M74.06 334.76c.62-1.63 1.15-3.31 1.61-5a53 53 0 0 0 1-5.29c0-.21-.2-.36-.26-.1-.37 1.61-1 3.17-1.46 4.74s-1.07 3.05-1.7 4.54a70 70 0 0 1-4.25 8.4c-.22.36-.44.72-.65 1.08v-.71a15.4 15.4 0 0 0-.27-2.95 17 17 0 0 0-.73-2.7 6.06 6.06 0 0 0-1.26-2.49c-.1-.09-.18.08-.16.16a17 17 0 0 0 .89 2.46 15.4 15.4 0 0 1 .6 2.65 17.6 17.6 0 0 1 .14 2.71 17 17 0 0 0-.12 2.38c-1.16 1.92-2.32 3.85-3.36 5.84-.47.9-.91 1.81-1.35 2.73v-.12a17.4 17.4 0 0 0-1.11-3 27 27 0 0 1-2.59-7c0-.13-.14 0-.14.06a19.5 19.5 0 0 0 1.55 6.22c.39 1.08.75 2.16 1.05 3.28a11 11 0 0 1 .31 1.64c0 .28.06.55.1.82l-.14.33a2.9 2.9 0 0 0-.42 1q-.45 1.05-.87 2.13c-1 2.58-1.87 5.21-2.63 7.87a17.4 17.4 0 0 0-.78-2.9 17 17 0 0 0-1.32-2.81 9.5 9.5 0 0 0-1.88-2.64c-.09-.07-.13.17-.11.22.4.91 1 1.71 1.41 2.63a28 28 0 0 1 1 2.71 40 40 0 0 1 1.09 4.86A103 103 0 0 0 55 379.39c-.57-1.41-1.31-2.74-2-4.1-.09-.18-.24.09-.19.21a27.7 27.7 0 0 1 1.67 5.16c.08.36.14.72.2 1.08-.51 3.91-.82 7.86-.94 11.8 0 .59.07 4.19.14 6.41a37 37 0 0 0 .51 5.52 15.5 15.5 0 0 0 .84 2.87c.19.42.64.84 1.06.65-.09-.69-.13-1.4-.28-2.08a49.6 49.6 0 0 1-.88-9.23v-3c.06-3.07.25-6.14.55-9.2a10.8 10.8 0 0 1 1.32-2.39c1.4-2 3.57-3.37 5-5.34.08-.11.05-.55-.17-.42a24 24 0 0 0-3.31 2.5 12.5 12.5 0 0 0-2.43 2.5c.22-1.79.48-3.58.8-5.35q.52-3 1.22-5.89a10 10 0 0 0 .74-.89c.32-.42.63-.85 1-1.25a10.3 10.3 0 0 1 4.82-3.06c.41-.11.83-.22 1.26-.3a4.1 4.1 0 0 0 1.34-.3s.08-.18 0-.22a5.08 5.08 0 0 0-3.2 0 10.3 10.3 0 0 0-3 1.19 10.6 10.6 0 0 0-2.23 1.9c.75-2.75 1.61-5.47 2.61-8.14q.9-2.38 1.93-4.69a7.7 7.7 0 0 1 1.78-1 23 23 0 0 1 2.69-.87 15 15 0 0 0 2.51-1c.1-.05.12-.33 0-.29-1 .28-2.16.36-3.22.57a14.4 14.4 0 0 0-2.89.8q1.56-3.25 3.33-6.4a10.4 10.4 0 0 1 1.3-1.52 16.6 16.6 0 0 1 2.46-1.49A59 59 0 0 0 76.5 341c.11-.07.07-.41-.09-.34a55 55 0 0 0-6 2.9c-.38.2-.78.42-1.19.66a1.4 1.4 0 0 1 .1-.16 59.6 59.6 0 0 0 4.74-9.3" style="fill:#37474f"/><path d="M59.92 398.05a13 13 0 0 0-.46-3.1 6.93 6.93 0 0 0-2.09-3.73 2.65 2.65 0 0 0-2.09-.58c.22 1.47.43 2.95.65 4.42 0 .16 0 .32.07.47a7.85 7.85 0 0 0 1 3.22 4.7 4.7 0 0 0 .58.6 7.3 7.3 0 0 0 1.3 1l.22.12a.7.7 0 0 0 .35.11c.41 0 .36-.66.39-.94a12 12 0 0 0 .06-1.47Zm7.08-5.56a12.5 12.5 0 0 0 2.35-1.36c.16-.11.38-.24.55-.14a.47.47 0 0 1 .18.29 3.72 3.72 0 0 1-1 3.09 12 12 0 0 1-2.86 2.74 8.4 8.4 0 0 1-3.59 1.42c-.76.11-2.44.25-2.12-1a4.3 4.3 0 0 1 .74-1.34 12 12 0 0 1 1.2-1.42 11.3 11.3 0 0 1 4-2.08Zm.17-8.1a12.76 12.76 0 0 1 8.25.28 3.57 3.57 0 0 1 1.77 1.09 1.42 1.42 0 0 1-.1 1.91 2.1 2.1 0 0 1-.81.33l-12.81 3.14a3 3 0 0 1-1 .11c-.17 0-.31-.12-.47-.14s-.27.06-.36-.1a.56.56 0 0 1-.06-.31 4.3 4.3 0 0 1 .07-.8 1.5 1.5 0 0 1 .13-.35c.14-.28.25-.57.39-.86a8.37 8.37 0 0 1 2.83-3.21 9 9 0 0 1 2.17-1.09m2.29-7.67c2.19-1.15 4.77-1.26 7.25-1.34a.39.39 0 0 1 .52.37 3.81 3.81 0 0 1-1.19 3 9.5 9.5 0 0 1-3.15 2.34 19 19 0 0 1-3.62 1.12L66 383c-.22.05-.72.32-.92.16s0-.83 0-1a8 8 0 0 1 .63-1.25 9.8 9.8 0 0 1 1.4-2.24 8 8 0 0 1 2.35-1.95m-12 7.08c-.07 0-.15-.09-.22-.06a.2.2 0 0 0-.09.16 2.5 2.5 0 0 0-.1.54.7.7 0 0 0 0 .14 2.3 2.3 0 0 1-.05.42 4.3 4.3 0 0 0-.09 1 5.5 5.5 0 0 0 .13 1.06 7.5 7.5 0 0 0 1 2.36 3 3 0 0 0 .36.5c.15.17.32.32.48.48a6 6 0 0 1 .91 1.2c.07.12.18.26.32.24a.43.43 0 0 0 .2-.16 1.6 1.6 0 0 0 .31-.51c0-.2.1-.41.12-.61a.3.3 0 0 1 0-.09 7.6 7.6 0 0 0-.39-3.11 7.4 7.4 0 0 0-.65-1.36 7.6 7.6 0 0 0-2.24-2.2" style="fill:#feda5e"/><path d="M70.52 387.1a6.1 6.1 0 0 0-3.2.06 15.3 15.3 0 0 0-3.38 1 8.6 8.6 0 0 0-1.87 1.15 20.7 20.7 0 0 1 2.93-4.68 23.6 23.6 0 0 1 4.73-4.48c.07 0 .08-.29 0-.24a17.4 17.4 0 0 0-4.84 3.09 18 18 0 0 0-3.55 4.74 19 19 0 0 0-1.11 2.5c0-.17-.1-.34-.16-.51a7.7 7.7 0 0 0-.69-1.49 4.7 4.7 0 0 0-.47-.69c-.11-.14-.25-.39-.46-.36a.09.09 0 0 0-.05.1 1.7 1.7 0 0 0 .3.74c.1.21.22.41.31.62a10 10 0 0 1 .51 1.29 11 11 0 0 1 .34 1.4c-.18.61-.33 1.23-.45 1.85a25 25 0 0 0-.4 3.66q-.15-.4-.33-.78a9.8 9.8 0 0 0-1.24-1.94c-.1-.13-.19.15-.13.24a10.3 10.3 0 0 1 1.53 4.07c0 .26.09.51.13.76v5.75c0 1.51-.21 2.87-.27 4.31 0 .22.36.66.53.33 1-2.07 1-4.6 1-6.86v-4.19l.06-.05a3.5 3.5 0 0 1 .74-.33 11 11 0 0 0 1.59-.7 10.4 10.4 0 0 0 2.69-2.06c0-.06 0-.25-.06-.16a6.3 6.3 0 0 1-3 1.62c-.58.15-1.16.32-1.74.5a2 2 0 0 0-.26.09c0-.65 0-1.3.11-1.94a21 21 0 0 1 .61-3.35c.46-.48.81-1.1 1.28-1.56a8.5 8.5 0 0 1 2.17-1.53 14.6 14.6 0 0 1 2.79-1l1.49-.4a4.5 4.5 0 0 1 1.72-.33c.16-.01.19-.21.1-.24" style="fill:#37474f"/><path d="M84.48 61.82c-6.8-3.93-15.45-3.28-24.35 1.86-19.79 11.43-35.89 42.14-35.89 68.46 0 14.12 4.67 24.92 12.82 29.62a19.1 19.1 0 0 0 9.7 2.54 29.65 29.65 0 0 0 14.66-4.39c19.79-11.43 35.89-42.14 35.89-68.47 0-14.12-4.68-24.91-12.83-29.62m-57.58 68c.46-13 4.79-26.94 11.48-38.81a18.7 18.7 0 0 0 5 1.58A93.5 93.5 0 0 0 37.14 124Zm35.16-17.32 19.71-11.38a92.3 92.3 0 0 1-6.3 29.53A28 28 0 0 0 62.06 134Zm0-3V88.14a58.9 58.9 0 0 0 14.16-12.4c3.49 5.55 5.49 13.24 5.59 22.42Zm0-24.48v-18.8a18.72 18.72 0 0 1 12.64 7.35 58 58 0 0 1-12.64 11.51Zm-2.57 1.57a26.8 26.8 0 0 1-12.4 3.66 99.3 99.3 0 0 1 12.4-21.83ZM46.06 92.9h.7a28.6 28.6 0 0 0 12.73-3.41v21.52l-19.73 11.43a92.4 92.4 0 0 1 6.3-29.54M59.49 114v21.43a58.6 58.6 0 0 0-14.18 12.41c-3.49-5.55-5.49-13.24-5.59-22.42Zm0 24.48v18.88A18.72 18.72 0 0 1 46.84 150a58.1 58.1 0 0 1 12.65-11.5Zm2.57-1.56a26.7 26.7 0 0 1 12.38-3.66 99.6 99.6 0 0 1-12.38 21.84Zm22.33-37.27 10.26-5.93c-.46 13-4.8 27-11.49 38.83a19 19 0 0 0-5-1.59 93.4 93.4 0 0 0 6.23-31.31m10.32-8.93-10.37 6c-.3-9.44-2.56-17.35-6.4-23.08a86 86 0 0 0 6.16-8.94c6.62 4.43 10.46 13.78 10.61 26.02M81.87 63.4a84 84 0 0 1-5.52 8.08 21.27 21.27 0 0 0-11.43-7.35 24.7 24.7 0 0 1 9.86-2.26 16.9 16.9 0 0 1 7.09 1.53m-27.11 7.23a104.7 104.7 0 0 0-10.37 19.53 16.4 16.4 0 0 1-4.72-1.36 72.8 72.8 0 0 1 15.09-18.17m-27.92 62.24 10.34-6c.31 9.44 2.57 17.36 6.41 23.08a85 85 0 0 0-6.14 8.91c-6.62-4.4-10.45-13.76-10.61-25.99m12.84 27.3a85 85 0 0 1 5.5-8 21.35 21.35 0 0 0 11.38 7.33c-6.18 2.66-12.02 2.9-16.88.67M66.76 153a103.4 103.4 0 0 0 10.38-19.54 16.3 16.3 0 0 1 4.74 1.36A72.5 72.5 0 0 1 66.76 153m50.9-50.2.12-57.12c0-1.18.57-1.47 1.26-.64l23.59 28.26c.69.83.17 2-1.16 2.59l-6.61 3a2.86 2.86 0 0 0-1.87 3l4.46 15.92a4.9 4.9 0 0 1-1.19 3.93l-3.26 3.77c-1 1.1-2 1.13-2.27.06l-4.47-15.93c-.3-1.06-1-.94-1.58.29l-6 12.79c-.56 1.22-1.02 1.28-1.02.08" style="fill:#e0e0e0"/><path d="m153.38 79.49-23.59-28.26a1.5 1.5 0 0 0-.43-.38l-5.66-3.27c-.48-.28-.83.09-.83 1l-.12 57.12c0 .48.07.76.2.84l5.67 3.27c.19.11.49-.2.82-.92l4.05-8.66 2.31 8.24a1.1 1.1 0 0 0 .45.67c.46.28 5.47 3.16 5.68 3.28.46.27 1.15 0 1.81-.74L147 108a4.93 4.93 0 0 0 1.2-4l-4.46-15.9a2.86 2.86 0 0 1 1.87-3l6.61-3c1.33-.62 1.85-1.78 1.16-2.61" style="fill:#37474f"/><path d="m128.41 109 .12-57.12c0-1.18.57-1.47 1.26-.64l23.59 28.26c.69.83.17 2-1.16 2.59l-6.61 3a2.86 2.86 0 0 0-1.87 3L148.2 104a4.93 4.93 0 0 1-1.2 4l-3.27 3.75c-1 1.1-2 1.13-2.28.06L137 95.83c-.3-1.06-1-.94-1.58.29l-6 12.79c-.55 1.22-1.01 1.26-1.01.09" style="fill:#fafafa"/><path d="m130 53.74 22.2 26.6a1.3 1.3 0 0 1-.57.41l-6.61 3c-2 .9-3.17 3-2.68 4.75l4.47 15.92a3.62 3.62 0 0 1-.89 2.58l-3.23 3.71-4.27-15.26a2.12 2.12 0 0 0-2-1.79c-.65 0-1.57.32-2.29 1.85l-4.22 9 .11-50.8m-.92-3c-.32 0-.53.39-.54 1.11l-.15 57.18c0 .57.11.86.29.86s.45-.32.74-.94l6-12.79c.31-.67.67-1 1-1s.48.24.61.72l4.46 15.93a.92.92 0 0 0 .87.78 2.05 2.05 0 0 0 1.41-.84L147 108a4.93 4.93 0 0 0 1.2-4l-4.46-15.9a2.86 2.86 0 0 1 1.87-3l6.61-3c1.33-.6 1.85-1.76 1.16-2.59l-23.59-28.28a1.07 1.07 0 0 0-.72-.47Z" style="fill:#455a64"/><path d="m141.84 112.38-5.59-3.22a1.1 1.1 0 0 1-.45-.67l-2.3-8.24 1.92-4.13c.58-1.22 1.29-1.35 1.59-.29l4.45 15.92a1.2 1.2 0 0 0 .38.63" style="fill:#263238"/><path d="M329.12 468.49a4.41 4.41 0 0 1-4.28-3.54l-.73-3.81a48 48 0 0 1-4.85-1.21l-7.42 3.44a5.24 5.24 0 0 1-4.63-.21l-7.6-4.39a3.77 3.77 0 0 1-.32-6.41l4-2.86c-.19-.28-.37-.55-.54-.83l-9.27-.59a4.22 4.22 0 0 1-3.95-4.21v-5.64a4.23 4.23 0 0 1 4-4.21l9.26-.59c.17-.28.35-.56.54-.83l-4-2.87a3.76 3.76 0 0 1 .33-6.41l7.59-4.38a5.07 5.07 0 0 1 2.54-.65 5 5 0 0 1 2.09.44l7.42 3.44a48 48 0 0 1 4.85-1.21l.73-3.81a4.41 4.41 0 0 1 4.28-3.55h11.16a4.43 4.43 0 0 1 4.28 3.55l.72 3.81a49 49 0 0 1 4.86 1.21l7.41-3.44a5 5 0 0 1 2.1-.44 5.1 5.1 0 0 1 2.54.65l7.59 4.38a3.77 3.77 0 0 1 .32 6.42l-4 2.86c.19.27.37.55.54.83l9.27.59a4.22 4.22 0 0 1 3.95 4.21v5.64a4.22 4.22 0 0 1-3.95 4.21l-9.27.59c-.17.28-.35.55-.54.83l4 2.86a3.77 3.77 0 0 1-.32 6.42l-7.59 4.38a5.1 5.1 0 0 1-2.54.65 5 5 0 0 1-2.09-.44l-7.42-3.44a49 49 0 0 1-4.86 1.21l-.73 3.81a4.4 4.4 0 0 1-4.27 3.54Zm5.58-34.7a23.1 23.1 0 0 0-11.22 2.64c-2.36 1.36-3.71 3-3.71 4.62s1.35 3.26 3.71 4.62a25.16 25.16 0 0 0 22.44 0c2.35-1.36 3.7-3 3.7-4.62s-1.35-3.26-3.7-4.62a23.14 23.14 0 0 0-11.22-2.64" style="fill:#e0e0e0"/><path d="m368.17 419.52-7.59-4.38a2.05 2.05 0 0 0-1.68-.08l-7.69 3.57a2.8 2.8 0 0 1-1.76.1 46 46 0 0 0-6-1.42 1.44 1.44 0 0 1-1.12-1.08l-1-5.07a1.19 1.19 0 0 0-1.12-.93h-11.09a1.2 1.2 0 0 0-1.13.93l-1 5.07a1.44 1.44 0 0 1-1.11 1.08 45 45 0 0 0-6 1.42 2.82 2.82 0 0 1-1.77-.1l-7.69-3.57a2.05 2.05 0 0 0-1.68.08l-7.59 4.38a.63.63 0 0 0-.35.52v6.58a.63.63 0 0 0 .3.51l3.49 2.51a1.66 1.66 0 0 1-.86.36l-10.11.64a1 1 0 0 0-.95 1v12.21a1 1 0 0 0 .95 1l10.11.64a1.6 1.6 0 0 1 .88.37l-3.47 2.5a.62.62 0 0 0-.3.5v6.59a.61.61 0 0 0 .35.51l7.59 4.39a2.05 2.05 0 0 0 1.68.07l7.7-3.56a2.8 2.8 0 0 1 1.76-.11 46 46 0 0 0 6 1.42 1.46 1.46 0 0 1 1.11 1.08l1 5.07a1.19 1.19 0 0 0 1.13.93h11.16a1.17 1.17 0 0 0 1.12-.93l1-5.07a1.44 1.44 0 0 1 1.11-1.08 46 46 0 0 0 6-1.42 2.86 2.86 0 0 1 1.76.11l7.7 3.56a2.05 2.05 0 0 0 1.68-.07l7.59-4.39a.61.61 0 0 0 .35-.5v-6.6a.62.62 0 0 0-.3-.5l-3.5-2.52a1.7 1.7 0 0 1 .86-.35l10.12-.64a1 1 0 0 0 1-1v-12.2a1 1 0 0 0-.94-1l-10.26-.65a1.8 1.8 0 0 1-.88-.37l3.48-2.5a.65.65 0 0 0 .3-.51v-6.59a.63.63 0 0 0-.34-.51m-51.24 17.05c.55-1.82 2.17-3.6 4.94-5.2 7.08-4.09 18.57-4.09 25.65 0 2.6 1.5 4.29 3.15 5.05 4.84-.6 2.07-2.28 4.06-5.05 5.66-7.08 4.09-18.57 4.09-25.65 0a10.52 10.52 0 0 1-4.94-5.3" style="fill:#feda5e"/><path d="m368.17 419.52-7.59-4.38a2.05 2.05 0 0 0-1.68-.08l-7.69 3.57a2.8 2.8 0 0 1-1.76.1 46 46 0 0 0-6-1.42 1.44 1.44 0 0 1-1.12-1.08l-1-5.07a1.19 1.19 0 0 0-1.12-.93h-11.09a1.2 1.2 0 0 0-1.13.93l-1 5.07a1.44 1.44 0 0 1-1.11 1.08 45 45 0 0 0-6 1.42 2.82 2.82 0 0 1-1.77-.1l-7.69-3.57a2.05 2.05 0 0 0-1.68.08l-7.59 4.38a.63.63 0 0 0-.35.52v6.58a.63.63 0 0 0 .3.51l3.49 2.51a1.66 1.66 0 0 1-.86.36l-10.11.64a1 1 0 0 0-.95 1v12.21a1 1 0 0 0 .95 1l10.11.64a1.6 1.6 0 0 1 .88.37l-3.47 2.5a.62.62 0 0 0-.3.5v6.59a.61.61 0 0 0 .35.51l7.59 4.39a2.05 2.05 0 0 0 1.68.07l7.7-3.56a2.8 2.8 0 0 1 1.76-.11 46 46 0 0 0 6 1.42 1.46 1.46 0 0 1 1.11 1.08l1 5.07a1.19 1.19 0 0 0 1.13.93h11.16a1.17 1.17 0 0 0 1.12-.93l1-5.07a1.44 1.44 0 0 1 1.11-1.08 46 46 0 0 0 6-1.42 2.86 2.86 0 0 1 1.76.11l7.7 3.56a2.05 2.05 0 0 0 1.68-.07l7.59-4.39a.61.61 0 0 0 .35-.5v-6.6a.62.62 0 0 0-.3-.5l-3.5-2.52a1.7 1.7 0 0 1 .86-.35l10.12-.64a1 1 0 0 0 1-1v-12.2a1 1 0 0 0-.94-1l-10.26-.65a1.8 1.8 0 0 1-.88-.37l3.48-2.5a.65.65 0 0 0 .3-.51v-6.59a.63.63 0 0 0-.34-.51m-51.24 17.05c.55-1.82 2.17-3.6 4.94-5.2 7.08-4.09 18.57-4.09 25.65 0 2.6 1.5 4.29 3.15 5.05 4.84-.6 2.07-2.28 4.06-5.05 5.66-7.08 4.09-18.57 4.09-25.65 0a10.52 10.52 0 0 1-4.94-5.3" style="fill:#fff;opacity:.2"/><path d="M305.15 439.84a1.9 1.9 0 0 0-1.37-.91l-10.12-.63a1 1 0 0 1-.94-1V436v7.92a1 1 0 0 0 .95 1l10.11.63a1.7 1.7 0 0 1 .89.37l2.53-1.82a.81.81 0 0 0 .12-1.24 15 15 0 0 1-2.17-3.02m-4.31-13.22a.63.63 0 0 0 .3.51l3.49 2.52a1.8 1.8 0 0 0 .5-.56 16 16 0 0 1 2.15-3 .79.79 0 0 0-.11-1.23l-6-4.33a.76.76 0 0 1-.3-.44Zm46.68.45c-7.08-4.09-18.56-4.1-25.65 0-4.47 2.59-6.12 6.19-4.94 9.52.53-1.82 2.17-3.6 4.94-5.21 7.08-4.09 18.56-4.08 25.65 0 2.59 1.5 4.29 3.15 5.06 4.84.94-3.22-.75-6.67-5.06-9.15" style="opacity:.1"/><path d="M376.67 437.42a1.05 1.05 0 0 1-.94.88l-10.11.63a1.3 1.3 0 0 0-.51.14v6.59a1.3 1.3 0 0 1 .49-.14l10.12-.65a1 1 0 0 0 1-1ZM368.53 420a.3.3 0 0 1 0 .2.4.4 0 0 1-.12.2l-.13.12-6 4.32a.7.7 0 0 0-.15.14.7.7 0 0 0-.18.37.7.7 0 0 0 0 .25.5.5 0 0 0 0 .13.8.8 0 0 0 .2.35l.11.13a15 15 0 0 1 2 2.85 2 2 0 0 0 .48.54l3.48-2.5a.65.65 0 0 0 .3-.5Zm0 28.91a.65.65 0 0 1-.36.47l-7.59 4.38a2 2 0 0 1-1.18.2v6.58a2.1 2.1 0 0 0 1.18-.2l7.58-4.39a.59.59 0 0 0 .36-.5Zm-49.59 1.17a2.7 2.7 0 0 0-.76.18l-7.69 3.57a1.8 1.8 0 0 1-.69.15v6.57a2.2 2.2 0 0 0 .69-.14l7.69-3.57a2.4 2.4 0 0 1 .75-.17Zm22.27 8.08a1.13 1.13 0 0 1-.93.5h-11.17a1.15 1.15 0 0 1-.68-.24V465a1.13 1.13 0 0 0 .68.24h11.16a1.17 1.17 0 0 0 1-.56Z" style="fill:#feda5e"/><path d="M376.67 437.42a1.05 1.05 0 0 1-.94.88l-10.11.63a1.3 1.3 0 0 0-.51.14v6.59a1.3 1.3 0 0 1 .49-.14l10.12-.65a1 1 0 0 0 1-1ZM368.53 420a.3.3 0 0 1 0 .2.4.4 0 0 1-.12.2l-.13.12-6 4.32a.7.7 0 0 0-.15.14.7.7 0 0 0-.18.37.7.7 0 0 0 0 .25.5.5 0 0 0 0 .13.8.8 0 0 0 .2.35l.11.13a15 15 0 0 1 2 2.85 2 2 0 0 0 .48.54l3.48-2.5a.65.65 0 0 0 .3-.5Zm0 28.91a.65.65 0 0 1-.36.47l-7.59 4.38a2 2 0 0 1-1.18.2v6.58a2.1 2.1 0 0 0 1.18-.2l7.58-4.39a.59.59 0 0 0 .36-.5Zm-49.59 1.17a2.7 2.7 0 0 0-.76.18l-7.69 3.57a1.8 1.8 0 0 1-.69.15v6.57a2.2 2.2 0 0 0 .69-.14l7.69-3.57a2.4 2.4 0 0 1 .75-.17Zm22.27 8.08a1.13 1.13 0 0 1-.93.5h-11.17a1.15 1.15 0 0 1-.68-.24V465a1.13 1.13 0 0 0 .68.24h11.16a1.17 1.17 0 0 0 1-.56Z" style="fill:#fff;opacity:.7000000000000001"/><path d="m358.9 415.06-7.69 3.57a2.8 2.8 0 0 1-1.76.1 46 46 0 0 0-6-1.42 1.44 1.44 0 0 1-1.12-1.08l-1-5.07a1.19 1.19 0 0 0-1.12-.93h-11.09a1.2 1.2 0 0 0-1.13.93l-1 5.07a1.44 1.44 0 0 1-1.11 1.08 45 45 0 0 0-6 1.42 2.82 2.82 0 0 1-1.77-.1l-7.69-3.57a2.05 2.05 0 0 0-1.68.08l-7.59 4.38a.57.57 0 0 0-.05 1l6 4.33a.8.8 0 0 1 .12 1.23 15 15 0 0 0-2.15 3 1.87 1.87 0 0 1-1.37.91l-10.11.64a1 1 0 0 0-.95 1v5.64a1 1 0 0 0 .94 1l10.12.64a1.86 1.86 0 0 1 1.37.9 15 15 0 0 0 2.15 3 .81.81 0 0 1-.12 1.24l-6 4.33a.56.56 0 0 0 .05 1l7.59 4.39a2.05 2.05 0 0 0 1.68.07l7.69-3.56a2.8 2.8 0 0 1 1.76-.11 46 46 0 0 0 6 1.42 1.47 1.47 0 0 1 1.13 1.11l1 5.07a1.18 1.18 0 0 0 1.13.93h11.16a1.18 1.18 0 0 0 1.12-.93l1-5.07a1.47 1.47 0 0 1 1.12-1.08 46 46 0 0 0 6-1.42 2.87 2.87 0 0 1 1.76.11l7.69 3.56a2.05 2.05 0 0 0 1.68-.07l7.59-4.39a.56.56 0 0 0 .06-1l-6-4.33a.81.81 0 0 1-.11-1.24 15.3 15.3 0 0 0 2.15-3 1.84 1.84 0 0 1 1.36-.9l10.12-.64a1 1 0 0 0 .94-1v-5.64a1 1 0 0 0-.94-1l-10.22-.66a1.85 1.85 0 0 1-1.36-.91 15.3 15.3 0 0 0-2.15-3 .8.8 0 0 1 .11-1.23l6-4.33a.57.57 0 0 0-.06-1l-7.59-4.38a2.05 2.05 0 0 0-1.66-.09m-11.38 12c7.08 4.09 7.08 10.72 0 14.81s-18.57 4.09-25.65 0-7.08-10.72 0-14.81 18.57-4.06 25.65 0" style="fill:#feda5e"/><g style="opacity:.55"><path d="m358.9 415.06-7.69 3.57a2.8 2.8 0 0 1-1.76.1 46 46 0 0 0-6-1.42 1.44 1.44 0 0 1-1.12-1.08l-1-5.07a1.19 1.19 0 0 0-1.12-.93h-11.09a1.2 1.2 0 0 0-1.13.93l-1 5.07a1.44 1.44 0 0 1-1.11 1.08 45 45 0 0 0-6 1.42 2.82 2.82 0 0 1-1.77-.1l-7.69-3.57a2.05 2.05 0 0 0-1.68.08l-7.59 4.38a.57.57 0 0 0-.05 1l6 4.33a.8.8 0 0 1 .12 1.23 15 15 0 0 0-2.15 3 1.87 1.87 0 0 1-1.37.91l-10.11.64a1 1 0 0 0-.95 1v5.64a1 1 0 0 0 .94 1l10.12.64a1.86 1.86 0 0 1 1.37.9 15 15 0 0 0 2.15 3 .81.81 0 0 1-.12 1.24l-6 4.33a.56.56 0 0 0 .05 1l7.59 4.39a2.05 2.05 0 0 0 1.68.07l7.69-3.56a2.8 2.8 0 0 1 1.76-.11 46 46 0 0 0 6 1.42 1.47 1.47 0 0 1 1.13 1.11l1 5.07a1.18 1.18 0 0 0 1.13.93h11.16a1.18 1.18 0 0 0 1.12-.93l1-5.07a1.47 1.47 0 0 1 1.12-1.08 46 46 0 0 0 6-1.42 2.87 2.87 0 0 1 1.76.11l7.69 3.56a2.05 2.05 0 0 0 1.68-.07l7.59-4.39a.56.56 0 0 0 .06-1l-6-4.33a.81.81 0 0 1-.11-1.24 15.3 15.3 0 0 0 2.15-3 1.84 1.84 0 0 1 1.36-.9l10.12-.64a1 1 0 0 0 .94-1v-5.64a1 1 0 0 0-.94-1l-10.22-.66a1.85 1.85 0 0 1-1.36-.91 15.3 15.3 0 0 0-2.15-3 .8.8 0 0 1 .11-1.23l6-4.33a.57.57 0 0 0-.06-1l-7.59-4.38a2.05 2.05 0 0 0-1.66-.09m-11.38 12c7.08 4.09 7.08 10.72 0 14.81s-18.57 4.09-25.65 0-7.08-10.72 0-14.81 18.57-4.06 25.65 0" style="fill:#fff"/><path d="M340.28 459.08h-11.16a1.56 1.56 0 0 1-1.49-1.24l-1-5.07a1.07 1.07 0 0 0-.81-.78 48 48 0 0 1-6-1.43 2.37 2.37 0 0 0-1.49.08l-7.69 3.57a2.44 2.44 0 0 1-2-.09l-7.64-4.38a1 1 0 0 1-.54-.81 1 1 0 0 1 .46-.85l6-4.32a.45.45 0 0 0 .19-.31.53.53 0 0 0-.14-.38 15 15 0 0 1-2.2-3.05 1.49 1.49 0 0 0-1.06-.71l-10.12-.64a1.41 1.41 0 0 1-1.29-1.38v-5.64a1.39 1.39 0 0 1 1.29-1.38l10.12-.64a1.5 1.5 0 0 0 1.06-.72 15.4 15.4 0 0 1 2.2-3.05.5.5 0 0 0 .14-.37.43.43 0 0 0-.19-.31l-6-4.33a1 1 0 0 1-.46-.85 1 1 0 0 1 .54-.8l7.59-4.38a2.44 2.44 0 0 1 2-.09l7.69 3.56a2.44 2.44 0 0 0 1.49.09 45 45 0 0 1 6-1.43 1.09 1.09 0 0 0 .81-.79l1-5.07a1.55 1.55 0 0 1 1.49-1.23h11.16a1.56 1.56 0 0 1 1.49 1.23l1 5.07a1.1 1.1 0 0 0 .81.79 44 44 0 0 1 6 1.43 2.44 2.44 0 0 0 1.49-.09l7.7-3.56a2.42 2.42 0 0 1 2 .09l7.59 4.38a1 1 0 0 1 .54.8 1 1 0 0 1-.46.85l-6 4.33a.45.45 0 0 0-.2.31.5.5 0 0 0 .14.37 15.4 15.4 0 0 1 2.2 3.05 1.52 1.52 0 0 0 1.07.72l10.11.64a1.4 1.4 0 0 1 1.3 1.38v5.64a1.41 1.41 0 0 1-1.3 1.38l-10.11.64a1.51 1.51 0 0 0-1.07.71 15 15 0 0 1-2.2 3.05.53.53 0 0 0-.14.38.47.47 0 0 0 .2.31l6 4.32a.93.93 0 0 1-.08 1.65l-7.59 4.39a2.42 2.42 0 0 1-2 .09l-7.7-3.57a2.37 2.37 0 0 0-1.49-.08 48 48 0 0 1-6 1.43 1.09 1.09 0 0 0-.81.78l-1 5.07a1.58 1.58 0 0 1-1.44 1.24m-21-9.35a2.6 2.6 0 0 1 .81.12 47 47 0 0 0 5.93 1.4 1.85 1.85 0 0 1 1.42 1.38l1 5.07a.81.81 0 0 0 .76.63h11.16a.81.81 0 0 0 .75-.63l1-5.07a1.83 1.83 0 0 1 1.41-1.38 46 46 0 0 0 5.93-1.4 3.14 3.14 0 0 1 2 .12l7.69 3.56a1.7 1.7 0 0 0 1.34-.06l7.59-4.38a.33.33 0 0 0 .17-.19.33.33 0 0 0-.15-.21l-6-4.33a1.22 1.22 0 0 1-.5-.84 1.26 1.26 0 0 1 .33-.95 14.8 14.8 0 0 0 2.1-2.9 2.25 2.25 0 0 1 1.67-1.11l10.12-.64a.65.65 0 0 0 .59-.63v-5.64a.65.65 0 0 0-.59-.64l-10.12-.64a2.23 2.23 0 0 1-1.67-1.1 14.7 14.7 0 0 0-2.1-2.91 1.26 1.26 0 0 1-.33-.95 1.24 1.24 0 0 1 .5-.84l6-4.32a.33.33 0 0 0 .15-.21.34.34 0 0 0-.17-.2l-7.59-4.38a1.7 1.7 0 0 0-1.34-.06l-7.77 3.6a3.2 3.2 0 0 1-2 .12 44 44 0 0 0-5.93-1.41 1.83 1.83 0 0 1-1.44-1.41l-1-5.07a.83.83 0 0 0-.76-.63h-11.12a.81.81 0 0 0-.76.63l-1 5.07a1.84 1.84 0 0 1-1.42 1.38 44.5 44.5 0 0 0-5.92 1.41 3.2 3.2 0 0 1-2-.12l-7.7-3.57a1.67 1.67 0 0 0-1.33.06l-7.59 4.38c-.11.06-.17.14-.17.2s.05.14.15.21l6 4.32a1.17 1.17 0 0 1 .5.84 1.19 1.19 0 0 1-.33.95 15.3 15.3 0 0 0-2.1 2.91 2.2 2.2 0 0 1-1.67 1.1l-10.11.64a.66.66 0 0 0-.6.64v5.64a.64.64 0 0 0 .6.63l10.11.64a2.23 2.23 0 0 1 1.67 1.11 14.8 14.8 0 0 0 2.1 2.9 1.19 1.19 0 0 1 .33.95 1.15 1.15 0 0 1-.5.84l-6 4.33c-.1.07-.16.15-.15.21s.06.13.17.19l7.59 4.38a1.66 1.66 0 0 0 1.33.06L318 450a2.9 2.9 0 0 1 1.24-.27Zm15.46-4.43a26.6 26.6 0 0 1-13-3.11c-3.55-2-5.5-4.79-5.5-7.72s1.95-5.68 5.5-7.73c7.17-4.14 18.84-4.14 26 0 3.54 2.05 5.49 4.79 5.49 7.73s-1.95 5.68-5.49 7.72a26.6 26.6 0 0 1-13.04 3.11Zm0-20.93a25.74 25.74 0 0 0-12.64 3c-3.31 1.9-5.13 4.42-5.13 7.08s1.82 5.17 5.13 7.08c7 4 18.31 4 25.27 0 3.31-1.91 5.13-4.43 5.13-7.08s-1.82-5.18-5.13-7.08a25.73 25.73 0 0 0-12.67-3Z" style="fill:#fff"/></g><path d="M261.8 484.13a4 4 0 0 1-.47 0l-6.59-.69a4.35 4.35 0 0 1-3.88-4.86l.13-1c-.56-.2-1.11-.42-1.63-.64h-.07l-5 1.57a5 5 0 0 1-1.52.23 5.63 5.63 0 0 1-3.52-1.22l-3.36-2.8a3.91 3.91 0 0 1 .76-6.61l1.14-.57-3.09-.54a4.2 4.2 0 0 1-3.33-5.44l.91-2.91a4.85 4.85 0 0 1 4.53-3.33l5.6.23-.72-.77a4 4 0 0 1 1.43-6.47l5.27-2.11a5.3 5.3 0 0 1 2-.36 5.54 5.54 0 0 1 3.06.88l3.42 2.27q1.49-.26 3-.39l1-2a5 5 0 0 1 4.41-2.67 4 4 0 0 1 .48 0l6.58.69a4.36 4.36 0 0 1 3.88 4.86l-.12 1c.56.2 1.1.42 1.63.64h.08l5-1.56a5 5 0 0 1 1.51-.23 5.6 5.6 0 0 1 3.52 1.22l3.36 2.8a3.91 3.91 0 0 1-.76 6.62l-1.14.56 3.09.53a4.22 4.22 0 0 1 3.33 5.44l-.92 2.91a4.85 4.85 0 0 1-4.53 3.33l-5.6-.23.72.77a3.94 3.94 0 0 1-1.43 6.47l-5.27 2.11a5.3 5.3 0 0 1-2 .36 5.6 5.6 0 0 1-3.07-.88l-3.41-2.27q-1.5.255-3 .39l-1 2a5.09 5.09 0 0 1-4.41 2.67m1.74-24.13a16.2 16.2 0 0 0-6 1.07c-2.31.92-3.27 2.1-3.38 2.83s.62 1.45 1.07 1.83c1.77 1.47 4.95 2.38 8.3 2.38a16.2 16.2 0 0 0 6-1.07c2.31-.92 3.27-2.1 3.38-2.83s-.62-1.45-1.07-1.83c-1.77-1.51-4.95-2.38-8.3-2.38" style="fill:#e0e0e0"/><path d="M273.74 447.58a1.44 1.44 0 0 1-1-1.49l.3-2.5a1.14 1.14 0 0 0-1-1.28l-6.59-.69a1.84 1.84 0 0 0-1.7.92l-1.31 2.55a2.29 2.29 0 0 1-1.7 1.12 32 32 0 0 0-3.41.42 3.37 3.37 0 0 1-2.13-.43l-3.54-2.35a2.5 2.5 0 0 0-2.07-.21l-5.26 2.11a.77.77 0 0 0-.55.67v5.44a.87.87 0 0 0 .26.59l.3.32a2.7 2.7 0 0 1-1.45.45l-6-.24a1.64 1.64 0 0 0-1.52 1.07l-.91 2.91a.9.9 0 0 0 0 .36v5.44a1 1 0 0 0 .86.95l4.66.8-1.82.91a.77.77 0 0 0-.47.66v5.44a.81.81 0 0 0 .32.6l3.37 2.8a2.42 2.42 0 0 0 2 .4l5.12-1.61a3.7 3.7 0 0 1 2.18.14 28 28 0 0 0 2.75 1 1.33 1.33 0 0 1 .67.47V479a1.14 1.14 0 0 0 1 1.13l6.59.69a1.87 1.87 0 0 0 1.7-.92l1.31-2.56a2.33 2.33 0 0 1 1.7-1.11q1.72-.14 3.42-.42a3.28 3.28 0 0 1 2.12.42l3.55 2.36a2.52 2.52 0 0 0 2.06.21l5.27-2.11a.77.77 0 0 0 .54-.7v-5.43a.83.83 0 0 0-.26-.58l-.3-.33a2.77 2.77 0 0 1 1.45-.45l6 .24a1.61 1.61 0 0 0 1.52-1.07l.91-2.91a1 1 0 0 0 .05-.33v-5.41a1 1 0 0 0-.83-1l-4.67-.79L289 457a.74.74 0 0 0 .47-.67V451a.81.81 0 0 0-.33-.62l-3.36-2.8a2.36 2.36 0 0 0-2-.4l-5.13 1.6a3.54 3.54 0 0 1-2.18-.14 25 25 0 0 0-2.73-1.06m-21.86 13.64a9.84 9.84 0 0 1 4.5-3.26c5.71-2.28 13.55-1.46 17.51 1.83a8 8 0 0 1 1.34 1.42 9.7 9.7 0 0 1-4.51 3.27c-5.71 2.29-13.55 1.47-17.51-1.83a7.3 7.3 0 0 1-1.33-1.43" style="fill:#feda5e"/><path d="M273.74 447.58a1.44 1.44 0 0 1-1-1.49l.3-2.5a1.14 1.14 0 0 0-1-1.28l-6.59-.69a1.84 1.84 0 0 0-1.7.92l-1.31 2.55a2.29 2.29 0 0 1-1.7 1.12 32 32 0 0 0-3.41.42 3.37 3.37 0 0 1-2.13-.43l-3.54-2.35a2.5 2.5 0 0 0-2.07-.21l-5.26 2.11a.77.77 0 0 0-.55.67v5.44a.87.87 0 0 0 .26.59l.3.32a2.7 2.7 0 0 1-1.45.45l-6-.24a1.64 1.64 0 0 0-1.52 1.07l-.91 2.91a.9.9 0 0 0 0 .36v5.44a1 1 0 0 0 .86.95l4.66.8-1.82.91a.77.77 0 0 0-.47.66v5.44a.81.81 0 0 0 .32.6l3.37 2.8a2.42 2.42 0 0 0 2 .4l5.12-1.61a3.7 3.7 0 0 1 2.18.14 28 28 0 0 0 2.75 1 1.33 1.33 0 0 1 .67.47V479a1.14 1.14 0 0 0 1 1.13l6.59.69a1.87 1.87 0 0 0 1.7-.92l1.31-2.56a2.33 2.33 0 0 1 1.7-1.11q1.72-.14 3.42-.42a3.28 3.28 0 0 1 2.12.42l3.55 2.36a2.52 2.52 0 0 0 2.06.21l5.27-2.11a.77.77 0 0 0 .54-.7v-5.43a.83.83 0 0 0-.26-.58l-.3-.33a2.77 2.77 0 0 1 1.45-.45l6 .24a1.61 1.61 0 0 0 1.52-1.07l.91-2.91a1 1 0 0 0 .05-.33v-5.41a1 1 0 0 0-.83-1l-4.67-.79L289 457a.74.74 0 0 0 .47-.67V451a.81.81 0 0 0-.33-.62l-3.36-2.8a2.36 2.36 0 0 0-2-.4l-5.13 1.6a3.54 3.54 0 0 1-2.18-.14 25 25 0 0 0-2.73-1.06m-21.86 13.64a9.84 9.84 0 0 1 4.5-3.26c5.71-2.28 13.55-1.46 17.51 1.83a8 8 0 0 1 1.34 1.42 9.7 9.7 0 0 1-4.51 3.27c-5.71 2.29-13.55 1.47-17.51-1.83a7.3 7.3 0 0 1-1.33-1.43" style="fill:#fff;opacity:.2"/><path d="M242.36 460.61a2 2 0 0 0-1.39-1.34l-5.74-1a1 1 0 0 1-.84-.89v5.37a1 1 0 0 0 .85.94l4.67.8 2.41-1.21a1.14 1.14 0 0 0 .48-1.55 7.6 7.6 0 0 1-.44-1.12m1.4-8.75a.9.9 0 0 0 .25.59l.31.33a2.3 2.3 0 0 0 .5-.38 12 12 0 0 1 1.45-1.29 1 1 0 0 0 .14-1.54L244 447a.87.87 0 0 1-.26-.59Zm12.62.68c-4.93 2-6.66 5.61-4.49 8.69a9.6 9.6 0 0 1 4.49-3.26c5.71-2.29 13.55-1.48 17.51 1.82a7.2 7.2 0 0 1 1.33 1.42c1.53-2.18 1.18-4.76-1.32-6.84-3.97-3.3-11.81-4.11-17.52-1.83" style="opacity:.1"/><path d="M265.22 471.29a1.9 1.9 0 0 0-.54.64l-1.32 2.55a1.83 1.83 0 0 1-1 .82v5.42a1.76 1.76 0 0 0 1-.81l1.32-2.56a2 2 0 0 1 .56-.62Zm18.12-.72a.77.77 0 0 1-.55.71l-5.26 2.11a2.4 2.4 0 0 1-1.38.05v5.42a2.4 2.4 0 0 0 1.38-.05l5.27-2.11a.75.75 0 0 0 .54-.7Zm-35-2.27-5.06 1.59a2.2 2.2 0 0 1-1.27 0v5.41a2.34 2.34 0 0 0 1.28 0l5.06-1.59Zm44.35-8.57a2 2 0 0 1-.06.32l-.91 2.91a1.61 1.61 0 0 1-1.52 1.07l-6-.24a2.4 2.4 0 0 0-.94.19v5.42a2.5 2.5 0 0 1 .94-.19l6 .24a1.6 1.6 0 0 0 1.52-1.06l.91-2.92a1 1 0 0 0 .05-.33Zm-3.18-8.73a.45.45 0 0 1-.05.19.52.52 0 0 1-.18.27 1.3 1.3 0 0 1-.26.19l-4.23 2.12a.8.8 0 0 0-.25.19 1 1 0 0 0-.29.44 1 1 0 0 0-.06.42 2 2 0 0 0 0 .22c0 .1.06.19.1.29a8 8 0 0 1 .43 1.13 2 2 0 0 0 1.4 1.35l1.06.17L289 457a.76.76 0 0 0 .47-.68Z" style="fill:#feda5e"/><path d="M265.22 471.29a1.9 1.9 0 0 0-.54.64l-1.32 2.55a1.83 1.83 0 0 1-1 .82v5.42a1.76 1.76 0 0 0 1-.81l1.32-2.56a2 2 0 0 1 .56-.62Zm18.12-.72a.77.77 0 0 1-.55.71l-5.26 2.11a2.4 2.4 0 0 1-1.38.05v5.42a2.4 2.4 0 0 0 1.38-.05l5.27-2.11a.75.75 0 0 0 .54-.7Zm-35-2.27-5.06 1.59a2.2 2.2 0 0 1-1.27 0v5.41a2.34 2.34 0 0 0 1.28 0l5.06-1.59Zm44.35-8.57a2 2 0 0 1-.06.32l-.91 2.91a1.61 1.61 0 0 1-1.52 1.07l-6-.24a2.4 2.4 0 0 0-.94.19v5.42a2.5 2.5 0 0 1 .94-.19l6 .24a1.6 1.6 0 0 0 1.52-1.06l.91-2.92a1 1 0 0 0 .05-.33Zm-3.18-8.73a.45.45 0 0 1-.05.19.52.52 0 0 1-.18.27 1.3 1.3 0 0 1-.26.19l-4.23 2.12a.8.8 0 0 0-.25.19 1 1 0 0 0-.29.44 1 1 0 0 0-.06.42 2 2 0 0 0 0 .22c0 .1.06.19.1.29a8 8 0 0 1 .43 1.13 2 2 0 0 0 1.4 1.35l1.06.17L289 457a.76.76 0 0 0 .47-.68Z" style="fill:#fff;opacity:.7000000000000001"/><path d="m283.79 447.13-5.13 1.6a3.54 3.54 0 0 1-2.18-.14 25 25 0 0 0-2.74-1 1.44 1.44 0 0 1-1-1.49l.3-2.5a1.14 1.14 0 0 0-1-1.28l-6.59-.69a1.84 1.84 0 0 0-1.7.92l-1.31 2.55a2.29 2.29 0 0 1-1.7 1.12 32 32 0 0 0-3.41.42 3.37 3.37 0 0 1-2.13-.43l-3.54-2.35a2.5 2.5 0 0 0-2.07-.21l-5.26 2.11A.74.74 0 0 0 244 447l2.39 2.54a1 1 0 0 1-.15 1.54 13 13 0 0 0-1.44 1.29 2.92 2.92 0 0 1-2 .82l-6-.24a1.64 1.64 0 0 0-1.52 1.07l-.91 2.91a1 1 0 0 0 .81 1.32l5.72 1a2 2 0 0 1 1.4 1.34 9 9 0 0 0 .43 1.14 1.13 1.13 0 0 1-.48 1.55l-4.23 2.12a.71.71 0 0 0-.14 1.28l3.36 2.8a2.42 2.42 0 0 0 2 .4l5.12-1.61a3.6 3.6 0 0 1 2.18.14 26 26 0 0 0 2.75 1 1.43 1.43 0 0 1 1 1.49l-.3 2.5a1.15 1.15 0 0 0 1 1.29l6.58.68a1.84 1.84 0 0 0 1.7-.92l1.31-2.55a2.3 2.3 0 0 1 1.71-1.11c1.14-.09 2.28-.23 3.41-.43a3.35 3.35 0 0 1 2.12.43l3.55 2.35a2.45 2.45 0 0 0 2.06.21l5.27-2.11a.73.73 0 0 0 .28-1.28l-2.39-2.55a1 1 0 0 1 .15-1.54 14 14 0 0 0 1.44-1.28 2.88 2.88 0 0 1 2-.83l6 .24a1.6 1.6 0 0 0 1.52-1.07l.91-2.91a1 1 0 0 0-.8-1.32l-5.73-1a2 2 0 0 1-1.4-1.34 7.6 7.6 0 0 0-.43-1.14 1.15 1.15 0 0 1 .48-1.55l4.27-2.07a.71.71 0 0 0 .15-1.27l-3.37-2.8a2.34 2.34 0 0 0-1.99-.4m-9.9 7.24c4 3.3 2.55 7.82-3.17 10.11s-13.55 1.47-17.51-1.83-2.54-7.82 3.17-10.11 13.55-1.47 17.51 1.83" style="fill:#feda5e"/><g style="opacity:.55"><path d="m283.79 447.13-5.13 1.6a3.54 3.54 0 0 1-2.18-.14 25 25 0 0 0-2.74-1 1.44 1.44 0 0 1-1-1.49l.3-2.5a1.14 1.14 0 0 0-1-1.28l-6.59-.69a1.84 1.84 0 0 0-1.7.92l-1.31 2.55a2.29 2.29 0 0 1-1.7 1.12 32 32 0 0 0-3.41.42 3.37 3.37 0 0 1-2.13-.43l-3.54-2.35a2.5 2.5 0 0 0-2.07-.21l-5.26 2.11A.74.74 0 0 0 244 447l2.39 2.54a1 1 0 0 1-.15 1.54 13 13 0 0 0-1.44 1.29 2.92 2.92 0 0 1-2 .82l-6-.24a1.64 1.64 0 0 0-1.52 1.07l-.91 2.91a1 1 0 0 0 .81 1.32l5.72 1a2 2 0 0 1 1.4 1.34 9 9 0 0 0 .43 1.14 1.13 1.13 0 0 1-.48 1.55l-4.23 2.12a.71.71 0 0 0-.14 1.28l3.36 2.8a2.42 2.42 0 0 0 2 .4l5.12-1.61a3.6 3.6 0 0 1 2.18.14 26 26 0 0 0 2.75 1 1.43 1.43 0 0 1 1 1.49l-.3 2.5a1.15 1.15 0 0 0 1 1.29l6.58.68a1.84 1.84 0 0 0 1.7-.92l1.31-2.55a2.3 2.3 0 0 1 1.71-1.11c1.14-.09 2.28-.23 3.41-.43a3.35 3.35 0 0 1 2.12.43l3.55 2.35a2.45 2.45 0 0 0 2.06.21l5.27-2.11a.73.73 0 0 0 .28-1.28l-2.39-2.55a1 1 0 0 1 .15-1.54 14 14 0 0 0 1.44-1.28 2.88 2.88 0 0 1 2-.83l6 .24a1.6 1.6 0 0 0 1.52-1.07l.91-2.91a1 1 0 0 0-.8-1.32l-5.73-1a2 2 0 0 1-1.4-1.34 7.6 7.6 0 0 0-.43-1.14 1.15 1.15 0 0 1 .48-1.55l4.27-2.07a.71.71 0 0 0 .15-1.27l-3.37-2.8a2.34 2.34 0 0 0-1.99-.4m-9.9 7.24c4 3.3 2.55 7.82-3.17 10.11s-13.55 1.47-17.51-1.83-2.54-7.82 3.17-10.11 13.55-1.47 17.51 1.83" style="fill:#fff"/><path d="M261.8 475.87h-.19l-6.58-.69a1.57 1.57 0 0 1-1.1-.59 1.62 1.62 0 0 1-.34-1.2l.31-2.5a1 1 0 0 0-.67-1 26 26 0 0 1-2.79-1 3.13 3.13 0 0 0-1.86-.12l-5.13 1.6a2.87 2.87 0 0 1-2.45-.48l-3.36-2.8a1.22 1.22 0 0 1-.49-1.09 1.24 1.24 0 0 1 .73-.95l4.22-2.12a.69.69 0 0 0 .27-.95 9 9 0 0 1-.45-1.2 1.54 1.54 0 0 0-1-1l-5.72-1a1.44 1.44 0 0 1-1-.68 1.48 1.48 0 0 1-.14-1.22l.91-2.92a2.09 2.09 0 0 1 2-1.39l6 .24a2.36 2.36 0 0 0 1.6-.69 15 15 0 0 1 1.49-1.32.68.68 0 0 0 .26-.44.54.54 0 0 0-.17-.42l-2.39-2.55a1.2 1.2 0 0 1 .45-2l5.27-2.11a3 3 0 0 1 2.49.26l3.55 2.35a2.9 2.9 0 0 0 1.79.36c1.12-.2 2.28-.34 3.45-.43a1.85 1.85 0 0 0 1.33-.87l1.31-2.55a2.33 2.33 0 0 1 2.16-1.17l6.59.69a1.58 1.58 0 0 1 1.09.6 1.6 1.6 0 0 1 .34 1.2l-.3 2.5a1 1 0 0 0 .66 1 28 28 0 0 1 2.8 1 3.1 3.1 0 0 0 1.85.12l5.13-1.6a2.86 2.86 0 0 1 2.45.48l3.36 2.8a1.16 1.16 0 0 1-.23 2l-4.3 2.11a.7.7 0 0 0-.27.95 8 8 0 0 1 .45 1.2 1.52 1.52 0 0 0 1 1l5.73 1a1.45 1.45 0 0 1 1 .68 1.43 1.43 0 0 1 .14 1.23l-.91 2.91a2.11 2.11 0 0 1-2 1.39l-6-.24a2.42 2.42 0 0 0-1.6.69 16 16 0 0 1-1.49 1.33.59.59 0 0 0-.25.43.52.52 0 0 0 .16.43l2.39 2.54a1.27 1.27 0 0 1 .36 1.15 1.25 1.25 0 0 1-.81.88l-5.27 2.11a3 3 0 0 1-2.49-.25l-3.54-2.36a2.9 2.9 0 0 0-1.79-.35c-1.12.19-2.29.34-3.46.43a1.85 1.85 0 0 0-1.33.86l-1.31 2.55a2.31 2.31 0 0 1-1.91 1.18m-12.53-8.15a4.1 4.1 0 0 1 1.54.29 25 25 0 0 0 2.69 1 1.91 1.91 0 0 1 1.31 2l-.3 2.5a.7.7 0 0 0 .14.51.7.7 0 0 0 .47.26l6.59.69a1.41 1.41 0 0 0 1.24-.68l1.31-2.55a2.73 2.73 0 0 1 2.08-1.36c1.14-.09 2.28-.23 3.37-.42a3.75 3.75 0 0 1 2.46.5l3.54 2.35a2.1 2.1 0 0 0 1.64.17l5.27-2.11c.14-.06.23-.14.25-.23a.4.4 0 0 0-.13-.32l-2.39-2.54a1.48 1.48 0 0 1-.41-1.13 1.53 1.53 0 0 1 .61-1.09 17 17 0 0 0 1.39-1.24 3.3 3.3 0 0 1 2.3-1l6 .24a1.13 1.13 0 0 0 1.06-.75l.91-2.91a.54.54 0 0 0 0-.47.58.58 0 0 0-.4-.25l-5.73-1a2.43 2.43 0 0 1-1.76-1.67 6.4 6.4 0 0 0-.41-1.07 1.6 1.6 0 0 1 .7-2.16l4.22-2.12c.14-.07.22-.15.23-.23a.35.35 0 0 0-.17-.28l-3.36-2.8a2 2 0 0 0-1.59-.31l-5.12 1.6a4 4 0 0 1-2.5-.16 26 26 0 0 0-2.7-1 1.9 1.9 0 0 1-1.31-2l.31-2.5a.7.7 0 0 0-.15-.52.68.68 0 0 0-.47-.26l-6.58-.68a1.38 1.38 0 0 0-1.25.67l-1.31 2.55a2.75 2.75 0 0 1-2.08 1.37 33 33 0 0 0-3.36.41 3.73 3.73 0 0 1-2.46-.49l-3.55-2.36a2 2 0 0 0-1.63-.16l-5.27 2.11a.36.36 0 0 0-.26.23.37.37 0 0 0 .14.31l2.39 2.54a1.5 1.5 0 0 1 .41 1.13 1.56 1.56 0 0 1-.61 1.09 14 14 0 0 0-1.4 1.25 3.32 3.32 0 0 1-2.29 1l-6-.24a1.16 1.16 0 0 0-1.07.75l-.91 2.91a.55.55 0 0 0 0 .47.56.56 0 0 0 .39.25l5.73 1a2.41 2.41 0 0 1 1.76 1.67 9 9 0 0 0 .41 1.07 1.6 1.6 0 0 1-.69 2.16l-4.23 2.12c-.13.07-.22.16-.23.24s.06.18.17.27l3.36 2.8a2 2 0 0 0 1.59.32l5.12-1.61a3.3 3.3 0 0 1 .98-.13m14.32-1.49c-4.11 0-8.15-1.13-10.67-3.22a5.69 5.69 0 0 1-2.36-5.23c.37-2.31 2.43-4.38 5.65-5.67 5.84-2.34 13.91-1.48 18 1.91a5.66 5.66 0 0 1 2.35 5.22c-.37 2.31-2.42 4.38-5.64 5.67a20 20 0 0 1-7.33 1.32m0-14.53a19 19 0 0 0-7 1.27c-2.91 1.17-4.76 3-5.08 5a4.73 4.73 0 0 0 2 4.37c3.84 3.19 11.48 4 17 1.75 2.92-1.16 4.77-3 5.08-4.95a4.73 4.73 0 0 0-2-4.38c-2.36-2-6.16-3.06-10.04-3.06Z" style="fill:#fff"/></g><path d="m234.71 41.09-1-2.63c-.14-.39-.58-.4-1 0l-2.8 2.79a1 1 0 0 1-1.26.2A4 4 0 0 0 228 41a1 1 0 0 1-.55-1.12l1-4.13c.11-.46-.21-.77-.71-.69l-2.37.37a1.71 1.71 0 0 0-1.23 1l-1.64 4.27a3.1 3.1 0 0 1-1.19 1.3c-.45.27-.9.57-1.36.9s-.95.32-1.15 0l-1.12-1.92c-.21-.36-.66-.32-1 .08l-3.1 3.53a1.9 1.9 0 0 0-.48 1.41l.63 2.73a2.4 2.4 0 0 1-.33 1.54c-.48.77-.92 1.57-1.33 2.37a2.5 2.5 0 0 1-1.31 1.1l-2.24.69a2 2 0 0 0-1.17 1.12l-1.48 4.71a.62.62 0 0 0 .62.85h1.89a.76.76 0 0 1 .78.84 18 18 0 0 0-.1 2 2.8 2.8 0 0 1-.55 1.56L205.82 69a1.69 1.69 0 0 0-.32 1.46l1 2.64c.15.39.58.39 1 0l2.8-2.79a1 1 0 0 1 1.27-.19 6 6 0 0 0 .69.41 1 1 0 0 1 .55 1.11l-1 4.14c-.12.46.2.77.7.69l2.38-.38a1.74 1.74 0 0 0 1.23-1l1.63-4.28a3.06 3.06 0 0 1 1.18-1.3 15 15 0 0 0 1.36-.9c.44-.32.95-.32 1.16 0l1.11 1.93c.21.35.67.32 1-.09l3.1-3.52a1.9 1.9 0 0 0 .47-1.48l-.64-2.72a2.38 2.38 0 0 1 .34-1.54c.47-.78.92-1.57 1.32-2.38a2.52 2.52 0 0 1 1.32-1.1l2.24-.69a2 2 0 0 0 1.15-1.02l1.48-4.72a.61.61 0 0 0-.62-.84h-1.9a.75.75 0 0 1-.77-.84 18 18 0 0 0 .09-2 2.9 2.9 0 0 1 .55-1.55l2.7-3.48a1.75 1.75 0 0 0 .32-1.48m-12.45 20.33c-3.37 3.82-7.06 4.4-8.25 1.3s.57-8.72 3.99-12.55 7.05-4.4 8.24-1.3-.62 8.73-3.98 12.55" style="fill:#ebebeb"/><path d="M178.64 77.42a1.27 1.27 0 0 1-.95-.38 1.2 1.2 0 0 1-.25-1.14l1.4-5.75a1 1 0 0 0-.52-1.05 6 6 0 0 1-1-.61 1 1 0 0 0-1.2.23l-3.92 3.88a1.45 1.45 0 0 1-1.31.49 1 1 0 0 1-.74-.66l-1.41-3.67a2.79 2.79 0 0 1 .51-2.45l3.75-4.83a3.56 3.56 0 0 0 .67-1.88 26 26 0 0 1 .13-2.88.6.6 0 0 0-.14-.47.65.65 0 0 0-.51-.21h-2.63a1.34 1.34 0 0 1-1.11-.53 1.36 1.36 0 0 1-.17-1.2l2.06-6.56a3.14 3.14 0 0 1 1.92-1.83l3.11-1a3.1 3.1 0 0 0 1.57-1.31c.57-1.13 1.19-2.25 1.86-3.33a3 3 0 0 0 .41-1.82l-.89-3.78a3.1 3.1 0 0 1 .75-2.44l4.31-4.9a1.54 1.54 0 0 1 1.28-.6 1.08 1.08 0 0 1 .83.56L188 30a.4.4 0 0 0 .23.16 1.1 1.1 0 0 0 .75-.24c.64-.46 1.28-.89 1.93-1.27a3.8 3.8 0 0 0 1.45-1.65l2.27-5.94a2.87 2.87 0 0 1 2.05-1.63L200 19a1.32 1.32 0 0 1 1.22.36 1.24 1.24 0 0 1 .25 1.13l-1.47 5.7a1 1 0 0 0 .53 1 6.4 6.4 0 0 1 1 .62 1 1 0 0 0 1.2-.24l3.89-3.87a1.44 1.44 0 0 1 1.3-.5 1 1 0 0 1 .75.67l1.4 3.66a2.77 2.77 0 0 1-.5 2.46l-3.75 4.82a3.6 3.6 0 0 0-.67 1.89 24 24 0 0 1-.14 2.88.6.6 0 0 0 .15.46.66.66 0 0 0 .51.22h2.63a1.39 1.39 0 0 1 1.11.53 1.34 1.34 0 0 1 .16 1.21l-2 6.55a3.18 3.18 0 0 1-1.92 1.84l-3.11 1a3 3 0 0 0-1.54 1.34c-.57 1.13-1.2 2.25-1.86 3.33a3 3 0 0 0-.41 1.81l.88 3.78a3.05 3.05 0 0 1-.74 2.44L194.55 69a1.57 1.57 0 0 1-1.28.59 1.08 1.08 0 0 1-.84-.55l-1.55-2.67a.3.3 0 0 0-.22-.16 1 1 0 0 0-.75.23c-.64.47-1.29.9-1.93 1.28a3.77 3.77 0 0 0-1.46 1.58l-2.26 6a2.83 2.83 0 0 1-2 1.62l-3.3.52a1.2 1.2 0 0 1-.32-.02m-1.76-9.91a1.6 1.6 0 0 1 .92.28 5.7 5.7 0 0 0 .89.53 1.84 1.84 0 0 1 1 2l-1.41 5.75a.39.39 0 0 0 .05.34.5.5 0 0 0 .45.09l3.29-.52a2 2 0 0 0 1.38-1.08l2.26-6a4.73 4.73 0 0 1 1.83-2 21 21 0 0 0 1.85-1.23 1.9 1.9 0 0 1 1.44-.38 1.16 1.16 0 0 1 .8.57l1.55 2.67a.22.22 0 0 0 .17.13.83.83 0 0 0 .55-.31l4.31-4.9a2.26 2.26 0 0 0 .55-1.67l-.88-3.78a3.7 3.7 0 0 1 .51-2.47 45 45 0 0 0 1.83-3.26 3.9 3.9 0 0 1 2.08-1.75l3.11-1a2.3 2.3 0 0 0 1.35-1.27l2.05-6.55a.47.47 0 0 0 0-.44.5.5 0 0 0-.42-.17h-2.63a1.55 1.55 0 0 1-1.15-.51 1.45 1.45 0 0 1-.36-1.13 24 24 0 0 0 .13-2.78 4.35 4.35 0 0 1 .86-2.43L209 29.5a1.92 1.92 0 0 0 .38-1.61l-1.4-3.66c-.05-.11-.1-.13-.12-.13a.7.7 0 0 0-.51.26l-3.89 3.88a1.84 1.84 0 0 1-2.32.32 4.8 4.8 0 0 0-.89-.53 1.83 1.83 0 0 1-1-2l1.41-5.75a.38.38 0 0 0-.05-.34.51.51 0 0 0-.45-.09l-3.3.52a2 2 0 0 0-1.37 1.08l-2.26 5.94a4.8 4.8 0 0 1-1.84 2c-.61.36-1.23.77-1.85 1.22a1.87 1.87 0 0 1-1.44.39 1.22 1.22 0 0 1-.79-.57l-1.56-2.68c-.06-.1-.12-.12-.17-.12s-.32.06-.54.3l-4.31 4.91a2.22 2.22 0 0 0-.55 1.66l.88 3.79a3.73 3.73 0 0 1-.51 2.47c-.66 1-1.27 2.15-1.83 3.26a4 4 0 0 1-2.09 1.75l-3.1 1a2.3 2.3 0 0 0-1.4 1.23l-2.06 6.56a.48.48 0 0 0 0 .43.49.49 0 0 0 .41.17h2.64a1.53 1.53 0 0 1 1.15.5 1.5 1.5 0 0 1 .36 1.14 22 22 0 0 0-.13 2.77 4.46 4.46 0 0 1-.86 2.44l-3.75 4.82a2 2 0 0 0-.37 1.61l1.4 3.67a.18.18 0 0 0 .12.13.7.7 0 0 0 .51-.27l3.89-3.87a2 2 0 0 1 1.44-.59m7.88-6.51a4.7 4.7 0 0 1-.85-.07 4.4 4.4 0 0 1-3.34-3c-1.7-4.45.79-12.46 5.55-17.88 3-3.37 6.29-5.11 8.86-4.65a4.37 4.37 0 0 1 3.33 3c1.71 4.44-.78 12.46-5.55 17.87-2.65 3.02-5.57 4.73-8 4.73m9.35-24.79c-2.17 0-4.85 1.61-7.34 4.44-4.57 5.19-7 12.81-5.39 17a3.55 3.55 0 0 0 2.68 2.43c2.27.41 5.29-1.22 8.05-4.37 4.58-5.2 7-12.82 5.39-17a3.54 3.54 0 0 0-2.68-2.44 4 4 0 0 0-.71-.06" style="fill:#e0e0e0"/><path d="m255.67 429.22 46.23-26.73c4.76-2.76 7.14-6.36 7.14-10v-6.43l-43.48-24.66a10.17 10.17 0 0 1-4.6-8v-57l-80.75 46.66v57a10.17 10.17 0 0 0 4.6 8l36.34 21.16c9.53 5.5 24.98 5.5 34.52 0" style="fill:#263238"/><path d="M199.6 410.18v6.41l-14.8-8.53a10.16 10.16 0 0 1-4.6-8v-57l15.39-8.87c.31 3.91.66 7.95 1 11.88l-10.79 6.24v44.53a10.11 10.11 0 0 0 4.6 8Z" style="opacity:.15"/><path d="M185.78 396.88a10.15 10.15 0 0 0 4.6 8l30.76 17.94c9.54 5.5 25 5.5 34.52 0l46.26-26.73c9.53-5.5 9.53-14.42 0-19.92l-30.79-17.95a10.18 10.18 0 0 1-4.6-8v-44.54l-80.75 46.66Z" style="fill:#455a64"/><path d="m280.51 363.61-9.38-5.41a10.18 10.18 0 0 1-4.6-8v-44.52l-80.75 46.66v44.54a10.15 10.15 0 0 0 4.6 8l9.21 5.32Z" style="opacity:.15"/><path d="M96.89 430.65c3 1.72 8 1.62 11.14-.21 39.7-22.92 222.25-128.34 262-151.25a12.75 12.75 0 0 0 5.75-10v-242c0-3.67-2.42-8-5.4-9.76s-8-1.62-11.15.21L97.25 168.88a12.73 12.73 0 0 0-5.76 10v242c0 3.68 2.42 8.05 5.4 9.77" style="fill:#455a64"/><path d="m108 430.43 262-151.25a12.72 12.72 0 0 0 5.75-10v-242c0-3.66-2.58-5.15-5.75-3.32L108 175.11a12.69 12.69 0 0 0-5.75 10v242c.03 3.67 2.61 5.16 5.75 3.32" style="fill:#37474f"/><path d="M102.28 407.54v19.57c0 3.67 2.58 5.16 5.76 3.32L370 279.18a12.72 12.72 0 0 0 5.75-10v-19.53Z" style="fill:#455a64"/><path d="M109.89 389.34V187.63a7.79 7.79 0 0 1 3.54-6.12l251.15-145c1.95-1.13 3.54-.21 3.54 2v201.72a7.83 7.83 0 0 1-3.54 6.13l-251.17 145c-1.94 1.15-3.52.23-3.52-2.02m-16.7-216.18 10.81 6.22a12.2 12.2 0 0 0-1.71 5.68v242.05c0 3.35 2.27 5.22 5.75 3.33a12.21 12.21 0 0 1-11.14.21 11.08 11.08 0 0 1-5.4-9.07V178.85a11.9 11.9 0 0 1 1.69-5.69" style="fill:#263238"/><path d="m235.83 341.36 13-7.47c1.17-.67 2.11-.19 2.11 1.07a4.52 4.52 0 0 1-2.1 3.5l-13 7.47c-1.16.67-2.11.2-2.11-1.07a4.53 4.53 0 0 1 2.1-3.5" style="fill:#feda5e"/><path d="M125.52 381.25a4.36 4.36 0 0 1-2 .62 5.13 5.13 0 0 1-3-.52 5.59 5.59 0 0 1-2.45-4.43V219.2l4.91 2.83v157.71c0 1.19.59 1.87 1.45 1.87a2.6 2.6 0 0 0 1.09-.36" style="fill:#e6e6e6"/><path d="M124.36 381c-.75 0-.83-.87-.83-1.25V205.41L363.1 67.09v173.63a5.16 5.16 0 0 1-2.3 4l-235.59 136a1.74 1.74 0 0 1-.85.28" style="fill:#fafafa"/><path d="M362.49 68.16v172.56a4.55 4.55 0 0 1-2 3.46l-235.6 136a1.1 1.1 0 0 1-.54.19c-.21 0-.21-.63-.21-.64v-174zm1.23-2.16-240.8 139v174.74c0 1.19.59 1.87 1.44 1.87a2.4 2.4 0 0 0 1.16-.36l235.59-136a5.75 5.75 0 0 0 2.61-4.52z" style="fill:#ebebeb"/><path d="M120.46 213.09a5.61 5.61 0 0 1-2.45-4.43v-20.38a5.76 5.76 0 0 1 2.61-4.52l235.59-136a4.91 4.91 0 0 1 7.51 4.34v20.36a5.76 5.76 0 0 1-2.61 4.54L125.52 213a5.61 5.61 0 0 1-5.06.09" style="fill:#feda5e"/><path d="M363.69 51.65c-.18-1.35-1.28-1.84-2.58-1.08l-235.59 136a5.5 5.5 0 0 0-1.84 1.95l-4.9-2.83a5.4 5.4 0 0 1 1.84-1.94l235.59-136a4.87 4.87 0 0 1 7.48 3.9" style="fill:#fff;opacity:.30000000000000004"/><path d="M123.68 188.53a5.2 5.2 0 0 0-.76 2.57V222l-4.92-2.8v-31.24a6 6 0 0 1 .1-.65 6.2 6.2 0 0 1 .66-1.61Z" style="opacity:.2"/><path d="M363.72 52.08V66l-161.47 93.34c-1.43.83-2.6.15-2.6-1.51v-5.28c0-1.67-1.17-2.34-2.62-1.51l-61.71 35.54a5.78 5.78 0 0 0-2.61 4.52v5.28a5.76 5.76 0 0 1-2.61 4.52l-7.18 4.15v-14a5.79 5.79 0 0 1 2.6-4.52l235.59-136c1.44-.79 2.61-.12 2.61 1.55" style="fill:#feda5e"/><path d="M356.24 59.56c1.1-.64 2-.12 2 1.16a4.42 4.42 0 0 1-2 3.46c-1.11.64-2 .12-2-1.15a4.42 4.42 0 0 1 2-3.47M349 63.72c1.1-.64 2-.13 2 1.15a4.44 4.44 0 0 1-2 3.47c-1.11.64-2 .12-2-1.16a4.41 4.41 0 0 1 2-3.46m-7.18 4.15c1.1-.64 2-.12 2 1.16a4.44 4.44 0 0 1-2 3.47c-1.11.64-2 .12-2-1.16a4.42 4.42 0 0 1 2-3.47" style="fill:#fff"/><path d="M363.72 66v17l-240.8 139v-17l5.36-3.11c1.44-.83 1.92-2.09 2.61-4.52l1.82-6.32c.57-2.19 1.17-3.69 2.61-4.52L196 151.65c1.45-.83 2.58-.92 3.68.9l2.23 4c.82 1.41 1.23 2.25 2.66 1.42Zm-240.8 139.05v16.98l-4.91-2.83v-16.97z" style="fill:#e0e0e0"/><path d="M122.92 205.05v16.98l-4.91-2.83v-16.97zm11.97 1.23-4.1 2.36 1.57-3a.78.78 0 0 0 0-.74c-.12-.14-.33 0-.47.22l-2.22 4.28-.06.16a2 2 0 0 0 0 .22 1 1 0 0 0 0 .19l.06.09 2.22 1.7a.18.18 0 0 0 .22 0 .7.7 0 0 0 .25-.31c.12-.28.1-.6 0-.7l-1.57-1.2 4.1-2.37a.87.87 0 0 0 .33-.7c0-.17-.15-.31-.33-.2m3.43-1.98 4.09-2.37-1.56-1.2c-.14-.1-.15-.41 0-.7s.33-.42.46-.31l2.23 1.71a.15.15 0 0 1 .06.09.5.5 0 0 1 0 .18 1 1 0 0 1 0 .23v.05a.5.5 0 0 1-.06.16l-2.23 4.28a.6.6 0 0 1-.21.25.19.19 0 0 1-.25 0 .75.75 0 0 1 0-.74l1.56-3-4.09 2.37c-.19.1-.33 0-.33-.32a.86.86 0 0 1 .33-.68m13.44-11.8c0-.25-.24-.22-.35.05l-.56 1.37c-1-.1-2.12.83-2.9 2.49-1 2.15-1 4.69 0 5.67a1.45 1.45 0 0 0 1.84.11 5.06 5.06 0 0 0 1.84-2.23.7.7 0 0 0 0-.72c-.13-.13-.34 0-.47.27-.75 1.6-2 2.31-2.75 1.58s-.75-2.62 0-4.23c.54-1.14 1.32-1.82 2-1.86l-.43 1c-.11.27 0 .52.17.4l1.67-1.09a.55.55 0 0 0 .19-.46Zm42.41-33.1 1.5-3.16a1 1 0 0 0 0-1c-.18-.17-.47 0-.64.37l-1.5 3.17-1.53-1.43c-.18-.17-.46 0-.64.37a.94.94 0 0 0 0 1l1.49 1.44-1.49 3.16a1 1 0 0 0 0 1 .27.27 0 0 0 .32 0 .86.86 0 0 0 .32-.39l1.49-3.16 1.5 1.43a.24.24 0 0 0 .32 0 .87.87 0 0 0 .32-.39 1 1 0 0 0 0-1Z" style="opacity:.15"/><path d="M157.2 196.39v-5.29a5.78 5.78 0 0 1 2.61-4.52L346.42 78.91c1.44-.83 2.61-.16 2.61 1.51v5.28a5.74 5.74 0 0 1-2.62 4.52l-186.6 107.67c-1.44.84-2.61.16-2.61-1.5" style="fill:#fafafa"/><path d="M342.86 90.63a.6.6 0 0 1-.23 0 .69.69 0 0 1-.39-.79l.25-2.14-1-.72a.73.73 0 0 1-.28-.59 1.2 1.2 0 0 1 .43-.91l1.53-1.18a.25.25 0 0 0 .07-.12l.69-2.25a.94.94 0 0 1 .77-.73.61.61 0 0 1 .6.36l.58 1.22 1.29-.49a.61.61 0 0 1 .7.16.94.94 0 0 1 0 1l-1.11 2.08a.4.4 0 0 0 0 .13l.26 1.89a1.17 1.17 0 0 1-.32.94.71.71 0 0 1-.61.23l-1.25-.15-1.36 1.72a.76.76 0 0 1-.62.34m-.74-4.36 1 .72a.79.79 0 0 1 .27.73l-.17 1.42.9-1.15a.71.71 0 0 1 .69-.33l1.25.15a.34.34 0 0 0 .05-.14l-.26-1.89a1.15 1.15 0 0 1 .13-.67l1-1.82-1 .38a.61.61 0 0 1-.79-.32l-.45-1-.61 2a1.1 1.1 0 0 1-.38.57l-1.54 1.19a.4.4 0 0 0-.09.16m3.52-3.44" style="fill:#e0e0e0"/><path d="M352.1 78.27a.91.91 0 0 1-.45-1.69l7.35-4.24a.9.9 0 1 1 .9 1.56l-7.34 4.25a1 1 0 0 1-.46.12m0 4.24a.9.9 0 0 1-.78-.45.91.91 0 0 1 .33-1.24l7.35-4.24a.9.9 0 0 1 1.23.33.91.91 0 0 1-.33 1.24l-7.34 4.24a1 1 0 0 1-.46.12m0 4.24a.9.9 0 0 1-.45-1.68l7.35-4.24a.88.88 0 0 1 1.23.33.9.9 0 0 1-.33 1.23l-7.34 4.24a.86.86 0 0 1-.46.12" style="opacity:.15"/><path d="M151.92 216.19v-1.43a2.72 2.72 0 0 1 1.23-2.13l36.95-21.31c.68-.39 1.24-.08 1.24.71v1.43a2.74 2.74 0 0 1-1.23 2.14l-36.95 21.3c-.69.4-1.24.1-1.24-.71" style="fill:#e0e0e0"/><path d="m147.9 218.71-.11.07a5 5 0 0 0 .05-.66c0-1.77-1.08-2.58-2.4-1.82a4.65 4.65 0 0 0-1.61 1.75c-.06-2.13-1.39-3.1-3-2.15a7.28 7.28 0 0 0-3 5.81 4.4 4.4 0 0 0 .06.74l-.21.12a4.62 4.62 0 0 0-1.94 3.69c0 1.42.87 2.11 1.94 1.49l2.81-1.62 7.48-4.32a2.77 2.77 0 0 0 1.16-2.22c-.07-.85-.58-1.25-1.23-.88" style="fill:#feda5e"/><path d="M309.39 125.22h-.53s-.06 0-.06-.11a3 3 0 0 0 0-.44.3.3 0 0 1 0-.19l.52-.74a.18.18 0 0 0 0-.16l-.26-.56s-.07-.07-.1 0l-.58.62a.09.09 0 0 1-.12 0 .64.64 0 0 0-.25-.15.12.12 0 0 1 0-.13l.13-.83c0-.06 0-.11-.05-.1l-.62.07s-.08 0-.09.1l-.26.87a.18.18 0 0 1-.09.13 3 3 0 0 0-.39.26s-.08 0-.11 0l-.29-.44a.06.06 0 0 0-.1 0l-.61.75a.2.2 0 0 0 0 .16l.18.57a.22.22 0 0 1 0 .18c-.09.18-.18.36-.26.54a.18.18 0 0 1-.1.11l-.58.16a.16.16 0 0 0-.09.12l-.21.94v.11h.53s.07 0 .06.11 0 .3 0 .44a.27.27 0 0 1 0 .18l-.52.74a.17.17 0 0 0 0 .17l.25.56c0 .05.07.06.1 0l.58-.61a.09.09 0 0 1 .12 0 1.3 1.3 0 0 0 .25.15.12.12 0 0 1 .05.13l-.12.83c0 .06 0 .11.05.1l.61-.07a.16.16 0 0 0 .1-.11l.25-.87a.24.24 0 0 1 .09-.12 3 3 0 0 0 .39-.26s.08 0 .11 0l.29.44h.1l.61-.75a.19.19 0 0 0 0-.17l-.18-.56a.3.3 0 0 1 0-.19 4.5 4.5 0 0 0 .26-.54.16.16 0 0 1 .1-.1l.58-.16a.16.16 0 0 0 .09-.12l.21-1s0-.06-.04-.06m-1.45.74c-.19.86-.81 1.61-1.37 1.68s-.86-.58-.67-1.44.81-1.61 1.37-1.68.86.58.67 1.48Zm15.68-9.45v-1c0-1.09-.67-1.6-1.49-1.12a3.57 3.57 0 0 0-1.49 2.85v.85a3.44 3.44 0 0 1-.5 1.68.87.87 0 0 0-.13.44c0 .27.17.4.38.28l3.48-2a.89.89 0 0 0 .37-.72.35.35 0 0 0-.11-.29 1 1 0 0 1-.51-.97m-.78 2.9a1.73 1.73 0 0 1-.71 1.37c-.4.22-.72 0-.72-.55Zm26.82-19.72 4.66-2.69a.78.78 0 0 0 .33-.63c0-.24-.14-.36-.33-.25l-4.66 2.69a.81.81 0 0 0-.33.63c0 .24.15.36.33.25m0 2.13 4.66-2.7a.75.75 0 0 0 .33-.62c0-.25-.14-.36-.33-.25l-4.66 2.69a.79.79 0 0 0-.33.63c0 .24.15.35.33.25m0 2.12 4.66-2.69a.77.77 0 0 0 .33-.63c0-.24-.14-.35-.33-.25l-4.66 2.7a.78.78 0 0 0-.33.63c0 .24.15.35.33.24m-12.41 4.91-3.11-1.66 6.58-3.79-3.11 5.25c-.11.18-.25.26-.36.2" style="fill:#e0e0e0"/><path d="m337.63 109.72 3.09-6.1v6.3l-6.58 3.79v-6.29l3.09 2.53c.11.1.29.05.4-.23m21.89-.28a.5.5 0 0 0-.68-.18L127.3 242.93a.51.51 0 0 0-.18.69.5.5 0 0 0 .43.25.6.6 0 0 0 .25-.07l231.54-133.68a.5.5 0 0 0 .18-.68" style="fill:#e0e0e0"/><path d="M138.5 244.78q1.13-.65 1.71-.18a2.35 2.35 0 0 1 .59 1.89 5.9 5.9 0 0 1-.3 1.9 4.9 4.9 0 0 1-.89 1.57l1.24 2.71a.3.3 0 0 1 0 .14.5.5 0 0 1-.06.24.45.45 0 0 1-.14.18l-.77.44c-.11.07-.2.07-.26 0a.44.44 0 0 1-.12-.17l-1.15-2.5-1.2.69v3.23a.66.66 0 0 1-.07.3.54.54 0 0 1-.17.21l-.73.42a.12.12 0 0 1-.17 0 .28.28 0 0 1-.07-.22v-9a.7.7 0 0 1 .07-.31.46.46 0 0 1 .17-.21Zm-1.35 5.15 1.31-.76a2.4 2.4 0 0 0 .82-.75 2.2 2.2 0 0 0 .3-1.23c0-.51-.1-.8-.3-.86a1.1 1.1 0 0 0-.82.21l-1.31.75Zm9.01-1.6a.12.12 0 0 1 .17 0 .3.3 0 0 1 .07.22v1a.66.66 0 0 1-.07.3.46.46 0 0 1-.17.21l-3.95 2.28a.12.12 0 0 1-.17 0 .3.3 0 0 1-.07-.22v-9a.7.7 0 0 1 .07-.31.46.46 0 0 1 .17-.21l3.88-2.24a.13.13 0 0 1 .17 0 .32.32 0 0 1 .07.23v1a.7.7 0 0 1-.07.31.4.4 0 0 1-.17.2l-2.91 1.68V246l2.71-1.57a.13.13 0 0 1 .17 0 .32.32 0 0 1 .07.23v1a.7.7 0 0 1-.07.31.4.4 0 0 1-.17.2l-2.71 1.57v2.3Zm4.01-10.33c.73-.42 1.3-.48 1.7-.18s.6.95.6 2a5.7 5.7 0 0 1-.6 2.68 4.3 4.3 0 0 1-1.7 1.78l-1.43.83v3.09a.7.7 0 0 1-.08.3.34.34 0 0 1-.17.21l-.73.43a.14.14 0 0 1-.17 0 .28.28 0 0 1-.07-.22v-9a.66.66 0 0 1 .07-.3.42.42 0 0 1 .17-.21Zm-1.43 5.34 1.39-.81a2.36 2.36 0 0 0 .82-.78 2.4 2.4 0 0 0 .3-1.27c0-.51-.1-.81-.3-.89a1 1 0 0 0-.82.17l-1.39.81Zm4.5-3.45a8.4 8.4 0 0 1 .19-1.57 6.5 6.5 0 0 1 .49-1.47 5.3 5.3 0 0 1 .81-1.28 4.5 4.5 0 0 1 1.15-1 2.3 2.3 0 0 1 1.14-.37 1.12 1.12 0 0 1 .81.34 2.16 2.16 0 0 1 .5.9 5.8 5.8 0 0 1 .2 1.36v2.48a9 9 0 0 1-.2 1.57 6.6 6.6 0 0 1-.49 1.48 5.2 5.2 0 0 1-.81 1.26 4.2 4.2 0 0 1-1.15 1 2.3 2.3 0 0 1-1.15.37 1.15 1.15 0 0 1-.81-.33 1.93 1.93 0 0 1-.49-.91 5.4 5.4 0 0 1-.19-1.35v-1.89c-.02-.21-.01-.41 0-.59m4.07-2.28a1.72 1.72 0 0 0-.42-1.3c-.25-.22-.59-.21-1 0a2.6 2.6 0 0 0-1 1.14 4.1 4.1 0 0 0-.42 1.78v2.34a1.72 1.72 0 0 0 .42 1.3c.25.21.59.2 1 0a2.6 2.6 0 0 0 1-1.13 4.1 4.1 0 0 0 .42-1.78v-1.18c0-.43.01-.78 0-1.17m4.97-6.55c.75-.44 1.32-.5 1.71-.19a2.35 2.35 0 0 1 .59 1.89 5.9 5.9 0 0 1-.31 1.9 4.7 4.7 0 0 1-.88 1.58l1.24 2.7a.4.4 0 0 1 0 .14.6.6 0 0 1-.06.25.4.4 0 0 1-.14.17l-.77.44c-.12.07-.21.08-.26 0a.4.4 0 0 1-.12-.17l-1.18-2.55-1.2.69v3.23a.66.66 0 0 1-.07.3.42.42 0 0 1-.17.21l-.73.43h-.17a.28.28 0 0 1-.08-.22v-9a.7.7 0 0 1 .08-.3.34.34 0 0 1 .17-.21Zm-1.35 5.14 1.31-.75a2.44 2.44 0 0 0 .81-.75 2.16 2.16 0 0 0 .31-1.23c0-.52-.1-.81-.31-.87a1.2 1.2 0 0 0-.81.21l-1.31.76Zm8.95-9.53a.14.14 0 0 1 .17 0 .3.3 0 0 1 .07.22v1a.66.66 0 0 1-.07.3.54.54 0 0 1-.17.21l-1.62.94v7.59a.7.7 0 0 1-.08.3.34.34 0 0 1-.17.21l-.73.43a.14.14 0 0 1-.17 0 .32.32 0 0 1-.07-.22V230l-1.62.93a.12.12 0 0 1-.17 0 .28.28 0 0 1-.07-.22v-1a.7.7 0 0 1 .07-.31.54.54 0 0 1 .17-.21Z" style="fill:#455a64"/><path d="m175.86 223.54 178.79-103.15.06 9.41-178.86 103.12z" style="fill:#feda5e"/><path d="M143.36 266.75a1 1 0 0 1-.5-1.87l113.74-65.66a1 1 0 0 1 1.36.36 1 1 0 0 1-.36 1.37l-113.74 65.66a1 1 0 0 1-.5.14m-8.13 12.79a1 1 0 0 1-.5-1.87l121.87-70.35a1 1 0 0 1 1 1.73l-121.87 70.36a1 1 0 0 1-.5.13m0 8.1a1 1 0 0 1-.5-1.86l121.87-70.36a1 1 0 0 1 1 1.73l-121.87 70.36a1 1 0 0 1-.5.13m0 8.1a1 1 0 0 1-.86-.5 1 1 0 0 1 .36-1.36l121.87-70.36a1 1 0 0 1 1 1.73l-121.87 70.36a1 1 0 0 1-.5.13m0 8.11a1 1 0 0 1-.86-.5 1 1 0 0 1 .36-1.37l121.87-70.36a1 1 0 0 1 1 1.74l-121.87 70.35a1 1 0 0 1-.5.14m0 8.15a1 1 0 0 1-.86-.5 1 1 0 0 1 .36-1.37l121.87-70.4a1 1 0 0 1 1.36.36 1 1 0 0 1-.36 1.37l-121.87 70.35a1 1 0 0 1-.5.19m0 8.05a1 1 0 0 1-.86-.5 1 1 0 0 1 .36-1.37l121.87-70.35a1 1 0 0 1 1.36.36 1 1 0 0 1-.36 1.37l-121.87 70.35a.9.9 0 0 1-.5.14m8.13 11.51a1 1 0 0 1-.5-1.87L256.6 264a1 1 0 0 1 1 1.73l-113.74 65.7a1 1 0 0 1-.5.13m-8.12 12.79a1 1 0 0 1-.51-1.86l121.87-70.36a1 1 0 0 1 1 1.73l-121.87 70.36a1 1 0 0 1-.49.13m0 8.1a1 1 0 0 1-.87-.5 1 1 0 0 1 .36-1.36l121.87-70.36a1 1 0 0 1 1 1.73l-121.87 70.36a1 1 0 0 1-.49.13m0 8.11a1 1 0 0 1-.5-1.87l121.86-70.36a1 1 0 0 1 1 1.74l-121.86 70.35a1 1 0 0 1-.5.14" style="fill:#e0e0e0"/><path d="m269.89 280.89 1.31.75a2.56 2.56 0 0 0 2.32 0L353 235.78a2.57 2.57 0 0 0 1.16-2v-87.55a2.57 2.57 0 0 0-1.16-2l-1.31-.76a2.56 2.56 0 0 0-2.32 0l-79.44 45.87a2.57 2.57 0 0 0-1.16 2v87.53a2.57 2.57 0 0 0 1.12 2.02" style="fill:#f0f0f0"/><path d="M273.52 281.64 353 235.78a2.57 2.57 0 0 0 1.16-2v-87.55c0-.74-.52-1-1.16-.67l-79.44 45.87a2.57 2.57 0 0 0-1.16 2V281c-.04.71.48 1 1.12.64" style="fill:#fff"/><path d="M273 282a.8.8 0 0 1-.41-.11 1 1 0 0 1-.45-.95v-87.5a2.8 2.8 0 0 1 1.27-2.21l79.44-45.86a1 1 0 0 1 1-.08 1 1 0 0 1 .45.94v87.54a2.76 2.76 0 0 1-1.28 2.2l-79.44 45.87a1.3 1.3 0 0 1-.58.16m80.48-136.4a.8.8 0 0 0-.41.13l-79.44 45.86a2.36 2.36 0 0 0-1.05 1.82V281a.63.63 0 0 0 .23.56.62.62 0 0 0 .6-.08l79.44-45.87a2.34 2.34 0 0 0 1-1.81v-87.57a.62.62 0 0 0-.23-.56.4.4 0 0 0-.14-.04Z" style="fill:#e0e0e0"/><path d="M273.35 281.73a2.6 2.6 0 0 1-2.15-.09l-1.31-.75a2.59 2.59 0 0 1-1.16-2v-87.55a2.4 2.4 0 0 1 .34-1.15l3.63 2.1a2.4 2.4 0 0 0-.34 1.15V281c0 .65.43 1 .99.73" style="fill:#e0e0e0"/><path d="M332.68 238.64v-47.72l-4.26-2.46v47.72z" style="fill:#feda5e"/><path d="M332.68 238.64v-47.72l-4.26-2.46v47.72z" style="opacity:.2"/><path d="m332.68 238.64 12.36-7.14v-47.72l-12.36 7.14z" style="fill:#feda5e"/><path d="m345.04 183.78-4.26-2.46-12.36 7.14 4.26 2.46z" style="fill:#feda5e"/><path d="m345.04 183.78-4.26-2.46-12.36 7.14 4.26 2.46z" style="fill:#fff;opacity:.25"/><path d="m345 183.78-12.36 6.95-4.26-2.27 4.09 2.72c-.1 1.4 0 46 .17 47.46.18-1.42.26-46.16.17-47.5Z" style="fill:#fff;opacity:.30000000000000004"/><path d="m309.51 252.02-.01-38.33-4.25-2.46v38.33z" style="fill:#feda5e"/><path d="m309.51 252.02-.01-38.33-4.25-2.46v38.33z" style="fill:#fff;opacity:.1"/><path d="m309.51 252.02 12.36-7.14v-38.33l-12.37 7.14z" style="fill:#feda5e"/><path d="m309.51 252.02 12.36-7.14v-38.33l-12.37 7.14z" style="fill:#fff;opacity:.30000000000000004"/><path d="m321.87 206.55-4.26-2.46-12.36 7.14 4.25 2.46z" style="fill:#feda5e"/><path d="m321.87 206.55-4.26-2.46-12.36 7.14 4.25 2.46z" style="fill:#fff;opacity:.55"/><path d="m309.67 213.78 12.2-7.23-12.36 6.95c-1.35-.76-4.26-2.27-4.26-2.27s2.72 1.74 4.09 2.54c0 1.45.07 36.77.17 38.25.09-1.48.2-36.84.16-38.24" style="fill:#fff;opacity:.30000000000000004"/><path d="M286.33 265.39v-32.17l-4.26-2.46.01 32.18z" style="fill:#feda5e"/><path d="M286.33 265.39v-32.17l-4.26-2.46.01 32.18z" style="opacity:.45"/><path d="m286.33 265.39 12.36-7.13v-32.17l-12.36 7.13z" style="fill:#feda5e"/><path d="m286.33 265.39 12.36-7.13v-32.17l-12.36 7.13z" style="opacity:.30000000000000004"/><path d="m298.69 226.09-4.25-2.46-12.37 7.13 4.26 2.46z" style="fill:#feda5e"/><path d="m298.69 226.09-4.25-2.46-12.37 7.13 4.26 2.46z" style="opacity:.15"/><path d="M298.7 226.08 286.33 233l-4.26-2.27 4.09 2.67s0 31.09.17 32c.19-.87.19-31.95.19-31.95Z" style="fill:#fff;opacity:.30000000000000004"/><path d="m343.99 162.9-1.09-.64-9.49 3.41 2.1 1.96-26.84 28.66-5.6-5.28-1.09-.63-20.95 22.37 2.51 2.35 1.1.64 18.24-19.48 5.21 4.79 1.64.95 29.18-31.15 1.21 1.09 1.09.64z" style="fill:#feda5e"/><path d="m343.99 162.9-1.09-.64-9.49 3.41 2.1 1.96-26.84 28.66-5.6-5.28-1.09-.63-20.95 22.37 2.51 2.35 1.1.64 18.24-19.48 5.21 4.79 1.64.95 29.18-31.15 1.21 1.09 1.09.64z" style="fill:#fff;opacity:.25"/><path d="m343.99 162.9-2.78 9.68-2.09-1.96L309.73 202l-6.5-6.12-18.59 19.86-2.52-2.36 20.95-22.37 6.5 6.12 27.03-28.86-2.09-1.96z" style="fill:#feda5e"/><path d="m303.23 195.88-.35.38 5.21 4.79 1.64.95z" style="fill:#feda5e"/><path d="m303.23 195.88-.35.38 5.21 4.79 1.64.95z" style="opacity:.2"/><path d="m335.51 167.63 1.09.64-2.09-1.96-1.1-.64z" style="fill:#feda5e"/><path d="m335.51 167.63 1.09.64-2.09-1.96-1.1-.64z" style="opacity:.2"/><path d="m338.91 170.85.21-.23 2.09 1.96-1.09-.64z" style="fill:#feda5e"/><path d="m338.91 170.85.21-.23 2.09 1.96-1.09-.64z" style="opacity:.2"/><path d="m281.03 212.75 1.09.63 2.52 2.36-1.1-.64z" style="fill:#feda5e"/><path d="m281.03 212.75 1.09.63 2.52 2.36-1.1-.64z" style="opacity:.2"/><path d="m289.03 206.01 14.04-14.53 6.5 5.65-6.5-6.12zm32.92-22.1 14.97-15.64-2.02-1.87 9.09-3.5-9.48 3.41 2.09 1.96z" style="fill:#fff;opacity:.5"/><path d="M244.13 243.77v-3.91c0-2.78-1.95-3.9-4.36-2.51l-96.87 55.94a9.63 9.63 0 0 0-4.36 7.55v153.74c0 2 1 3.11 2.41 3.11a4 4 0 0 0 2-.59l96.88-56a9.65 9.65 0 0 0 4.35-7.55Z" style="opacity:.15"/><path d="m253 248.94-6.23-3.63-104.11 61.85V457a3.08 3.08 0 0 0 1.27 2.82l4.74 2.76a3.08 3.08 0 0 0 3.09-.31l96.88-55.95a9.65 9.65 0 0 0 4.35-7.55Z" style="fill:#e6e6e6"/><path d="m143.93 459.82 4.74 2.76a2.27 2.27 0 0 0 1.14.28l-2.41-3.1V309.92l-4.75-2.76V457a3.08 3.08 0 0 0 1.28 2.82" style="opacity:.15"/><path d="M149.82 462.36a3.5 3.5 0 0 0 1.69-.52l96.88-55.95a9.08 9.08 0 0 0 4.11-7.11v-149l-104.59 60.4v149.58c0 1.63.71 2.6 1.91 2.6" style="fill:#fafafa"/><path d="M252 250.68v148.09a8.67 8.67 0 0 1-3.86 6.68l-96.88 55.95a3 3 0 0 1-1.44.46c-1.27 0-1.4-1.47-1.4-2.1V310.5zm1-1.74-105.59 61v149.82c0 2 1 3.11 2.41 3.11a3.9 3.9 0 0 0 2-.6l96.88-55.95a9.65 9.65 0 0 0 4.35-7.55V248.94Z" style="fill:#e0e0e0"/><path d="M247 239.48a3 3 0 0 0-3.12.28L147 295.71a9.63 9.63 0 0 0-4.36 7.55v3.9l4.75 2.76 105.59-61V245a3.07 3.07 0 0 0-1.26-2.81c-.72-.4-3.99-2.27-4.72-2.71" style="fill:#feda5e"/><path d="M147.41 306a9.63 9.63 0 0 1 4.36-7.54l96.87-56c2.41-1.39 4.36-.27 4.36 2.51v3.91l-105.59 61Z" style="fill:#feda5e"/><path d="M147.41 306a9.63 9.63 0 0 1 4.36-7.54l96.87-56c2.41-1.39 4.36-.27 4.36 2.51v3.91l-105.59 61Z" style="fill:#fff;opacity:.30000000000000004"/><path d="M251.78 242.25a3 3 0 0 0-3.14.27l-96.87 56a8.8 8.8 0 0 0-3.08 3.25l-4.76-2.77a9.1 9.1 0 0 1 3.09-3.26l96.88-55.95a3 3 0 0 1 3.12-.27c.71.43 4 2.31 4.72 2.73Z" style="fill:#feda5e"/><path d="M251.78 242.25a3 3 0 0 0-3.14.27l-96.87 56a8.8 8.8 0 0 0-3.08 3.25l-4.76-2.77a9.1 9.1 0 0 1 3.09-3.26l96.88-55.95a3 3 0 0 1 3.12-.27c.71.43 4 2.31 4.72 2.73Z" style="fill:#fff;opacity:.45"/><path d="M237.79 251.8a3.38 3.38 0 0 0-1.52 2.64c0 1 .68 1.36 1.52.87a3.35 3.35 0 0 0 1.52-2.63c0-.97-.68-1.36-1.52-.88m5.32-3.07a3.38 3.38 0 0 0-1.52 2.64c0 1 .68 1.36 1.52.88a3.38 3.38 0 0 0 1.52-2.64c0-.97-.63-1.36-1.52-.88m5.33-3.06a3.36 3.36 0 0 0-1.53 2.63c0 1 .69 1.37 1.53.88a3.35 3.35 0 0 0 1.52-2.63c.04-.97-.68-1.37-1.52-.88" style="fill:#fff"/><path d="M204.32 350.91a.59.59 0 0 1-.5-.29.57.57 0 0 1 .21-.78l40.23-23.23a.57.57 0 1 1 .57 1l-40.23 23.22a.6.6 0 0 1-.28.08m0 5.34a.57.57 0 0 1-.29-1.07L244.26 332a.58.58 0 0 1 .78.21.56.56 0 0 1-.21.78l-40.23 23.18a.6.6 0 0 1-.28.08m0 5.34a.58.58 0 0 1-.5-.28.57.57 0 0 1 .21-.78l40.23-23.23a.57.57 0 1 1 .57 1l-40.23 23.22a.6.6 0 0 1-.28.07m0 5.34a.58.58 0 0 1-.5-.28.57.57 0 0 1 .21-.78l40.23-23.23a.57.57 0 0 1 .57 1l-40.23 23.22a.6.6 0 0 1-.28.07M157 345.56a.59.59 0 0 1-.5-.29.57.57 0 0 1 .21-.78l40.23-23.23a.57.57 0 0 1 .78.21.56.56 0 0 1-.21.78l-40.23 23.23a.6.6 0 0 1-.28.08m0 5.34a.57.57 0 0 1-.29-1.07l40.23-23.22a.57.57 0 1 1 .57 1l-40.23 23.22a.5.5 0 0 1-.28.07m0 5.34a.58.58 0 0 1-.5-.28.57.57 0 0 1 .21-.78L196.92 332a.57.57 0 0 1 .78.21.56.56 0 0 1-.21.78l-40.23 23.23a.6.6 0 0 1-.26.02m0 5.3a.58.58 0 0 1-.5-.28.57.57 0 0 1 .21-.78l40.23-23.23a.57.57 0 0 1 .78.21.56.56 0 0 1-.21.78l-40.23 23.23a.6.6 0 0 1-.28.07m0-32.26a.58.58 0 0 1-.5-.28.57.57 0 0 1 .21-.78L196.92 305a.57.57 0 1 1 .57 1l-40.23 23.23a.6.6 0 0 1-.26.05m0 5.35a.59.59 0 0 1-.5-.29.57.57 0 0 1 .21-.78l40.23-23.23a.57.57 0 0 1 .78.21.56.56 0 0 1-.21.78l-40.23 23.23a.6.6 0 0 1-.28.08m0 5.3a.59.59 0 0 1-.5-.29.57.57 0 0 1 .21-.78l40.23-23.23a.57.57 0 0 1 .78.21.56.56 0 0 1-.21.78l-40.23 23.23a.6.6 0 0 1-.28.08m0 26.96a.57.57 0 0 1-.29-1.07l40.23-23.23a.58.58 0 0 1 .78.21.56.56 0 0 1-.21.78l-40.23 23.23a.6.6 0 0 1-.28.08m0 5.34a.57.57 0 0 1-.29-1.07l40.23-23.22a.57.57 0 1 1 .57 1l-40.23 23.22a.5.5 0 0 1-.28.07m0 5.46a.58.58 0 0 1-.5-.28.57.57 0 0 1 .21-.78l40.23-23.23a.57.57 0 0 1 .57 1l-40.23 23.23a.6.6 0 0 1-.28.06m0 5.31a.59.59 0 0 1-.5-.29.57.57 0 0 1 .21-.78l40.23-23.23a.57.57 0 0 1 .78.21.56.56 0 0 1-.21.78L157.26 383a.6.6 0 0 1-.26 0m0 5.38a.57.57 0 0 1-.29-1.07l40.23-23.22a.57.57 0 0 1 .78.2.57.57 0 0 1-.21.79l-40.25 23.22a.5.5 0 0 1-.26.08m0 5.62a.58.58 0 0 1-.5-.28.57.57 0 0 1 .21-.78l40.23-23.23a.57.57 0 0 1 .78.21.56.56 0 0 1-.21.78l-40.25 23.2a.6.6 0 0 1-.26.1" style="fill:#e0e0e0"/><path d="M158.87 311.6c.62-.36 1.08-.41 1.41-.15a2 2 0 0 1 .48 1.56 4.7 4.7 0 0 1-.25 1.57 4 4 0 0 1-.73 1.29l1 2.23a.23.23 0 0 1 0 .11.5.5 0 0 1 0 .21.34.34 0 0 1-.12.14l-.63.36c-.1.06-.17.07-.22 0a.5.5 0 0 1-.1-.14l-1-2.1-1 .57v2.66a.7.7 0 0 1-.05.25.37.37 0 0 1-.15.17l-.6.35a.11.11 0 0 1-.14 0 .24.24 0 0 1-.06-.18v-7.38a.6.6 0 0 1 .06-.25.4.4 0 0 1 .14-.17Zm-1.12 4.24 1.08-.62a1.9 1.9 0 0 0 .67-.62 1.75 1.75 0 0 0 .26-1c0-.43-.09-.66-.26-.71a.92.92 0 0 0-.67.17l-1.08.62Zm7.43-1.32a.12.12 0 0 1 .14 0 .25.25 0 0 1 .06.19v.81a.6.6 0 0 1-.06.25.4.4 0 0 1-.14.17l-3.26 1.88a.11.11 0 0 1-.14 0 .24.24 0 0 1-.06-.18v-7.38a.6.6 0 0 1 .06-.25.4.4 0 0 1 .14-.17l3.2-1.85a.11.11 0 0 1 .14 0 .24.24 0 0 1 .06.18v.83a.6.6 0 0 1-.06.26.4.4 0 0 1-.14.17l-2.4 1.38v1.82l2.24-1.29a.11.11 0 0 1 .14 0 .24.24 0 0 1 .06.18v.81a.54.54 0 0 1-.06.25.4.4 0 0 1-.14.18l-2.24 1.29v1.89Zm3.31-8.47c.6-.35 1.06-.4 1.39-.16a2 2 0 0 1 .5 1.62 4.7 4.7 0 0 1-.5 2.21 3.6 3.6 0 0 1-1.39 1.47l-1.19.68v2.55a.6.6 0 0 1-.06.25.4.4 0 0 1-.14.17l-.6.35a.11.11 0 0 1-.14 0 .24.24 0 0 1-.06-.18v-7.38a.6.6 0 0 1 .06-.25.45.45 0 0 1 .14-.18Zm-1.19 4.39 1.15-.66a1.9 1.9 0 0 0 .68-.65 2 2 0 0 0 .25-1c0-.43-.09-.67-.25-.74a.82.82 0 0 0-.68.15l-1.15.66Zm3.7-2.87a7 7 0 0 1 .16-1.3 6 6 0 0 1 .4-1.21 4.8 4.8 0 0 1 .67-1.05 3.5 3.5 0 0 1 .95-.79 2 2 0 0 1 .94-.31 1 1 0 0 1 .67.28 1.8 1.8 0 0 1 .41.75 4.5 4.5 0 0 1 .16 1.11v2.05a7 7 0 0 1-.16 1.3 5.5 5.5 0 0 1-.4 1.21 4.5 4.5 0 0 1-.67 1 3.6 3.6 0 0 1-.95.79 1.9 1.9 0 0 1-.95.31 1 1 0 0 1-.67-.27 1.8 1.8 0 0 1-.4-.75 4.6 4.6 0 0 1-.16-1.11zm3.36-1.88a1.44 1.44 0 0 0-.35-1.08c-.21-.18-.48-.17-.83 0a2.05 2.05 0 0 0-.83.93 3.5 3.5 0 0 0-.35 1.47v2a1.45 1.45 0 0 0 .35 1.07c.21.18.48.16.83 0a2.14 2.14 0 0 0 .83-.92 3.4 3.4 0 0 0 .35-1.47v-1c0-.38.02-.69.01-1Zm4.11-5.4q.92-.54 1.41-.15a1.93 1.93 0 0 1 .48 1.56 5 5 0 0 1-.25 1.56 4 4 0 0 1-.73 1.3l1 2.23a.2.2 0 0 1 0 .11.45.45 0 0 1 0 .2.35.35 0 0 1-.12.14l-.63.37c-.1.06-.17.06-.22 0a.4.4 0 0 1-.1-.15l-1-2.1-1 .57v2.67a.6.6 0 0 1-.06.25.35.35 0 0 1-.14.17l-.6.35a.12.12 0 0 1-.14 0 .25.25 0 0 1-.06-.19v-7.37a.6.6 0 0 1 .06-.26.4.4 0 0 1 .14-.17Zm-1.12 4.24 1.08-.62a2.1 2.1 0 0 0 .67-.62 1.8 1.8 0 0 0 .26-1c0-.42-.09-.66-.26-.71a.93.93 0 0 0-.67.18l-1.08.62Zm7.38-7.86a.11.11 0 0 1 .14 0 .24.24 0 0 1 .06.18v.82a.6.6 0 0 1-.06.25.4.4 0 0 1-.14.17l-1.34.77v6.26a.6.6 0 0 1-.06.25.35.35 0 0 1-.14.17l-.6.35a.11.11 0 0 1-.14 0 .24.24 0 0 1-.06-.18v-6.26l-1.34.77a.11.11 0 0 1-.14 0 .24.24 0 0 1-.06-.18v-.81a.6.6 0 0 1 .06-.26.4.4 0 0 1 .14-.17Z" style="fill:#455a64"/><path d="m189.66 294.09 57.23-33.07.05 7.75-57.29 33.05zm32.47.8v18.47l-11.23 17.9c-4-5.08-2.8-17.75 3.38-27.77 2.52-4.04 4.72-6.63 7.85-8.6" style="fill:#feda5e"/><path d="M222.13 294.89v18.47l-11.23 17.9c-4-5.08-2.8-17.75 3.38-27.77 2.52-4.04 4.72-6.63 7.85-8.6" style="fill:#fff;opacity:.2"/><path d="M237.37 311.17c-2.22 11.23-10 21.66-17.59 23.52a7.48 7.48 0 0 1-7.58-1.86l11.29-18.26Z" style="fill:#feda5e"/><path d="M237.37 311.17c-2.22 11.23-10 21.66-17.59 23.52a7.48 7.48 0 0 1-7.58-1.86l11.29-18.26Z" style="fill:#fff;opacity:.30000000000000004"/><path d="m237.66 309.23-13.29 3.26 7.46-19.64c4.76 1.79 7 8.08 5.83 16.38m-7.23-16.51-6.74 17.72V294a9.4 9.4 0 0 1 6.74-1.28" style="fill:#feda5e"/><path d="m230.43 292.72-6.74 17.72V294a9.4 9.4 0 0 1 6.74-1.28" style="fill:#fff;opacity:.5"/><path d="m244.26 399.06-87.09 50.29v-46.74l87.09-50.29v-1l-87.28 50.39-.56.33v48.74l87.84-50.71z" style="fill:#e0e0e0"/><path d="m244.26 383.15-87.28 50.39-.37 1.22 87.65-50.61zm0-15.91-87.28 50.39-.37 1.22 87.65-50.61z" style="fill:#e0e0e0"/><path d="m244.26 399.32-.75.93v-47.74l.75-.94zm-10.88 6.28-.75.94v-47.75l.75-.93zm-10.89 6.29-.75.93v-47.74l.75-.94zm-10.89 6.28-.75.94v-47.75l.75-.93zm-10.88 6.29-.75.93v-47.74l.75-.94zm-10.89 6.28-.75.94v-47.75l.75-.93zm-10.89 6.29-.75.93v-47.74l.75-.94zm-10.88 6.28-.76.94V396.5l.76-.93z" style="fill:#e0e0e0"/><path d="M156.77 443.2a.36.36 0 0 1-.36-.36.35.35 0 0 1 .37-.36c.27 0 .4-.92.47-1.47.11-.73.19-1.35.56-1.61a.33.33 0 0 1 .3-.06l.12-.39c.06-.21.12-.42.19-.6a5 5 0 0 1 .32-.63 2.6 2.6 0 0 0 .37-.9 12 12 0 0 0 .13-1.34 8 8 0 0 1 .38-2.55c.08-.15.28-.54.66-.47s.43.49.49.9a1 1 0 0 0 0 .25 1.6 1.6 0 0 1 .06.45v.17h.17a.36.36 0 0 1 .31.23 2.8 2.8 0 0 1 .11.89 2.7 2.7 0 0 0 .07.65.4.4 0 0 0 .06.11h.05v-1c0-1 0-2.13 1-2.43v-.85a14 14 0 0 1 .23-3.11 1.2 1.2 0 0 1 .34-.63.37.37 0 0 0 .12-.21 1.5 1.5 0 0 0 0-.36 2.3 2.3 0 0 1 0-.53c0-.18 0-.34.05-.48a2.76 2.76 0 0 1 .51-1.52.37.37 0 0 1 .28-.16 1 1 0 0 0 0-.18.36.36 0 0 1 .17-.33.35.35 0 0 1 .37 0c.42.24.48.91.56 1.69a5 5 0 0 0 .19 1.1 12 12 0 0 0 .29-1.64v-.12a.37.37 0 0 1 .33-.32.64.64 0 0 1 .43.14.76.76 0 0 1 .2.56v.07l.15.06a.4.4 0 0 1 .31.11l.2.27a3 3 0 0 0 .18.25 10.4 10.4 0 0 0 .05-1.57 10 10 0 0 1 .07-1.77 4.2 4.2 0 0 1 .52-1.5 5 5 0 0 0 .33-.72 10 10 0 0 0 .45-2.59 8.8 8.8 0 0 1 .84-3.61.38.38 0 0 1 .35-.18.33.33 0 0 1 .23.1c.21-.33.47-.56.78-.52.54.07.67.83.83 1.87a9 9 0 0 0 .26 1.2.36.36 0 0 1 .34-.14.38.38 0 0 1 .29.24 12 12 0 0 1 .37 2.06v.21a.73.73 0 0 1 .48.17c0-.09.06-.22.1-.38a7 7 0 0 0 0-1.31c-.07-1.37-.07-2.29.37-2.67a.6.6 0 0 1 .28-.14 6 6 0 0 0 .17-.59c.14-.55.29-1.17.92-1.25.31-.05.52.12.62.49h.19v-.08a8.5 8.5 0 0 0 .16-1.2 5.8 5.8 0 0 1 .4-2c.24-.5.55-.77.89-.74a1 1 0 0 1 .83.69.84.84 0 0 1 .46-.6h.08a.9.9 0 0 1 .21-.4.54.54 0 0 1 .48-.17c.36.05.56.42.7.69l.05.09a1 1 0 0 1 .07.15 2 2 0 0 0 0-.2c.07-.34.14-.63.37-.76a.5.5 0 0 1 .28-.06v-.07a1 1 0 0 1 .38-.94.47.47 0 0 1 .44 0 4.8 4.8 0 0 0 .16-1.26v-.31a2.2 2.2 0 0 1 .15-1.26c.2-.34.43-.37.58-.34.37.08.43.53.46.75l.08.55c.08.54.17 1.1.2 1.69v.13a2.06 2.06 0 0 0 .27 1.2 1.5 1.5 0 0 1 .39 1.09 2.4 2.4 0 0 0 .26 1 1.57 1.57 0 0 1 .32.78 2 2 0 0 0 .06.29.8.8 0 0 1 .37 0c0-.14.1-.32.16-.57v-.11c0-.13.07-.34.12-.59a3.65 3.65 0 0 1 .55-1.75.44.44 0 0 1 .31-.14v-.77c0-.54.09-1 .45-1.17a.4.4 0 0 1 .17 0c.23-.68.52-1.47 1.16-1.37s.78 1 .91 1.78c0 .25.08.52.13.71a.5.5 0 0 0 0-.15 1.3 1.3 0 0 0 .05-.2 2 2 0 0 1 .14-.48.53.53 0 0 1 .26-.25 3.44 3.44 0 0 0 .3-1.61 6 6 0 0 1 .07-.9 15 15 0 0 1 .62-2.35l.11-.34c.07-.22.13-.52.2-.83a5.4 5.4 0 0 1 .46-1.54.38.38 0 0 1 .31-.17.46.46 0 0 1 .31.17 4.86 4.86 0 0 1 .43 2.22c0 .27 0 .53.06.77a1.64 1.64 0 0 0 .19.75.4.4 0 0 0 .13.13 1 1 0 0 1 .39.53 4 4 0 0 1 .07 1.12v.68a6 6 0 0 0 .23 1.15h.17c.71-.08.85.4 1 .87a1.2 1.2 0 0 0 .28.48l.17.23a3.06 3.06 0 0 1 .34 1.46l.12 1.45c.06.67.11 1.33.16 2v.55a7.6 7.6 0 0 0 .22 1.92 13 13 0 0 0 .13-2.94 9 9 0 0 1 0-.85 3 3 0 0 1 .38-1.2l.14-.3a4.4 4.4 0 0 0 .25-1.8v-.46a5.1 5.1 0 0 1 .24-2.26.62.62 0 0 1 .54-.39.5.5 0 0 1 .35.22h.08c.09-.05.16-.39.21-.6.12-.58.2-1.1.28-1.61s.16-1 .27-1.56.18-.89.62-1.09a.45.45 0 0 1 .29 0 3.8 3.8 0 0 0 .28-.81 4 4 0 0 1 .31-.88 1.6 1.6 0 0 1 .2-.27l.07-.08a1.7 1.7 0 0 0 .25-.62l.08-.26a5 5 0 0 1 1-1.87.53.53 0 0 1 .7-.09c0-.16.12-.39.15-.53s.08-.3.12-.39a2.6 2.6 0 0 1 .55-1 1.06 1.06 0 0 1 1.19-.3c.86.37 1 1.85 1.16 3.15 0 .27.06.53.1.77a2.1 2.1 0 0 0 .22.85l.06.07a.87.87 0 0 1 .28.4 5 5 0 0 1 .12 1.51v1a8.7 8.7 0 0 0 .2 1.65 4 4 0 0 0 .16.48 4.3 4.3 0 0 1 .27.9c0 .19.06.38.08.58a5.6 5.6 0 0 0 .22 1.15 4 4 0 0 1 .11.39 5 5 0 0 0 .13.47.7.7 0 0 1 .21 0h.08a7 7 0 0 0 .25-1.44v-.29c0-.49.13-1.17.68-1.37a.5.5 0 0 1 .55.16v-1.34a7 7 0 0 1 .17-1.74 2.3 2.3 0 0 1 .31-.68.9.9 0 0 0 .18-.6v-5.16a5 5 0 0 1 0-1c0-.18.06-.36.09-.53a4 4 0 0 0 .12-.81 2.8 2.8 0 0 1 .2-1 4 4 0 0 0 .12-.42v-.14c.11-.54.23-1 .61-1.18a.56.56 0 0 1 .57.12 1.64 1.64 0 0 1 .41 1.22 1.8 1.8 0 0 0 .1.6l.08.15a2.2 2.2 0 0 1 .33 1.3v.62a3.8 3.8 0 0 0 .06 1.25 1.8 1.8 0 0 0 .2.35 1.7 1.7 0 0 1 .38.89v.32a1.3 1.3 0 0 0 0 .3s.06 0 .13.07a1 1 0 0 1 .4.29.9.9 0 0 1 .15.32 4 4 0 0 0 .11-.56 4.3 4.3 0 0 0 0-1.07 3.7 3.7 0 0 1 .26-2.14 2.5 2.5 0 0 1 .23-.31 1.4 1.4 0 0 0 .22-.35 4 4 0 0 0 .21-1v-.15c0-.3.07-.59.1-.87a10.4 10.4 0 0 1 .33-2l.15-.42a5 5 0 0 0 .16-.48 5 5 0 0 0 .11-.87v-.33a5.7 5.7 0 0 1 .53-1.8 9 9 0 0 0 .35-.92 11 11 0 0 0 .35-1.93 8.5 8.5 0 0 1 .71-2.94c.09-.16.34-.64.78-.57s.78 1 1 2.36c0 .23.07.42.09.49a.43.43 0 0 0 .22.22 1.2 1.2 0 0 1 .49.53 3.4 3.4 0 0 1 .17 1.2v.43a31.6 31.6 0 0 0 .86 4.48l.14.6c.05.19.08.42.12.66a3.2 3.2 0 0 0 .23 1 10.2 10.2 0 0 1 .95 4.39c0 .19 0 .39.05.59a1 1 0 0 0 0-.15 1.76 1.76 0 0 1 .3-.76.7.7 0 0 1 .21-.18 6.4 6.4 0 0 0 .11-1.24v-.77a4.1 4.1 0 0 1 .11-1.29 1 1 0 0 1 .38-.56.3.3 0 0 0 .1-.09 2.6 2.6 0 0 0 .24-.8c.12-.58.22-1.08.6-1.23a.6.6 0 0 1 .57.08.7.7 0 0 1 .15.15.3.3 0 0 1 .23 0 .58.58 0 0 1 .41.31 3.4 3.4 0 0 1 .22.58l.07.21c0-.24 0-.55-.05-1v-.14a5 5 0 0 1 .06-1.34c.08-.43.18-.86.28-1.3a15 15 0 0 0 .36-2v-.2a3.6 3.6 0 0 1 .27-1.36c.07-.12.23-.4.52-.41a.4.4 0 0 1 .19 0c.06-.19.11-.45.15-.64.13-.66.25-1.24.64-1.41a.45.45 0 0 1 .42 0 .5.5 0 0 1 .24.28.67.67 0 0 1 .62-.21c.3.08.4.37.48.59a8.8 8.8 0 0 0 .43-2.21c.17-1.37.27-2.1.71-2.31a.57.57 0 0 1 .56 0 .85.85 0 0 1 .32.55.4.4 0 0 1 .15 0c.15 0 .45 0 .67.48a7.8 7.8 0 0 1 .56 2.63v.27c0 .4.1.79.16 1.17a18 18 0 0 1 .21 1.9v.54c0 .45 0 .9.08 1.34a4 4 0 0 1 0 .53 4 4 0 0 0 .08.87 5 5 0 0 0 .56-1l.11-.23c.12-.27.24-.54.35-.82.19-.45.39-.92.62-1.34a2 2 0 0 1 .13-.2.5.5 0 0 0 .11-.18 2 2 0 0 0 .06-.25 1.3 1.3 0 0 1 .25-.66.5.5 0 0 1 .48-.19.4.4 0 0 1 .27.16c0-.12.06-.25.08-.36.08-.49.19-1.11.75-1.27a1.06 1.06 0 0 1 .85.21c.09.06.22.14.26.12s.22-.72.25-1.1a4.3 4.3 0 0 1 .13-.93 3.7 3.7 0 0 1 .55-1 1.3 1.3 0 0 1 .19-.17l.05-.05a.8.8 0 0 0 .08-.18 1.2 1.2 0 0 1 .14-.3 1.6 1.6 0 0 1 .46-.47 1 1 0 0 0 .36-.37.36.36 0 0 1 .49-.15.37.37 0 0 1 .15.49 1.7 1.7 0 0 1-.57.61 1 1 0 0 0-.28.27 1 1 0 0 0-.08.18 1.3 1.3 0 0 1-.16.34 1 1 0 0 1-.21.21 2.6 2.6 0 0 0-.48.84 4 4 0 0 0-.1.77c0 .66-.1 1.42-.66 1.69a1 1 0 0 1-.95-.15.65.65 0 0 0-.28-.13c-.12 0-.19.45-.23.7a1.75 1.75 0 0 1-.48 1.12.45.45 0 0 1-.61 0 2 2 0 0 1-.09.33 3 3 0 0 1-.19.33.7.7 0 0 0-.09.13 13 13 0 0 0-.58 1.26c-.12.29-.24.57-.37.84l-.1.23c-.33.72-.71 1.54-1.32 1.48s-.69-.93-.7-1.62v-.47c0-.45-.06-.91-.08-1.38v-.53a17 17 0 0 0-.21-1.83c0-.4-.11-.8-.16-1.2v-.28a7.2 7.2 0 0 0-.5-2.37.45.45 0 0 1-.45.08.67.67 0 0 1-.37-.49 14 14 0 0 0-.22 1.45c-.19 1.63-.35 2.63-.95 2.9a.6.6 0 0 1-.47 0 .84.84 0 0 1-.42-.58v.05a.63.63 0 0 1-.46.29.49.49 0 0 1-.39-.16l-.11.52c-.15.72-.27 1.28-.71 1.39a.4.4 0 0 1-.3 0 6 6 0 0 0-.12.91v.21a15 15 0 0 1-.38 2.07c-.09.42-.19.84-.26 1.26a3.7 3.7 0 0 0-.06 1.15v.13c.09 1 .09 1.77-.24 2.14a.45.45 0 0 1-.44.17c-.36-.08-.52-.52-.75-1.23 0-.09-.06-.21-.09-.29h-.08a.45.45 0 0 1-.48-.21c0 .17-.1.4-.14.56a2.7 2.7 0 0 1-.36 1.09 1.2 1.2 0 0 1-.24.23c-.07 0-.08.06-.12.19a3.7 3.7 0 0 0-.09 1.06 5 5 0 0 1 0 .55v.26a4.4 4.4 0 0 1-.19 1.56.55.55 0 0 1-.29.31 1.3 1.3 0 0 0-.16.45 1.6 1.6 0 0 1-.35.81.6.6 0 0 1-.66.23c-.24-.08-.39-.32-.42-.71s0-.58-.08-.87a9.9 9.9 0 0 0-.85-4.08 3.6 3.6 0 0 1-.33-1.25c0-.21-.06-.42-.1-.59l-.14-.6a31 31 0 0 1-.88-4.59v-.47a2.8 2.8 0 0 0-.1-.92c0-.11-.1-.14-.22-.22a1.07 1.07 0 0 1-.5-.57 4.4 4.4 0 0 1-.13-.63 10 10 0 0 0-.39-1.66.4.4 0 0 1-.05.08 8.2 8.2 0 0 0-.64 2.7 11 11 0 0 1-.37 2.06 10 10 0 0 1-.37 1 5 5 0 0 0-.48 1.58v.31a6 6 0 0 1-.12 1c-.05.19-.12.37-.19.56a3 3 0 0 0-.13.37 8.3 8.3 0 0 0-.31 1.87c0 .29-.06.59-.1.9v.14a5 5 0 0 1-.26 1.17 1.6 1.6 0 0 1-.34.55 1 1 0 0 0-.15.21 3 3 0 0 0-.17 1.71 5.2 5.2 0 0 1 0 1.24c-.14.89-.31 1.31-.62 1.45a.52.52 0 0 1-.51 0 1 1 0 0 1-.34-.6 1.4 1.4 0 0 0-.09-.23.25.25 0 0 0-.12-.07.9.9 0 0 1-.44-.36 1.27 1.27 0 0 1-.14-.66 2 2 0 0 0 0-.24 1.07 1.07 0 0 0-.25-.57 2.2 2.2 0 0 1-.29-.51 4.2 4.2 0 0 1-.1-1.54v-.58a1.5 1.5 0 0 0-.25-1l-.08-.16a2.1 2.1 0 0 1-.18-.89 3 3 0 0 0-.06-.52c0 .16-.08.36-.1.44a2 2 0 0 1 0 .18c0 .18-.1.33-.15.48a2.1 2.1 0 0 0-.16.75 4.4 4.4 0 0 1-.13 1c0 .16-.07.32-.09.48a6 6 0 0 0 0 .85v5.15a1.66 1.66 0 0 1-.29 1 1.4 1.4 0 0 0-.22.47 7 7 0 0 0-.15 1.57v1.02a2.2 2.2 0 0 1-.28 1.17.51.51 0 0 1-.4.18.64.64 0 0 1-.48-.37 3.6 3.6 0 0 0-.11.62v.29c-.14 1.24-.3 2-.75 2.21a.56.56 0 0 1-.36 0 .6.6 0 0 1-.13-.08.48.48 0 0 1-.45-.1 2 2 0 0 1-.4-1 3 3 0 0 0-.09-.33 7.3 7.3 0 0 1-.26-1.3c0-.19 0-.37-.07-.56a5 5 0 0 0-.23-.75c-.07-.18-.14-.36-.19-.54a9 9 0 0 1-.22-1.81v-.3a6 6 0 0 1 0-.74 5.3 5.3 0 0 0-.08-1.28s0 0-.08-.09a.9.9 0 0 1-.18-.2 2.7 2.7 0 0 1-.34-1.16c0-.24-.06-.51-.09-.79-.11-.94-.26-2.36-.74-2.57a.37.37 0 0 0-.38.14 2.1 2.1 0 0 0-.39.74c0 .07-.06.19-.1.33a2.3 2.3 0 0 1-.44 1.05.5.5 0 0 1-.7 0 4.6 4.6 0 0 0-.7 1.47l-.07.25a2.6 2.6 0 0 1-.35.82 2 2 0 0 1-.15.19.24.24 0 0 0-.09.12 3.2 3.2 0 0 0-.24.71 2.33 2.33 0 0 1-.61 1.27.49.49 0 0 1-.41.09 1.5 1.5 0 0 0-.17.53c-.1.51-.18 1-.26 1.53s-.16 1.05-.27 1.58-.26 1.24-.87 1.25l-.07.06a.38.38 0 0 1-.33.07l-.1-.05a8.6 8.6 0 0 0 0 1.59v.49a4.9 4.9 0 0 1-.31 2.09q-.07.18-.15.33a2.3 2.3 0 0 0-.31.95v.76c.08 2.45 0 3.64-.72 3.76a.62.62 0 0 1-.52-.15c-.45-.37-.52-1.33-.55-2.55v-.51c-.05-.67-.1-1.34-.16-2l-.12-1.45a2.7 2.7 0 0 0-.22-1.11 1 1 0 0 0-.14-.18 2 2 0 0 1-.39-.71 1.8 1.8 0 0 0-.14-.39h-.21a.63.63 0 0 1-.8-.45 7 7 0 0 1-.28-1.34 7 7 0 0 1 0-.78 3.4 3.4 0 0 0 0-.89c0-.07 0-.1-.15-.17a1.4 1.4 0 0 1-.3-.32 2.3 2.3 0 0 1-.29-1.05c0-.26 0-.53-.06-.81s0-.51-.05-.76v.18c-.07.33-.14.65-.22.91l-.11.34a14 14 0 0 0-.6 2.24 7 7 0 0 0-.06.82 3.7 3.7 0 0 1-.45 2 .7.7 0 0 1-.19.17c0 .07-.05.18-.07.28s-.06.23-.07.26c-.14.42-.32.88-.71.9s-.55-.35-.61-.48a4.3 4.3 0 0 1-.26-1.1 4.4 4.4 0 0 0-.29-1.15 4 4 0 0 0-.42.95l-.08.24a.39.39 0 0 1-.24.23.5.5 0 0 1-.17 0c0 .14 0 .34-.06.47v.42a1.6 1.6 0 0 1-.24.88.42.42 0 0 1-.38.15 9 9 0 0 0-.29 1.28c-.05.27-.09.51-.13.65v.1c-.26 1-.41 1.3-.67 1.38a.45.45 0 0 1-.36 0 .46.46 0 0 1-.2-.27c-.2 0-.56 0-.7-.55 0-.12-.05-.23-.07-.32a1 1 0 0 0-.18-.48 2.63 2.63 0 0 1-.4-1.37c-.05-.49-.06-.52-.21-.67a2.52 2.52 0 0 1-.46-1.65v-.64a3.2 3.2 0 0 1-.26 1.08.63.63 0 0 1-.43.39.5.5 0 0 1-.25 0 1.3 1.3 0 0 0 0 .2 1.4 1.4 0 0 1-.15.68.57.57 0 0 1-.49.33c-.08.39-.16.79-.47 1a.48.48 0 0 1-.39 0c-.27-.09-.42-.39-.53-.63l-.06-.12-.06-.1a2 2 0 0 0-.09-.17s0 0 0 .06a1 1 0 0 1-.42.68.4.4 0 0 1-.15 0 1.2 1.2 0 0 1-.22.41.53.53 0 0 1-.53.2c-.3-.07-.39-.37-.45-.57v-.1a.9.9 0 0 0-.25-.37 1.2 1.2 0 0 0-.2.33 5.2 5.2 0 0 0-.34 1.76 8.4 8.4 0 0 1-.18 1.32c-.09.36-.15.73-.6.68h-.08a.32.32 0 0 1-.17.1.4.4 0 0 1-.54-.11.76.76 0 0 1-.18-.41 2.8 2.8 0 0 0-.18.57 4.4 4.4 0 0 1-.31.93.37.37 0 0 1-.4.2 6.1 6.1 0 0 0-.09 2.06 6.6 6.6 0 0 1 0 1.52c-.16.69-.29 1-.59 1.1a.59.59 0 0 1-.56-.23l-.1-.1-.09.06a.36.36 0 0 1-.6-.22q0-.33-.09-.69c-.06-.5-.12-1-.21-1.44a.7.7 0 0 1-.25 0c-.5-.13-.62-.87-.79-1.89A9 9 0 0 0 171 415a4 4 0 0 0-.33.6.36.36 0 0 1-.37.2.36.36 0 0 1-.18-.07 9.7 9.7 0 0 0-.48 2.71 10.8 10.8 0 0 1-.49 2.77 6 6 0 0 1-.37.82 3.5 3.5 0 0 0-.45 1.27 10 10 0 0 0-.06 1.64 9.2 9.2 0 0 1-.12 2.12.36.36 0 0 1-.18.24c-.6.33-1-.3-1.25-.61v-.06a1.7 1.7 0 0 1-.4-.16 6.4 6.4 0 0 1-.24 1.05.36.36 0 0 1-.13.19.79.79 0 0 1-.79.15c-.47-.22-.55-.92-.63-1.74 0-.13 0-.29-.05-.46a.27.27 0 0 1-.15 0 2.2 2.2 0 0 0-.26 1c0 .16 0 .33-.06.53a2 2 0 0 0 0 .35 1.8 1.8 0 0 1 0 .57 1 1 0 0 1-.32.58.53.53 0 0 0-.15.27 14.5 14.5 0 0 0-.21 3v1.16a.36.36 0 0 1-.32.35c-.58.06-.65.59-.65 1.78a5.8 5.8 0 0 1-.19 1.74.36.36 0 0 1-.34.25.36.36 0 0 1-.34-.24.3.3 0 0 0 0-.1.84.84 0 0 1-.62-.55 2.8 2.8 0 0 1-.12-.91v-.45a.61.61 0 0 1-.44-.32 1.5 1.5 0 0 1-.09-.52 1.3 1.3 0 0 0 0-.23c-.07.49-.12 1.18-.16 1.69a14 14 0 0 1-.14 1.45 3.4 3.4 0 0 1-.46 1.12 5 5 0 0 0-.27.53c-.06.16-.11.34-.17.53a2.26 2.26 0 0 1-.67 1.3.3.3 0 0 1-.19.06c0 .21-.07.43-.09.6-.24.8-.4 2-1.3 2m60.95-72.2 2.82-1.63v5.17l-1.41 3.15-1.41-1.52z" style="fill:#feda5e"/><path d="m217.72 371 2.82-1.63v5.17l-1.41 3.15-1.41-1.52z" style="fill:#fff;opacity:.30000000000000004"/><path d="M77.31 200.34v63.39a3 3 0 0 1-1.37 2.36l-45.85 26.48a1 1 0 0 1-1 .09c-.24-.14-2.31-1.33-2.55-1.48a.94.94 0 0 1-.4-.88v-76.57a3 3 0 0 1 1.36-2.36L62 191.49Z" style="fill:#feda5e"/><path d="M77.31 200.34v63.39a3 3 0 0 1-1.37 2.36l-45.85 26.48a1 1 0 0 1-1 .09c-.24-.14-2.31-1.33-2.55-1.48a.94.94 0 0 1-.4-.88v-76.57a3 3 0 0 1 1.36-2.36L62 191.49Z" style="fill:#fff;opacity:.45"/><path d="m31.29 215.11-4.76-2.64a2.7 2.7 0 0 0-.35 1.26v76.57a1 1 0 0 0 .4.89l2.55 1.47a1 1 0 0 0 1-.09l1.19-.69Z" style="fill:#feda5e"/><path d="M77.31 200.34v63.39a3 3 0 0 1-1.37 2.36L30.1 292.57c-.75.43-1.36.08-1.36-.79v-76.57a3 3 0 0 1 1.36-2.36l26.75-15.46 7.67-4.39Z" style="fill:#fafafa"/><path d="m64.52 193.69 12.16 7v63a2.39 2.39 0 0 1-1.05 1.82L29.78 292a.6.6 0 0 1-.29.1c-.12 0-.12-.33-.12-.34v-76.55a2.38 2.38 0 0 1 1-1.82l26.76-15.46 7.35-4.24m0-.73-7.67 4.43-26.71 15.46a3 3 0 0 0-1.36 2.36v76.57c0 .61.3 1 .75 1a1.3 1.3 0 0 0 .61-.18l45.84-26.48a3 3 0 0 0 1.37-2.36v-63.42L64.52 193Z" style="fill:#feda5e"/><path d="M72.46 200.71c.53 0 .9.42.9 1.16V234a3.59 3.59 0 0 1-1.62 2.8L35.5 257.68a1.45 1.45 0 0 1-.72.22c-.53 0-.9-.42-.9-1.15v-32.09a3.58 3.58 0 0 1 1.62-2.8L60 207.7l11.73-6.77a1.5 1.5 0 0 1 .72-.22m0-.67a2.1 2.1 0 0 0-1.06.31l-11.73 6.77-24.5 14.15a4.27 4.27 0 0 0-1.95 3.39v32.09a1.64 1.64 0 0 0 1.57 1.83 2.2 2.2 0 0 0 1.06-.31l36.24-20.93A4.27 4.27 0 0 0 74 234v-32.13a1.64 1.64 0 0 0-1.54-1.87Z" style="fill:#e0e0e0"/><path d="M64.53 206.14V193l12.78 7.38-11.42 6.59c-.75.39-1.36.03-1.36-.83m-16.59 51.31a4.36 4.36 0 0 0-2 3.42l.07 12.6c0 1.26.89 1.77 2 1.14l31.34-18.2v-17.1Z" style="fill:#feda5e"/><path d="M47.94 257.45a4.36 4.36 0 0 0-2 3.42l.07 12.6c0 1.26.89 1.77 2 1.14l31.34-18.2v-17.1Z" style="fill:#fff;opacity:.5"/><path d="m79.36 239.31-2.05-1.18v2.37z" style="fill:#feda5e"/><path d="m79.36 239.31-2.05-1.18v2.37z" style="opacity:.30000000000000004"/><path d="m54.49 264.78-.83.48a.54.54 0 0 0-.17.21.8.8 0 0 0-.07.3v1.34a.34.34 0 0 0 .07.22.15.15 0 0 0 .17 0l.83-.48a.54.54 0 0 0 .17-.21.8.8 0 0 0 .07-.3V265a.34.34 0 0 0-.07-.22.15.15 0 0 0-.17 0m11.67-13.2a1.1 1.1 0 0 0-.81-.29 2.6 2.6 0 0 0-1.14.39L62 253a.35.35 0 0 0-.17.2.66.66 0 0 0-.07.3v8.83a.28.28 0 0 0 .07.22c0 .05.1.05.17 0l2.23-1.29a4.3 4.3 0 0 0 1.12-.91 5.3 5.3 0 0 0 .79-1.21 7 7 0 0 0 .49-1.48 9 9 0 0 0 .21-1.68v-2a5.8 5.8 0 0 0-.21-1.44 1.93 1.93 0 0 0-.47-.96m-.5 5a4.4 4.4 0 0 1-.11.89 3.5 3.5 0 0 1-.27.81 3 3 0 0 1-.44.69 2.4 2.4 0 0 1-.63.52l-1.24.71v-6.1l1.19-.69a1.5 1.5 0 0 1 .66-.22.67.67 0 0 1 .46.17 1.14 1.14 0 0 1 .27.5 2.8 2.8 0 0 1 .11.75c.03.66.03 1.39 0 2.02Zm6.56-9.47a.12.12 0 0 0-.16 0l-3.8 2.19a.37.37 0 0 0-.16.2.7.7 0 0 0-.07.31v8.83a.25.25 0 0 0 .07.21.11.11 0 0 0 .16 0l.72-.41a.46.46 0 0 0 .17-.21.66.66 0 0 0 .07-.3v-3.13l2.66-1.53a.54.54 0 0 0 .17-.21.8.8 0 0 0 .07-.3v-1a.34.34 0 0 0-.07-.22.14.14 0 0 0-.17 0l-2.66 1.54v-2.66l2.84-1.63a.45.45 0 0 0 .16-.21.66.66 0 0 0 .07-.3v-1a.3.3 0 0 0-.07-.12ZM58.54 255l-2.38 1.37a.45.45 0 0 0-.16.21.7.7 0 0 0-.08.3v8.83a.3.3 0 0 0 .08.22.11.11 0 0 0 .16 0l.72-.41a.4.4 0 0 0 .17-.21.66.66 0 0 0 .07-.3v-3.05l1.42-.82a4.2 4.2 0 0 0 1.67-1.76 5.5 5.5 0 0 0 .6-2.64c0-1-.2-1.64-.6-1.93s-.95-.27-1.67.19m.77 3.69a2.3 2.3 0 0 1-.81.78l-1.38.79v-2.73l1.38-.8a1 1 0 0 1 .81-.17c.2.08.3.38.3.89a2.3 2.3 0 0 1-.3 1.19Z" style="fill:#fafafa"/><path d="M41.16 246.38a2.6 2.6 0 0 1-1.33-.35c-1.11-.64-1.75-2.08-1.75-3.95 0-3.35 2.05-7.25 4.57-8.71l.23-.13a11 11 0 0 1-.09-1.45c0-5.17 3.17-11.22 7.07-13.47a4.82 4.82 0 0 1 4.86-.39 5.64 5.64 0 0 1 2.52 4.3 10.1 10.1 0 0 1 3.09-3 3.93 3.93 0 0 1 4-.29c1.33.77 2.09 2.51 2.09 4.76v.75a2 2 0 0 1 1.68.08 2.74 2.74 0 0 1 1.06 2.47 6.65 6.65 0 0 1-2.83 5.37l-23.25 13.44a3.87 3.87 0 0 1-1.92.57m11.64-28.09a5.1 5.1 0 0 0-2.52.77c-3.66 2.11-6.64 7.83-6.64 12.73a10.4 10.4 0 0 0 .12 1.61.42.42 0 0 1-.21.43l-.47.28c-2.29 1.32-4.15 4.89-4.15 8 0 1.56.48 2.73 1.32 3.22a2.36 2.36 0 0 0 2.4-.22l23.26-13.43a5.89 5.89 0 0 0 2.4-4.63 1.94 1.94 0 0 0-.69-1.75 1.32 1.32 0 0 0-1.29.14l-.25.14a.43.43 0 0 1-.45 0 .43.43 0 0 1-.18-.41 10 10 0 0 0 .1-1.43c0-1.94-.61-3.41-1.66-4a3.09 3.09 0 0 0-3.13.29 9.9 9.9 0 0 0-3.46 3.77.44.44 0 0 1-.48.21.44.44 0 0 1-.32-.4c-.07-2.36-.86-4.14-2.19-4.88a3.1 3.1 0 0 0-1.51-.44" style="fill:#feda5e"/><path d="M50.69 230.37a.4.4 0 0 0 .21 0 .49.49 0 0 0 .45-.29l1.43-3v5.35a.5.5 0 0 0 1 0v-6.41l1.53 1.47a.5.5 0 0 0 .71 0 .5.5 0 0 0 0-.71l-2.38-2.29a.49.49 0 0 0-.8.14l-2.38 5a.5.5 0 0 0 .23.74" style="fill:#feda5e"/><path d="M56.7 228.8a.5.5 0 0 0-.5.5v3l-5.84 3.37v-2.45a.5.5 0 0 0-.5-.5.5.5 0 0 0-.5.5v3.32a.5.5 0 0 0 .25.43.47.47 0 0 0 .25.07.43.43 0 0 0 .25-.07l6.89-3.91a.5.5 0 0 0 .25-.44v-3.32a.5.5 0 0 0-.55-.5" style="fill:#feda5e"/><path d="M466.9 378.63c-.87-12 .57-25.18-.43-43.91-.08-4.8-.26-9.94-.58-14.51-1.08-15.37-3.45-20.62-3.67-23.59 0 0-1.17-29.45-2.17-63.09-.47-15.82-5.06-20.61-8.72-29h-43.54c-4.87 20.73-6.25 65.92-6.11 87.27.08 10.89 4.47 69.14 4.56 70.48.31 4.75-.1 6.62-2 8.62-3.9 4.19-9.55 8.17-14.44 11.82.71 1.87 6.59 1.81 9.5.38a73.6 73.6 0 0 0 10.85-6.92c4-3 9.15-5.36 9.21-9.88a4.5 4.5 0 0 1 .14-.81c.07-2.64 6.23-41.6 6.75-50.64.44-7.78-.51-21-.51-21l5-32.93s3.85 25 7 38.29c2.55 10.82 6.75 29.28 9.62 42.59 2.75 15.34 6.7 30.25 7.39 37.93.22 1.83 2.29 19.82 3.15 23.95s9.84 4.23 10.41-2.86c.41-4.7-1.24-19.93-1.41-22.19" style="fill:#ffbda7"/><path d="M381.51 387.5c-.25 0-.65 2.73.68 3.91 1.55 1.36 6.1 3.62 12.15 2.9s9.35-2.55 11.79-4.55 5.86-4.82 8.6-5.39c2.55-.54 5.32-1.66 6.14-2.44s.75-4.26.75-4.26Z" style="fill:#263238"/><path d="M419.66 364.2s.45 0 .6.83c.17 1 .35 3.77.73 5.35a28.3 28.3 0 0 1 .5 8.49c-.35 1.78-4.51 3-7.16 4a33.7 33.7 0 0 0-8.63 5.32 25 25 0 0 1-12.81 4.62c-6 0-9.89-1.65-11.07-3.83-1.46-2.69-.28-4.23 6.67-7.36 1.31-.59 5.94-3.26 7.51-4.23a34 34 0 0 0 4.74-3.45 28 28 0 0 0 2.14-2.06 9.4 9.4 0 0 0 1.77-2.22c.08-.18.14-.4.21-.58a10.3 10.3 0 0 0 .47-1.62c.12-.57.19-1.41.75-1.75a4.6 4.6 0 0 1 2.47-.26 18 18 0 0 1 2.66.4c1 .24 2.19.34 2.78 1.31a5 5 0 0 1 .55 2.51v1.21c0 .17-.08.48.16.41s.5-.66.58-.87c.2-.45.33-.93.54-1.37a7.2 7.2 0 0 1 .88-1.46 6.8 6.8 0 0 1 1.11-1.1c.37-.29.85-.43 1.19-.75a2.9 2.9 0 0 0 .66-1.54" style="fill:#37474f"/><path d="M387.37 382.1c8.7.69 11.38 6.1 11.72 9.43a20.8 20.8 0 0 1-6.2 1.24c-6 0-10.14-1.65-11.32-3.83-1.38-2.54-.4-4.56 5.8-6.84" style="fill:#fafafa"/><path d="M400.42 382.33a.46.46 0 0 0 .27-.09.44.44 0 0 0 .07-.6 10.25 10.25 0 0 0-7.84-3.19.43.43 0 0 0-.39.46.43.43 0 0 0 .47.39 9.45 9.45 0 0 1 7.09 2.87.44.44 0 0 0 .33.16m3.77-2.15a.44.44 0 0 0 .27-.09.42.42 0 0 0 .07-.6 10.23 10.23 0 0 0-7.84-3.19.43.43 0 0 0 .08.85 9.5 9.5 0 0 1 7.1 2.87.39.39 0 0 0 .32.16m3.5-2.45a.4.4 0 0 0 .27-.1.42.42 0 0 0 .07-.6 10.26 10.26 0 0 0-7.84-3.18.42.42 0 1 0 .08.84 9.5 9.5 0 0 1 7.1 2.88.45.45 0 0 0 .32.16m3.44-2.46a.43.43 0 0 0 .34-.69c-1.65-2.12-5.4-3.55-8.57-3.24a.43.43 0 0 0 .08.85c2.85-.28 6.35 1 7.81 2.91a.47.47 0 0 0 .34.17" style="fill:#f0f0f0"/><path d="M455.1 406.91c.24 4.1.87 6.83 2.33 9.24s4.21 3.16 7 2.46 6.35-2.59 7.15-6.14 1.27-6 .63-9.78Z" style="fill:#263238"/><path d="M466.8 377.16c1.15.09 1.49 5.61 2.15 11.13.71 5.92 2.48 8.37 3.11 13.22.72 5.55-.19 8-2.14 11.37s-8.82 6.65-12.21 1.84c-2.76-3.91-2.87-8.25-2.62-13.79a124 124 0 0 0-.37-14c-.22-4.15-1.14-8.33-.15-8.8.08.61.16 1.39.24 2a9.7 9.7 0 0 0 .37 2.21c.11.31.37.63.47.13a3.2 3.2 0 0 0 0-1c-.16-1.53.61-1.66 1-1.77a50 50 0 0 1 5.32-.76c.88-.06 3.91-.19 4.3.31a3.5 3.5 0 0 1 .38 1.6c.1.84.3 1.45.32 1.19.05-.6-.06-2.15-.08-2.53s-.07-.85-.07-1.21.01-.78-.02-1.14" style="fill:#37474f"/><path d="M472.38 404.72a13.83 13.83 0 0 1-2.15 8.43c-1.94 3.35-9.37 6.65-12.76 1.85-1.69-2.39-2.14-5.21-2.37-8.1 2.03-3.7 14.07-5.33 17.28-2.18" style="fill:#fafafa"/><path d="M457.6 400.88h.14c.05 0 5.36-2.22 10.53-1a.44.44 0 0 0 .51-.32.43.43 0 0 0-.32-.51 19.87 19.87 0 0 0-11.08 1.08.41.41 0 0 0-.2.57.43.43 0 0 0 .42.18m10.4-5.2a.42.42 0 0 0 .09-.82c-5.14-1.75-10.85.87-11.06 1a.43.43 0 0 0-.18.58.44.44 0 0 0 .57.18c.05 0 5.61-2.56 10.4-.94a.4.4 0 0 0 .18 0m-.17-3.89a.43.43 0 0 0 .1-.83c-5.66-2-11.08.83-11.28 1a.42.42 0 0 0-.14.58.42.42 0 0 0 .58.14c.05 0 5.29-2.76 10.55-.88a.4.4 0 0 0 .19-.01" style="fill:#f0f0f0"/><path d="M467.55 388a.42.42 0 0 0 .35-.27.43.43 0 0 0-.25-.55c-5.3-2-11.13.94-11.35 1.07a.42.42 0 0 0-.15.58.41.41 0 0 0 .58.16s5.7-2.86 10.62-1a.5.5 0 0 0 .2.01" style="fill:#ebebeb"/><path d="M452.5 204.66c5.15 9.41 9 17.1 9.5 45.07s1.2 41.35 1.31 44.72 2.07 9.4 3.79 26 .14 36.07.14 36.07-1.64 3-8 3.59c-5.86.52-8.77-1.68-8.77-1.68s-8-32.35-10.25-42.36-9.44-48.45-9.44-48.45l-3.78 26.7s1.79 9.17 0 23.74-5 29.49-5 29.49a26.6 26.6 0 0 1-9 1.47 15.26 15.26 0 0 1-7.9-2.06s-5-43.35-5-59.87 1.39-57.8 6.59-82.24Z" style="fill:#455a64"/><path d="M461.84 307.36c-.2-1-.4-1.87-.58-2.74-1.62-7.72-2.36-23.37-2.33-36.17v-12.11c-.14-16.66-1.43-35.31-9.85-47.34l-.68.47c5.66 8.09 8.05 19.28 9 30.83-8.36-1.11-10.2-9.37-12.69-20.74-.34-1.56-.69-3.16-1.07-4.82l-.81.19c.38 1.65.73 3.25 1.07 4.81 2.49 11.35 4.47 20.33 13.57 21.42.4 5.09.55 10.23.6 15.19v12.1c0 12.85.71 28.53 2.34 36.34.19.87.38 1.78.59 2.74 2.17 10 5.41 25 3.8 51.1a8 8 0 0 0 .86-.56c1.57-25.85-1.66-40.75-3.82-50.71M410.3 232.6c1.17 5.5 8.42 8.43 12.4 9.38l.6 3.36c-.19 3-.41 6.09-.63 9.32-1.21 17.76-2.46 36.13-1.56 40.28 2.4 10.91 1.69 17.82.41 30.38-.14 1.29-.27 2.63-.41 4-.73 7.29-1.53 14.44-2.06 19l.85-.2c.54-4.6 1.32-11.61 2-18.75.14-1.41.28-2.75.41-4 1.29-12.65 2-19.61-.42-30.65-.88-4 .43-23.17 1.58-40 .14-2 .28-4.05.41-6l3.55 19.69-.43 25.91 3.84-26.69-4.84-28.85s-9.56.22-15.7-6.18" style="fill:#37474f"/><path d="M347 153.63a4.5 4.5 0 0 1 2.67-.09 29 29 0 0 1 4 1.7c2.06.84 5.38 2.22 7.62 1.87.45-.07 1.37-.36.69-.86a18.5 18.5 0 0 1-2.62-2 4 4 0 0 1-1.27-3 1.33 1.33 0 0 1 .37-.9c.34-.33.62-.18.94 0a10 10 0 0 0 1.08.5l2.24 1c4.36 1.94 8.75 4.28 11.64 8.19.41.57 3.06 5.12 4.72 7.67 1.39 2.33 10.72 16.9 10.72 16.9s10.53-14.26 13.53-18.62 6.91-6.45 13.18-7.61l-2.82 22.14s-13.15 16.48-15.23 18.37c-3.08 2.8-9 8-13.6 4.35-5.66-4.47-8.41-12.8-11-18.8-2.89-6.75-3.9-10-5.34-12s-3.45-1.9-4.89-2.18a21.6 21.6 0 0 1-5.76-1.79 19.8 19.8 0 0 1-4.57-2.64 6.3 6.3 0 0 1-1.85-1.78 21 21 0 0 0-.63-2c-.42-.73-1.17-1.23-1.51-2a7.7 7.7 0 0 1-.34-1.94 3.32 3.32 0 0 0-1.67-2.14 3.1 3.1 0 0 1-1-1c-.3-.71.1-1.11.7-1.34" style="fill:#ffbda7"/><path d="M389.8 184.6a16.35 16.35 0 0 1 2.29 10c1.83-6 .11-9.83-1.11-11.57Zm-25.73-25.83a14.55 14.55 0 0 0 5.72 5.75 6.06 6.06 0 0 1-4-1.48 5.7 5.7 0 0 1-1.72-4.27" style="fill:#f0997a"/><path d="M461.08 224.05c-1.95-8.93-4.41-18.93-4.67-20.89-1.53-11.36.49-17.13 1.23-22.1 1.62-10.82-1.48-19.89-4-22 0 0-2.62-.6-5.75-1.35a44 44 0 0 0-5.4-1 65 65 0 0 0-14.46-.4c-1.17.12-6.73 1.08-6.73 1.08-1.68.39-4.76.95-4.77 1a35.7 35.7 0 0 0-7.44 9.57c-2.74 4.9-4.3 9-4.79 19.52-.62 13.37-.91 28.32-2.08 38.82 11.09 6.79 44.94 9.63 58.86-2.25m-19.03-77.13c-.32.87-1.14-.08-1.94.47a2.85 2.85 0 0 1-2.15.05c-.38-.09-.77-.2-1.15-.32a18.3 18.3 0 0 1-5.53-3.2c-2.52-2-4.75-4.33-7.06-6.57a88 88 0 0 1-6.58-6.66c-1-1.16-4.87-4.72-6.23-7.25-1.18-2.19-.7-4.25.33-5-2.82.71-4.57-1-4.64-2.56a3.7 3.7 0 0 1 2.59-3.43 1.28 1.28 0 0 0 .65 1.69 1.76 1.76 0 0 0 1.87-.43 2.86 2.86 0 0 0 .77-1.83 4.63 4.63 0 0 0-.53-2.45 3.3 3.3 0 0 1 .85-3.77c.72-.53 1.89-1.3 6.92-.7a1.74 1.74 0 0 0 1.63-.65 4.4 4.4 0 0 0 .42-1.11 3.68 3.68 0 0 1 3-2.23 7.7 7.7 0 0 1 3.83.61 7.8 7.8 0 0 0 2.8.78c1.35 0 2.58-.86 3.93-.85 2.49 0 3.08 2.63 5.45 3.38 1.17.37 2.61-.5 4.34 1.49.73.85.4 2.22.94 3.21a6 6 0 0 0 1.64 1.7 3.61 3.61 0 0 1-.32 5.49c2.15.71 4.29 3.22 4.5 7.52a22.6 22.6 0 0 1-1.7 8.58c-1.12 2.36-7.79 11.78-8.63 14.04" style="fill:#263238"/><path d="M441.93 153.42c0-1.78.23-10.68.23-10.68.07.67 3.31 2.47 6.19-1s3.07-7.08 1.33-9.4c-1.92-2.56-6.93-2.5-7.4 1.84-2.49-.1-3.69-1.17-2.71-5.26-.26-2.86-3.5-3.7-3.42-9.94-8.17-5.4-16.45-5-21.42-.72a48.7 48.7 0 0 0-2 15.71c.36 9.44 2.89 14 5.92 15.58 2 1.06 3.87 1.31 7.4 1l-.16 3c-.06 1.49.07 2.59-1.37 3.07-1 .33-3.27.77-3.27.77s-3.36 5.81 5.9 6.33c14.77.83 20.69-6 20.69-6l-3.27-1c-2.36-.79-2.57-1.53-2.64-3.3" style="fill:#ffbda7"/><path d="m429 139.41-5.58 1.79a2.88 2.88 0 0 0 3.64 2 3.06 3.06 0 0 0 1.94-3.79" style="fill:#b16668"/><path d="M428.66 140.7a3.24 3.24 0 0 0-3.22 2.52 2.75 2.75 0 0 0 1.63 0 3 3 0 0 0 2-2.44 3 3 0 0 0-.41-.08" style="fill:#f0997a"/><path d="m415.6 125.77 3.49-2a1.91 1.91 0 0 0-2.66-.82 2.09 2.09 0 0 0-.83 2.82m16.8.23-3.86-1.21a1.93 1.93 0 0 1 2.47-1.36 2.12 2.12 0 0 1 1.39 2.57m-12.82 3.23a1.71 1.71 0 0 1-1.53 1.82 1.6 1.6 0 0 1-1.79-1.47 1.7 1.7 0 0 1 1.53-1.82 1.6 1.6 0 0 1 1.79 1.47m12.09.27a1.72 1.72 0 0 1-1.53 1.82 1.6 1.6 0 0 1-1.79-1.47 1.71 1.71 0 0 1 1.53-1.82 1.6 1.6 0 0 1 1.79 1.47" style="fill:#263238"/><path d="m418.24 134.53 5.28 2.5 1.06-10.16c-2.1.05-4.22 3.54-6.34 7.66m7.86 16.06c6.34-.65 12.41-2.74 13.83-5.64a7.57 7.57 0 0 1-2.54 4.68c-4.23 3.54-11.41 3.21-11.41 3.21Zm37.81 88.35c2.67.76 6.09-2.57 7-3.73s-.27-3.9-.83-6.22 0-6.24-2.87-5.14-8.88 8.84-3.3 15.09" style="fill:#f0997a"/><path d="M453.64 159c7.44 1.1 10.89 2.88 15 11.12 4.77 9.59 12.49 22.93 13.68 27.09 1.11 3.87 3.33 6.63-.91 12.52-3.88 5.39-16.07 19.51-17.86 21.58-1.58 1.83-.7 7.08 4.74 6.3 0 0-4.14 3.67-6.42 3.26-2-.35-5.05-2.07-7.89-8-1.79-3.76-.29-6.71 2.43-10.9 3.25-5 10.27-18.93 10.27-18.93l-12.58-22.3s-6.8-15.09-.46-21.74" style="fill:#ffbda7"/><path d="M430.92 93.56a1.14 1.14 0 0 1-1-.67L426.68 86c-11.46-1-19.81-5.62-23.53-13.16a24.9 24.9 0 0 1 1.6-25.19c4.93-7.52 14.82-12.38 25.21-12.38 11.06 0 19.26 3.34 25.07 10.2 7.11 8.4 7.47 20.48 3.7 27.29-4.44 8-12.15 12.37-23.57 13.25L432 92.89a1.15 1.15 0 0 1-1.08.67M430 35.8c-10.2 0-19.9 4.76-24.73 12.12a24.34 24.34 0 0 0-1.56 24.61c4.91 10 16.66 12.34 23.23 12.86h.17l3.33 7.25a.59.59 0 0 0 1 0l3.34-7.24h.17c11.47-.85 18.85-5 23.27-13 3.6-6.5 3.23-18.53-3.63-26.64-5.69-6.69-13.75-9.96-24.59-9.96" style="fill:#feda5e"/><path d="M446.39 62.68a15.2 15.2 0 1 1-30.4 0v-.41l15.19.41-4.36-14.57a15.23 15.23 0 0 1 19.56 14.57Z" style="fill:#feda5e"/><path d="m427.07 59.63-15.18-.41a15.18 15.18 0 0 1 10.82-14.16Z" style="fill:#feda5e"/><path d="m427.07 59.63-15.18-.41a15.18 15.18 0 0 1 10.82-14.16Z" style="fill:#fff;opacity:.30000000000000004"/></svg>