<svg xmlns="http://www.w3.org/2000/svg" width="1200" height="630" viewBox="0 0 1200 630">
  <defs>
    <linearGradient id="bg" x1="0%" y1="0%" x2="100%" y2="100%">
      <stop offset="0%" stop-color="#0f172a"/>
      <stop offset="100%" stop-color="#1e293b"/>
    </linearGradient>
  </defs>
  <rect width="1200" height="630" fill="url(#bg)"/>
  <g transform="translate(900,300)" opacity="0.12">
    <polygon points="0,-120 104,-60 104,60 0,120 -104,60 -104,-60" fill="none" stroke="#10b981" stroke-width="2"/>
    <polygon points="0,-80 69,-40 69,40 0,80 -69,40 -69,-40" fill="none" stroke="#10b981" stroke-width="2"/>
    <polygon points="0,-40 35,-20 35,20 0,40 -35,20 -35,-20" fill="#10b981" opacity="0.3"/>
    <text y="6" text-anchor="middle" font-family="system-ui,sans-serif" font-size="14" font-weight="bold" fill="#10b981">Domain</text>
  </g>
  <g transform="translate(200,300)" opacity="0.08">
    <polygon points="0,-90 78,-45 78,45 0,90 -78,45 -78,-45" fill="none" stroke="#10b981" stroke-width="1.5"/>
    <polygon points="0,-50 43,-25 43,25 0,50 -43,25 -43,-25" fill="none" stroke="#10b981" stroke-width="1.5"/>
  </g>
  <g opacity="0.05">
    <text x="60" y="100" font-family="monospace" font-size="13" fill="#10b981">src/Order/Domain/Port/</text>
    <text x="60" y="130" font-family="monospace" font-size="13" fill="#10b981">  OrderRepositoryInterface.php</text>
    <text x="700" y="520" font-family="monospace" font-size="13" fill="#10b981">src/Order/Application/UseCase/</text>
    <text x="700" y="550" font-family="monospace" font-size="13" fill="#10b981">  ValidateOrder.php</text>
  </g>
  <text x="600" y="240" text-anchor="middle" font-family="system-ui,sans-serif" font-size="22" font-weight="600" fill="#94a3b8" letter-spacing="4">RETOUR DE MISSION</text>
  <text x="600" y="310" text-anchor="middle" font-family="system-ui,sans-serif" font-size="48" font-weight="800" fill="#f8fafc">Architecture</text>
  <text x="600" y="370" text-anchor="middle" font-family="system-ui,sans-serif" font-size="48" font-weight="800" fill="#10b981">Hexagonale</text>
  <rect x="440" y="400" width="320" height="3" rx="1.5" fill="#10b981" opacity="0.5"/>
  <text x="600" y="445" text-anchor="middle" font-family="system-ui,sans-serif" font-size="18" fill="#64748b">Migration d'une app Symfony legacy</text>
  <text x="600" y="570" text-anchor="middle" font-family="system-ui,sans-serif" font-size="16" fill="#475569" letter-spacing="2">EFFICIENCE IT</text>
</svg>