<svg xmlns="http://www.w3.org/2000/svg" width="1200" height="630" viewBox="0 0 1200 630">
  <defs>
    <linearGradient id="bg" x1="0%" y1="0%" x2="100%" y2="100%">
      <stop offset="0%" stop-color="#0f172a"/>
      <stop offset="100%" stop-color="#1e293b"/>
    </linearGradient>
  </defs>
  <rect width="1200" height="630" fill="url(#bg)"/>
  <g opacity="0.08">
    <circle cx="600" cy="315" r="80" fill="none" stroke="#a78bfa" stroke-width="2"/>
    <circle cx="600" cy="315" r="180" fill="none" stroke="#a78bfa" stroke-width="1" stroke-dasharray="8 6"/>
    <circle cx="540" cy="295" r="12" fill="#a78bfa"/>
    <circle cx="600" cy="345" r="12" fill="#a78bfa"/>
    <circle cx="660" cy="295" r="12" fill="#a78bfa"/>
    <circle cx="600" cy="275" r="12" fill="#a78bfa"/>
    <circle cx="440" cy="230" r="8" fill="#64748b"/>
    <circle cx="760" cy="230" r="8" fill="#64748b"/>
    <circle cx="440" cy="400" r="8" fill="#64748b"/>
    <circle cx="760" cy="400" r="8" fill="#64748b"/>
    <circle cx="500" cy="170" r="8" fill="#64748b"/>
    <circle cx="700" cy="170" r="8" fill="#64748b"/>
    <circle cx="500" cy="460" r="8" fill="#64748b"/>
    <circle cx="700" cy="460" r="8" fill="#64748b"/>
    <line x1="540" y1="295" x2="440" y2="230" stroke="#64748b" stroke-width="0.5"/>
    <line x1="660" y1="295" x2="760" y2="230" stroke="#64748b" stroke-width="0.5"/>
    <line x1="600" y1="345" x2="440" y2="400" stroke="#64748b" stroke-width="0.5"/>
    <line x1="600" y1="345" x2="760" y2="400" stroke="#64748b" stroke-width="0.5"/>
    <line x1="600" y1="275" x2="500" y2="170" stroke="#64748b" stroke-width="0.5"/>
    <line x1="600" y1="275" x2="700" y2="170" stroke="#64748b" stroke-width="0.5"/>
  </g>
  <g opacity="0.05">
    <text x="80" y="530" font-family="monospace" font-size="13" fill="#a78bfa">Core Team (4) + Extended Team (12)</text>
    <text x="80" y="560" font-family="monospace" font-size="13" fill="#a78bfa">Decisions: async, vote-based</text>
  </g>
  <text x="600" y="240" text-anchor="middle" font-family="system-ui,sans-serif" font-size="22" font-weight="600" fill="#94a3b8" letter-spacing="4">ORGANISATION PROJET</text>
  <text x="600" y="310" text-anchor="middle" font-family="system-ui,sans-serif" font-size="48" font-weight="800" fill="#f8fafc">Core Team</text>
  <text x="600" y="375" text-anchor="middle" font-family="system-ui,sans-serif" font-size="32" font-weight="600" fill="#a78bfa">livrer vite et bien</text>
  <rect x="440" y="405" width="320" height="3" rx="1.5" fill="#a78bfa" opacity="0.5"/>
  <text x="600" y="450" text-anchor="middle" font-family="system-ui,sans-serif" font-size="18" fill="#64748b">noyau decisionnaire + ecosysteme</text>
  <text x="600" y="570" text-anchor="middle" font-family="system-ui,sans-serif" font-size="16" fill="#475569" letter-spacing="2">EFFICIENCE IT</text>
</svg>
