<?xml version="1.0" encoding="UTF-8"?>
<svg xmlns="http://www.w3.org/2000/svg" viewBox="0 0 1200 630" width="1200" height="630" role="img" aria-label="Cycle de support Symfony et PHP au 13 mai 2026 : Symfony 4.4 LTS et 5.4 LTS EOL, 6.4 LTS et 7.4 LTS actifs, PHP 7.4 et 8.1 EOL, 8.3 en support securite uniquement">
  <rect width="1200" height="630" fill="#f5f5f5"/>
  <circle cx="100" cy="100" r="140" fill="#0066cc" opacity="0.06"/>
  <circle cx="1100" cy="560" r="180" fill="#0066cc" opacity="0.05"/>

  <g transform="translate(120, 80)">
    <rect x="6" y="10" width="960" height="470" rx="14" fill="#0f1722" opacity="0.10"/>
    <rect width="960" height="470" rx="14" fill="#ffffff"/>
    <rect width="960" height="470" rx="14" fill="none" stroke="#e8e8e8" stroke-width="1"/>

    <path d="M0 14 a14 14 0 0 1 14 -14 h932 a14 14 0 0 1 14 14 v54 h-960 z" fill="#0066cc"/>
    <text x="32" y="42" font-family="Arial, Helvetica, sans-serif" font-size="17" font-weight="700" fill="#ffffff" letter-spacing="2.5">CYCLE DE SUPPORT · SYMFONY ET PHP</text>
    <text x="928" y="42" font-family="Arial, Helvetica, sans-serif" font-size="14" font-weight="500" fill="#ffffff" opacity="0.85" text-anchor="end">À jour au 13 mai 2026</text>

    <g font-family="Arial, Helvetica, sans-serif" font-size="11" font-weight="600" fill="#595959" text-anchor="middle">
      <text x="250" y="96">2022</text>
      <text x="362" y="96">2023</text>
      <text x="473" y="96">2024</text>
      <text x="585" y="96">2025</text>
      <text x="697" y="96">2026</text>
      <text x="809" y="96">2027</text>
      <text x="920" y="96">2028</text>
    </g>

    <g stroke="#e8e8e8" stroke-width="1">
      <line x1="250" y1="108" x2="250" y2="362"/>
      <line x1="362" y1="108" x2="362" y2="362"/>
      <line x1="473" y1="108" x2="473" y2="362"/>
      <line x1="585" y1="108" x2="585" y2="362"/>
      <line x1="697" y1="108" x2="697" y2="362"/>
      <line x1="809" y1="108" x2="809" y2="362"/>
      <line x1="920" y1="108" x2="920" y2="362"/>
    </g>

    <line x1="738" y1="108" x2="738" y2="362" stroke="#333333" stroke-width="1.5" stroke-dasharray="4 3" opacity="0.6"/>

    <g transform="translate(0, 130)">
      <text x="30" y="5" font-family="Arial, Helvetica, sans-serif" font-size="14" font-weight="600" fill="#333333">Symfony 4.4 LTS</text>
      <rect x="160" y="-11" width="62" height="22" rx="11" fill="#dc2626"/>
      <text x="191" y="4" font-family="Arial, Helvetica, sans-serif" font-size="11" font-weight="700" fill="#ffffff" text-anchor="middle" letter-spacing="0.5">EOL</text>
      <rect x="250" y="-7" width="102" height="14" rx="3" fill="#0066cc"/>
      <rect x="352" y="-7" width="112" height="14" rx="3" fill="#0066cc" opacity="0.4"/>
    </g>

    <g transform="translate(0, 166)">
      <text x="30" y="5" font-family="Arial, Helvetica, sans-serif" font-size="14" font-weight="600" fill="#333333">Symfony 5.4 LTS</text>
      <rect x="160" y="-11" width="62" height="22" rx="11" fill="#dc2626"/>
      <text x="191" y="4" font-family="Arial, Helvetica, sans-serif" font-size="11" font-weight="700" fill="#ffffff" text-anchor="middle" letter-spacing="0.5">EOL</text>
      <rect x="250" y="-7" width="326" height="14" rx="3" fill="#0066cc"/>
      <rect x="576" y="-7" width="111" height="14" rx="3" fill="#0066cc" opacity="0.4"/>
    </g>

    <g transform="translate(0, 202)">
      <text x="30" y="5" font-family="Arial, Helvetica, sans-serif" font-size="14" font-weight="600" fill="#333333">Symfony 6.4 LTS</text>
      <rect x="160" y="-11" width="62" height="22" rx="11" fill="#16a34a"/>
      <text x="191" y="4" font-family="Arial, Helvetica, sans-serif" font-size="10" font-weight="700" fill="#ffffff" text-anchor="middle" letter-spacing="0.5">ACTIF</text>
      <rect x="464" y="-7" width="335" height="14" rx="3" fill="#0066cc"/>
      <rect x="799" y="-7" width="112" height="14" rx="3" fill="#0066cc" opacity="0.4"/>
    </g>

    <g transform="translate(0, 238)">
      <text x="30" y="5" font-family="Arial, Helvetica, sans-serif" font-size="14" font-weight="600" fill="#333333">Symfony 7.4 LTS</text>
      <rect x="160" y="-11" width="62" height="22" rx="11" fill="#16a34a"/>
      <text x="191" y="4" font-family="Arial, Helvetica, sans-serif" font-size="10" font-weight="700" fill="#ffffff" text-anchor="middle" letter-spacing="0.5">ACTIF</text>
      <rect x="687" y="-7" width="233" height="14" rx="3" fill="#0066cc"/>
    </g>

    <g transform="translate(0, 274)">
      <text x="30" y="5" font-family="Arial, Helvetica, sans-serif" font-size="14" font-weight="600" fill="#333333">PHP 7.4</text>
      <rect x="160" y="-11" width="62" height="22" rx="11" fill="#dc2626"/>
      <text x="191" y="4" font-family="Arial, Helvetica, sans-serif" font-size="11" font-weight="700" fill="#ffffff" text-anchor="middle" letter-spacing="0.5">EOL</text>
      <rect x="250" y="-7" width="102" height="14" rx="3" fill="#0066cc" opacity="0.4"/>
    </g>

    <g transform="translate(0, 310)">
      <text x="30" y="5" font-family="Arial, Helvetica, sans-serif" font-size="14" font-weight="600" fill="#333333">PHP 8.1</text>
      <rect x="160" y="-11" width="62" height="22" rx="11" fill="#dc2626"/>
      <text x="191" y="4" font-family="Arial, Helvetica, sans-serif" font-size="11" font-weight="700" fill="#ffffff" text-anchor="middle" letter-spacing="0.5">EOL</text>
      <rect x="250" y="-7" width="214" height="14" rx="3" fill="#0066cc"/>
      <rect x="464" y="-7" width="232" height="14" rx="3" fill="#0066cc" opacity="0.4"/>
    </g>

    <g transform="translate(0, 346)">
      <text x="30" y="5" font-family="Arial, Helvetica, sans-serif" font-size="14" font-weight="600" fill="#333333">PHP 8.3</text>
      <rect x="160" y="-11" width="62" height="22" rx="11" fill="#f59e0b"/>
      <text x="191" y="4" font-family="Arial, Helvetica, sans-serif" font-size="10" font-weight="700" fill="#ffffff" text-anchor="middle" letter-spacing="0.5">SÉCU</text>
      <rect x="464" y="-7" width="232" height="14" rx="3" fill="#0066cc"/>
      <rect x="696" y="-7" width="223" height="14" rx="3" fill="#0066cc" opacity="0.4"/>
    </g>

    <g transform="translate(0, 405)">
      <rect x="30" y="0" width="20" height="10" rx="2" fill="#0066cc"/>
      <text x="56" y="9" font-family="Arial, Helvetica, sans-serif" font-size="11" font-weight="600" fill="#595959">Support actif</text>
      <rect x="180" y="0" width="20" height="10" rx="2" fill="#0066cc" opacity="0.4"/>
      <text x="206" y="9" font-family="Arial, Helvetica, sans-serif" font-size="11" font-weight="600" fill="#595959">Sécurité uniquement</text>
      <circle cx="385" cy="5" r="5" fill="#16a34a"/>
      <text x="397" y="9" font-family="Arial, Helvetica, sans-serif" font-size="11" font-weight="600" fill="#595959">Actif</text>
      <circle cx="445" cy="5" r="5" fill="#f59e0b"/>
      <text x="457" y="9" font-family="Arial, Helvetica, sans-serif" font-size="11" font-weight="600" fill="#595959">Sécurité</text>
      <circle cx="520" cy="5" r="5" fill="#dc2626"/>
      <text x="532" y="9" font-family="Arial, Helvetica, sans-serif" font-size="11" font-weight="600" fill="#595959">Fin de support</text>
    </g>
  </g>
</svg>
