<svg xmlns="http://www.w3.org/2000/svg" width="1200" height="630" viewBox="0 0 1200 630">
  <defs>
    <linearGradient id="bg" x1="0%" y1="0%" x2="100%" y2="100%">
      <stop offset="0%" stop-color="#0f172a"/>
      <stop offset="100%" stop-color="#1e293b"/>
    </linearGradient>
  </defs>
  <rect width="1200" height="630" fill="url(#bg)"/>
  <g opacity="0.08">
    <rect x="80" y="420" width="180" height="40" rx="6" fill="none" stroke="#f59e0b" stroke-width="1.5"/>
    <text x="170" y="445" text-anchor="middle" font-family="system-ui,sans-serif" font-size="12" fill="#f59e0b">Doctrine Entities</text>
    <rect x="340" y="420" width="140" height="40" rx="6" fill="none" stroke="#f59e0b" stroke-width="1.5"/>
    <text x="410" y="445" text-anchor="middle" font-family="system-ui,sans-serif" font-size="12" fill="#f59e0b">Embeddings</text>
    <rect x="560" y="420" width="140" height="40" rx="6" fill="none" stroke="#f59e0b" stroke-width="1.5"/>
    <text x="630" y="445" text-anchor="middle" font-family="system-ui,sans-serif" font-size="12" fill="#f59e0b">pgvector</text>
    <rect x="780" y="420" width="120" height="40" rx="6" fill="none" stroke="#f59e0b" stroke-width="1.5"/>
    <text x="840" y="445" text-anchor="middle" font-family="system-ui,sans-serif" font-size="12" fill="#f59e0b">LLM</text>
    <line x1="260" y1="440" x2="340" y2="440" stroke="#f59e0b" stroke-width="1.5" marker-end="url(#arrow)"/>
    <line x1="480" y1="440" x2="560" y2="440" stroke="#f59e0b" stroke-width="1.5"/>
    <line x1="700" y1="440" x2="780" y2="440" stroke="#f59e0b" stroke-width="1.5"/>
    <text x="300" y="435" text-anchor="middle" font-family="system-ui,sans-serif" font-size="14" fill="#f59e0b">→</text>
    <text x="520" y="435" text-anchor="middle" font-family="system-ui,sans-serif" font-size="14" fill="#f59e0b">→</text>
    <text x="740" y="435" text-anchor="middle" font-family="system-ui,sans-serif" font-size="14" fill="#f59e0b">→</text>
  </g>
  <g opacity="0.05">
    <circle cx="200" cy="180" r="5" fill="#f59e0b"/>
    <circle cx="230" cy="160" r="4" fill="#f59e0b"/>
    <circle cx="180" cy="200" r="3" fill="#f59e0b"/>
    <circle cx="250" cy="190" r="6" fill="#f59e0b"/>
    <circle cx="210" cy="220" r="4" fill="#f59e0b"/>
    <circle cx="1000" cy="200" r="5" fill="#f59e0b"/>
    <circle cx="980" cy="170" r="4" fill="#f59e0b"/>
    <circle cx="1020" cy="220" r="3" fill="#f59e0b"/>
    <circle cx="960" cy="210" r="6" fill="#f59e0b"/>
    <circle cx="1040" cy="180" r="4" fill="#f59e0b"/>
  </g>
  <text x="600" y="230" text-anchor="middle" font-family="system-ui,sans-serif" font-size="22" font-weight="600" fill="#94a3b8" letter-spacing="4">SYMFONY AI × DOCTRINE</text>
  <text x="600" y="310" text-anchor="middle" font-family="system-ui,sans-serif" font-size="56" font-weight="800" fill="#f8fafc">RAG</text>
  <text x="600" y="375" text-anchor="middle" font-family="system-ui,sans-serif" font-size="32" font-weight="600" fill="#f59e0b">Indexer sa base métier</text>
  <rect x="440" y="400" width="320" height="3" rx="1.5" fill="#f59e0b" opacity="0.5"/>
  <text x="600" y="450" text-anchor="middle" font-family="system-ui,sans-serif" font-size="18" fill="#64748b">pour un agent IA</text>
  <text x="600" y="570" text-anchor="middle" font-family="system-ui,sans-serif" font-size="16" fill="#475569" letter-spacing="2">EFFICIENCE IT</text>
</svg>