<svg xmlns="http://www.w3.org/2000/svg" width="1200" height="630" viewBox="0 0 1200 630">
  <defs>
    <linearGradient id="bg" x1="0%" y1="0%" x2="100%" y2="100%">
      <stop offset="0%" stop-color="#0f172a"/>
      <stop offset="100%" stop-color="#1e293b"/>
    </linearGradient>
  </defs>
  <rect width="1200" height="630" fill="url(#bg)"/>
  <g opacity="0.08">
    <rect x="100" y="140" width="130" height="35" rx="6" fill="none" stroke="#a78bfa" stroke-width="1.5"/>
    <text x="165" y="162" text-anchor="middle" font-family="system-ui,sans-serif" font-size="11" fill="#a78bfa">command_bus</text>
    <rect x="100" y="195" width="130" height="35" rx="6" fill="none" stroke="#a78bfa" stroke-width="1.5"/>
    <text x="165" y="217" text-anchor="middle" font-family="system-ui,sans-serif" font-size="11" fill="#a78bfa">query_bus</text>
    <rect x="100" y="250" width="130" height="35" rx="6" fill="none" stroke="#a78bfa" stroke-width="1.5"/>
    <text x="165" y="272" text-anchor="middle" font-family="system-ui,sans-serif" font-size="11" fill="#a78bfa">event_bus</text>
    <line x1="230" y1="157" x2="300" y2="157" stroke="#a78bfa" stroke-width="1"/>
    <line x1="230" y1="212" x2="300" y2="212" stroke="#a78bfa" stroke-width="1"/>
    <line x1="230" y1="267" x2="300" y2="267" stroke="#a78bfa" stroke-width="1"/>
    <text x="270" y="155" font-family="system-ui,sans-serif" font-size="12" fill="#a78bfa">→</text>
    <text x="270" y="210" font-family="system-ui,sans-serif" font-size="12" fill="#a78bfa">→</text>
    <text x="270" y="265" font-family="system-ui,sans-serif" font-size="12" fill="#a78bfa">→</text>
    <rect x="300" y="140" width="130" height="35" rx="6" fill="none" stroke="#a78bfa" stroke-width="1.5"/>
    <text x="365" y="162" text-anchor="middle" font-family="system-ui,sans-serif" font-size="11" fill="#a78bfa">Handler</text>
    <rect x="300" y="195" width="130" height="35" rx="6" fill="none" stroke="#a78bfa" stroke-width="1.5"/>
    <text x="365" y="217" text-anchor="middle" font-family="system-ui,sans-serif" font-size="11" fill="#a78bfa">Handler</text>
    <rect x="300" y="250" width="130" height="35" rx="6" fill="none" stroke="#a78bfa" stroke-width="1.5"/>
    <text x="365" y="272" text-anchor="middle" font-family="system-ui,sans-serif" font-size="11" fill="#a78bfa">Handler ×N</text>
  </g>
  <g opacity="0.05">
    <text x="750" y="490" font-family="monospace" font-size="13" fill="#a78bfa">$this-&gt;commandBus-&gt;dispatch(</text>
    <text x="750" y="520" font-family="monospace" font-size="13" fill="#a78bfa">  new CreateOrder($id, $items)</text>
    <text x="750" y="550" font-family="monospace" font-size="13" fill="#a78bfa">);</text>
  </g>
  <text x="600" y="250" text-anchor="middle" font-family="system-ui,sans-serif" font-size="22" font-weight="600" fill="#94a3b8" letter-spacing="4">CQRS × EVENT-DRIVEN</text>
  <text x="600" y="320" text-anchor="middle" font-family="system-ui,sans-serif" font-size="48" font-weight="800" fill="#f8fafc">Symfony Messenger</text>
  <text x="600" y="385" text-anchor="middle" font-family="system-ui,sans-serif" font-size="32" font-weight="600" fill="#a78bfa">colonne vertébrale</text>
  <rect x="440" y="410" width="320" height="3" rx="1.5" fill="#a78bfa" opacity="0.5"/>
  <text x="600" y="455" text-anchor="middle" font-family="system-ui,sans-serif" font-size="18" fill="#64748b">d'une archi hexagonale</text>
  <text x="600" y="570" text-anchor="middle" font-family="system-ui,sans-serif" font-size="16" fill="#475569" letter-spacing="2">EFFICIENCE IT</text>
</svg>